Trophy-Pro-It.ufo
<glyph name="exclam" format="1">
  <advance width="679"/>
  <unicode hex="0021"/>
  <outline>
    <contour>
      <point x="282" y="-58" type="qcurve" smooth="yes"/>
      <point x="222" y="-58"/>
      <point x="194" y="-24" type="qcurve" smooth="yes"/>
      <point x="172" y="1"/>
      <point x="172" y="48" type="qcurve" smooth="yes"/>
      <point x="172" y="62"/>
      <point x="174" y="79" type="qcurve" smooth="yes"/>
      <point x="183" y="153"/>
      <point x="257" y="226"/>
      <point x="317" y="226" type="qcurve" smooth="yes"/>
      <point x="426" y="226"/>
      <point x="426" y="115" type="qcurve" smooth="yes"/>
      <point x="426" y="98"/>
      <point x="424" y="79" type="qcurve" smooth="yes"/>
      <point x="408" y="-58"/>
    </contour>
    <contour>
      <point x="430" y="447" type="qcurve"/>
      <point x="264" y="447" type="line"/>
      <point x="312" y="695"/>
      <point x="360" y="1314"/>
      <point x="361" y="1570" type="qcurve"/>
      <point x="610" y="1570" type="line"/>
      <point x="547" y="1316"/>
      <point x="438" y="690"/>
    </contour>
  </outline>
</glyph>
<glyph name="quotedbl" format="1">
  <advance width="672"/>
  <unicode hex="0022"/>
  <outline>
    <contour>
      <point x="333" y="1108" type="line"/>
      <point x="303" y="1108" type="line"/>
      <point x="285" y="1467" type="line" smooth="yes"/>
      <point x="284" y="1490"/>
      <point x="285" y="1500" type="qcurve" smooth="yes"/>
      <point x="290" y="1537"/>
      <point x="336" y="1577"/>
      <point x="375" y="1577" type="qcurve" smooth="yes"/>
      <point x="414" y="1577"/>
      <point x="452" y="1538"/>
      <point x="447" y="1501" type="qcurve" smooth="yes"/>
      <point x="446" y="1493"/>
      <point x="439" y="1467" type="qcurve" smooth="yes"/>
    </contour>
    <contour>
      <point x="645" y="1108" type="line"/>
      <point x="615" y="1108" type="line"/>
      <point x="597" y="1467" type="line" smooth="yes"/>
      <point x="596" y="1490"/>
      <point x="597" y="1500" type="qcurve" smooth="yes"/>
      <point x="602" y="1537"/>
      <point x="648" y="1577"/>
      <point x="687" y="1577" type="qcurve" smooth="yes"/>
      <point x="726" y="1577"/>
      <point x="764" y="1538"/>
      <point x="759" y="1501" type="qcurve" smooth="yes"/>
      <point x="758" y="1493"/>
      <point x="751" y="1467" type="qcurve" smooth="yes"/>
    </contour>
  </outline>
</glyph>
<glyph name="numbersign" format="1">
  <advance width="1164"/>
  <unicode hex="0023"/>
  <outline>
    <contour>
      <point x="669" y="0" type="line"/>
      <point x="525" y="0" type="line"/>
      <point x="681" y="433" type="line"/>
      <point x="465" y="433" type="line"/>
      <point x="308" y="0" type="line"/>
      <point x="164" y="0" type="line"/>
      <point x="320" y="433" type="line"/>
      <point x="172" y="433" type="line"/>
      <point x="188" y="561" type="line"/>
      <point x="367" y="561" type="line"/>
      <point x="473" y="856" type="line"/>
      <point x="313" y="856" type="line"/>
      <point x="329" y="984" type="line"/>
      <point x="519" y="984" type="line"/>
      <point x="689" y="1454" type="line"/>
      <point x="834" y="1454" type="line"/>
      <point x="664" y="984" type="line"/>
      <point x="881" y="984" type="line"/>
      <point x="1051" y="1454" type="line"/>
      <point x="1195" y="1454" type="line"/>
      <point x="1025" y="984" type="line"/>
      <point x="1166" y="984" type="line"/>
      <point x="1151" y="856" type="line"/>
      <point x="979" y="856" type="line"/>
      <point x="872" y="561" type="line"/>
      <point x="1025" y="561" type="line"/>
      <point x="1009" y="433" type="line"/>
      <point x="826" y="433" type="line"/>
    </contour>
    <contour>
      <point x="728" y="561" type="line"/>
      <point x="834" y="856" type="line"/>
      <point x="617" y="856" type="line"/>
      <point x="511" y="561" type="line"/>
    </contour>
  </outline>
</glyph>
<glyph name="dollar" format="1">
  <advance width="1049"/>
  <unicode hex="0024"/>
  <outline>
    <contour>
      <point x="524" y="-192" type="line"/>
      <point x="447" y="-192" type="line"/>
      <point x="468" y="-22" type="line"/>
      <point x="357" y="-21"/>
      <point x="155" y="29"/>
      <point x="103" y="68" type="qcurve"/>
      <point x="140" y="366" type="line"/>
      <point x="243" y="353" type="line" smooth="yes"/>
      <point x="256" y="351"/>
      <point x="258" y="338" type="qcurve" smooth="yes"/>
      <point x="280" y="178" type="line" smooth="yes"/>
      <point x="283" y="159"/>
      <point x="300" y="155" type="qcurve"/>
      <point x="389" y="128"/>
      <point x="486" y="122" type="qcurve"/>
      <point x="558" y="712" type="line"/>
      <point x="465" y="752"/>
      <point x="392" y="803" type="qcurve" smooth="yes"/>
      <point x="253" y="900"/>
      <point x="253" y="1063" type="qcurve" smooth="yes"/>
      <point x="253" y="1089"/>
      <point x="256" y="1116" type="qcurve"/>
      <point x="280" y="1290"/>
      <point x="489" y="1465"/>
      <point x="652" y="1480" type="qcurve"/>
      <point x="668" y="1608" type="line"/>
      <point x="745" y="1608" type="line"/>
      <point x="729" y="1483" type="line"/>
      <point x="862" y="1483"/>
      <point x="1032" y="1461" type="qcurve"/>
      <point x="1013" y="1289"/>
      <point x="1004" y="1113" type="qcurve"/>
      <point x="1000" y="1053" type="line"/>
      <point x="888" y="1067" type="line" smooth="yes"/>
      <point x="880" y="1068"/>
      <point x="874" y="1075"/>
      <point x="873" y="1082" type="qcurve" smooth="yes"/>
      <point x="853" y="1312" type="line" smooth="yes"/>
      <point x="852" y="1325"/>
      <point x="820" y="1328"/>
      <point x="803" y="1330" type="qcurve" smooth="yes"/>
      <point x="761" y="1336"/>
      <point x="712" y="1338" type="qcurve"/>
      <point x="655" y="879" type="line"/>
      <point x="702" y="857" type="line"/>
      <point x="861" y="787"/>
      <point x="935" y="682" type="qcurve" smooth="yes"/>
      <point x="994" y="598"/>
      <point x="994" y="480" type="qcurve" smooth="yes"/>
      <point x="994" y="449"/>
      <point x="990" y="417" type="qcurve" smooth="yes"/>
      <point x="968" y="244"/>
      <point x="742" y="7"/>
      <point x="545" y="-18" type="qcurve"/>
    </contour>
    <contour>
      <point x="583" y="915" type="qcurve"/>
      <point x="634" y="1334" type="line"/>
      <point x="537" y="1315"/>
      <point x="496" y="1253" type="qcurve" smooth="yes"/>
      <point x="446" y="1178"/>
      <point x="446" y="1095" type="qcurve" smooth="yes"/>
      <point x="446" y="1039"/>
      <point x="510" y="953"/>
    </contour>
    <contour>
      <point x="563" y="130" type="line"/>
      <point x="663" y="155"/>
      <point x="723" y="230" type="qcurve" smooth="yes"/>
      <point x="798" y="324"/>
      <point x="798" y="450" type="qcurve" smooth="yes"/>
      <point x="798" y="514"/>
      <point x="735" y="628"/>
      <point x="631" y="679" type="qcurve"/>
    </contour>
  </outline>
</glyph>
<glyph name="percent" format="1">
  <advance width="1610"/>
  <unicode hex="0025"/>
  <outline>
    <contour>
      <point x="628" y="1459" type="qcurve" smooth="yes"/>
      <point x="726" y="1459"/>
      <point x="899" y="1361"/>
      <point x="981" y="1180"/>
      <point x="969" y="1080" type="qcurve" smooth="yes"/>
      <point x="956" y="981"/>
      <point x="833" y="802"/>
      <point x="636" y="701"/>
      <point x="535" y="701" type="qcurve" smooth="yes"/>
      <point x="435" y="701"/>
      <point x="262" y="802"/>
      <point x="182" y="981"/>
      <point x="195" y="1080" type="qcurve" smooth="yes"/>
      <point x="207" y="1180"/>
      <point x="333" y="1361"/>
      <point x="530" y="1459"/>
    </contour>
    <contour>
      <point x="337" y="1066" type="qcurve"/>
      <point x="339" y="974"/>
      <point x="404" y="811"/>
      <point x="462" y="768" type="qcurve" smooth="yes"/>
      <point x="514" y="728"/>
      <point x="571" y="728" type="qcurve" smooth="yes"/>
      <point x="578" y="728"/>
      <point x="585" y="729" type="qcurve"/>
      <point x="648" y="732"/>
      <point x="764" y="832"/>
      <point x="796" y="918" type="qcurve" smooth="yes"/>
      <point x="815" y="972"/>
      <point x="822" y="1029" type="qcurve" smooth="yes"/>
      <point x="826" y="1061"/>
      <point x="826" y="1094" type="qcurve" smooth="yes"/>
      <point x="826" y="1187"/>
      <point x="758" y="1352"/>
      <point x="700" y="1394" type="qcurve" smooth="yes"/>
      <point x="647" y="1432"/>
      <point x="590" y="1432" type="qcurve" smooth="yes"/>
      <point x="579" y="1432" type="line"/>
      <point x="517" y="1429"/>
      <point x="401" y="1331"/>
      <point x="370" y="1245" type="qcurve" smooth="yes"/>
      <point x="348" y="1187"/>
      <point x="341" y="1128" type="qcurve" smooth="yes"/>
      <point x="337" y="1097"/>
    </contour>
    <contour>
      <point x="293" y="-29" type="line"/>
      <point x="1413" y="1432" type="line"/>
      <point x="1497" y="1432" type="line"/>
      <point x="379" y="-29" type="line"/>
    </contour>
    <contour>
      <point x="1252" y="738" type="qcurve" smooth="yes"/>
      <point x="1349" y="738"/>
      <point x="1522" y="639"/>
      <point x="1604" y="458"/>
      <point x="1592" y="359" type="qcurve" smooth="yes"/>
      <point x="1580" y="259"/>
      <point x="1457" y="80"/>
      <point x="1260" y="-20"/>
      <point x="1159" y="-20" type="qcurve" smooth="yes"/>
      <point x="1058" y="-20"/>
      <point x="886" y="80"/>
      <point x="806" y="259"/>
      <point x="818" y="359" type="qcurve" smooth="yes"/>
      <point x="830" y="458"/>
      <point x="956" y="639"/>
      <point x="1154" y="738"/>
    </contour>
    <contour>
      <point x="960" y="344" type="qcurve"/>
      <point x="962" y="252"/>
      <point x="1027" y="89"/>
      <point x="1086" y="46" type="qcurve" smooth="yes"/>
      <point x="1140" y="7"/>
      <point x="1197" y="7" type="qcurve" smooth="yes"/>
      <point x="1208" y="7" type="line"/>
      <point x="1271" y="10"/>
      <point x="1388" y="110"/>
      <point x="1419" y="196" type="qcurve" smooth="yes"/>
      <point x="1439" y="250"/>
      <point x="1446" y="307" type="qcurve" smooth="yes"/>
      <point x="1450" y="339"/>
      <point x="1450" y="372" type="qcurve"/>
      <point x="1449" y="465"/>
      <point x="1381" y="630"/>
      <point x="1324" y="672" type="qcurve"/>
      <point x="1270" y="710"/>
      <point x="1213" y="710" type="qcurve" smooth="yes"/>
      <point x="1202" y="710" type="line"/>
      <point x="1141" y="707"/>
      <point x="1025" y="609"/>
      <point x="993" y="523" type="qcurve" smooth="yes"/>
      <point x="971" y="465"/>
      <point x="964" y="406" type="qcurve" smooth="yes"/>
      <point x="960" y="375"/>
    </contour>
  </outline>
</glyph>
<glyph name="ampersand" format="1">
  <advance width="1465"/>
  <unicode hex="0026"/>
  <outline>
    <contour>
      <point x="518" y="-20" type="qcurve"/>
      <point x="507" y="-20" type="line" smooth="yes"/>
      <point x="316" y="-20"/>
      <point x="205" y="82" type="qcurve" smooth="yes"/>
      <point x="109" y="169"/>
      <point x="109" y="332" type="qcurve" smooth="yes"/>
      <point x="109" y="364"/>
      <point x="113" y="398" type="qcurve"/>
      <point x="148" y="646"/>
      <point x="499" y="822" type="qcurve"/>
      <point x="489" y="839"/>
      <point x="461" y="876" type="qcurve"/>
      <point x="415" y="931"/>
      <point x="382" y="1001" type="qcurve" smooth="yes"/>
      <point x="357" y="1054"/>
      <point x="357" y="1126" type="qcurve" smooth="yes"/>
      <point x="357" y="1300"/>
      <point x="481" y="1401" type="qcurve" smooth="yes"/>
      <point x="585" y="1486"/>
      <point x="762" y="1486" type="qcurve" smooth="yes"/>
      <point x="913" y="1486"/>
      <point x="1000" y="1409" type="qcurve" smooth="yes"/>
      <point x="1073" y="1343"/>
      <point x="1073" y="1230" type="qcurve" smooth="yes"/>
      <point x="1073" y="1211"/>
      <point x="1071" y="1190" type="qcurve"/>
      <point x="1052" y="1056"/>
      <point x="864" y="861"/>
      <point x="728" y="803" type="qcurve"/>
      <point x="776" y="738"/>
      <point x="967" y="509" type="qcurve" smooth="yes"/>
      <point x="1050" y="408" type="line"/>
      <point x="1136" y="545"/>
      <point x="1171" y="723" type="qcurve"/>
      <point x="1176" y="764" type="line"/>
      <point x="1457" y="764" type="line"/>
      <point x="1438" y="678" type="line" smooth="yes"/>
      <point x="1436" y="666"/>
      <point x="1422" y="665" type="qcurve"/>
      <point x="1314" y="651" type="line"/>
      <point x="1301" y="650"/>
      <point x="1298" y="639" type="qcurve" smooth="yes"/>
      <point x="1297" y="637"/>
      <point x="1297" y="634" type="qcurve"/>
      <point x="1248" y="433"/>
      <point x="1143" y="295" type="qcurve"/>
      <point x="1210" y="213"/>
      <point x="1254" y="157" type="qcurve" smooth="yes"/>
      <point x="1257" y="154"/>
      <point x="1265" y="150"/>
      <point x="1382" y="133" type="qcurve" smooth="yes"/>
      <point x="1395" y="131"/>
      <point x="1395" y="121" type="qcurve"/>
      <point x="1391" y="-3" type="line"/>
      <point x="1243" y="10"/>
      <point x="1126" y="10" type="qcurve"/>
      <point x="1010" y="157" type="line"/>
      <point x="903" y="70"/>
      <point x="647" y="-18"/>
    </contour>
    <contour>
      <point x="569" y="130" type="qcurve" smooth="yes"/>
      <point x="665" y="130"/>
      <point x="847" y="202"/>
      <point x="924" y="264" type="qcurve"/>
      <point x="880" y="317" type="line" smooth="yes"/>
      <point x="715" y="516"/>
      <point x="565" y="720" type="qcurve"/>
      <point x="522" y="695"/>
      <point x="420" y="615"/>
      <point x="340" y="501"/>
      <point x="329" y="425" type="qcurve" smooth="yes"/>
      <point x="325" y="395"/>
      <point x="325" y="367" type="qcurve" smooth="yes"/>
      <point x="325" y="318"/>
      <point x="356" y="210"/>
      <point x="468" y="130"/>
    </contour>
    <contour>
      <point x="660" y="889" type="line"/>
      <point x="775" y="950"/>
      <point x="905" y="1080"/>
      <point x="917" y="1171" type="qcurve"/>
      <point x="920" y="1188"/>
      <point x="920" y="1205" type="qcurve" smooth="yes"/>
      <point x="920" y="1222"/>
      <point x="913" y="1276"/>
      <point x="877" y="1339"/>
      <point x="803" y="1378"/>
      <point x="740" y="1378" type="qcurve" smooth="yes"/>
      <point x="680" y="1378"/>
      <point x="593" y="1314"/>
      <point x="568" y="1268" type="qcurve" smooth="yes"/>
      <point x="536" y="1209"/>
      <point x="536" y="1157" type="qcurve" smooth="yes"/>
      <point x="536" y="1098"/>
      <point x="603" y="970"/>
      <point x="645" y="912" type="qcurve"/>
    </contour>
  </outline>
</glyph>
<glyph name="quotesingle" format="1">
  <advance width="346"/>
  <unicode hex="0027"/>
  <outline>
    <contour>
      <point x="333" y="1108" type="line"/>
      <point x="303" y="1108" type="line"/>
      <point x="285" y="1467" type="line" smooth="yes"/>
      <point x="284" y="1490"/>
      <point x="285" y="1500" type="qcurve" smooth="yes"/>
      <point x="290" y="1537"/>
      <point x="336" y="1577"/>
      <point x="375" y="1577" type="qcurve" smooth="yes"/>
      <point x="414" y="1577"/>
      <point x="452" y="1538"/>
      <point x="447" y="1501" type="qcurve" smooth="yes"/>
      <point x="446" y="1493"/>
      <point x="439" y="1467" type="qcurve" smooth="yes"/>
    </contour>
  </outline>
</glyph>
<glyph name="parenleft" format="1">
  <advance width="658"/>
  <unicode hex="0028"/>
  <outline>
    <contour>
      <point x="398" y="-420" type="line"/>
      <point x="285" y="-298"/>
      <point x="171" y="79"/>
      <point x="158" y="284" type="qcurve"/>
      <point x="154" y="359"/>
      <point x="154" y="429" type="qcurve" smooth="yes"/>
      <point x="154" y="552"/>
      <point x="167" y="661" type="qcurve" smooth="yes"/>
      <point x="187" y="824"/>
      <point x="317" y="1222"/>
      <point x="524" y="1587"/>
      <point x="658" y="1703" type="qcurve"/>
      <point x="710" y="1582" type="line"/>
      <point x="591" y="1506"/>
      <point x="499" y="1263" type="qcurve"/>
      <point x="353" y="856"/>
      <point x="334" y="337" type="qcurve"/>
      <point x="333" y="263" type="line"/>
      <point x="333" y="138"/>
      <point x="346" y="19" type="qcurve"/>
      <point x="380" y="-227"/>
      <point x="479" y="-299" type="qcurve"/>
    </contour>
  </outline>
</glyph>
<glyph name="parenright" format="1">
  <advance width="658"/>
  <unicode hex="0029"/>
  <outline>
    <contour>
      <point x="51" y="-420" type="qcurve"/>
      <point x="-1" y="-299" type="line"/>
      <point x="116" y="-227"/>
      <point x="210" y="19" type="qcurve"/>
      <point x="265" y="173"/>
      <point x="300" y="337" type="qcurve" smooth="yes"/>
      <point x="360" y="620"/>
      <point x="375" y="924" type="qcurve" smooth="yes"/>
      <point x="377" y="971"/>
      <point x="377" y="1019" type="qcurve" smooth="yes"/>
      <point x="377" y="1139"/>
      <point x="363" y="1263" type="qcurve"/>
      <point x="330" y="1507"/>
      <point x="230" y="1582" type="qcurve"/>
      <point x="311" y="1703" type="line"/>
      <point x="418" y="1587"/>
      <point x="476" y="1405" type="qcurve" smooth="yes"/>
      <point x="558" y="1146"/>
      <point x="558" y="853" type="qcurve" smooth="yes"/>
      <point x="558" y="752"/>
      <point x="547" y="661" type="qcurve" smooth="yes"/>
      <point x="526" y="489"/>
      <point x="400" y="79"/>
      <point x="193" y="-298"/>
    </contour>
  </outline>
</glyph>
<glyph name="asterisk" format="1">
  <advance width="1024"/>
  <unicode hex="002A"/>
  <outline>
    <contour>
      <point x="657" y="1294" type="qcurve"/>
      <point x="662" y="1365"/>
      <point x="636" y="1424" type="qcurve" smooth="yes"/>
      <point x="607" y="1490"/>
      <point x="609" y="1508" type="qcurve" smooth="yes"/>
      <point x="613" y="1540"/>
      <point x="665" y="1579"/>
      <point x="704" y="1579" type="qcurve" smooth="yes"/>
      <point x="741" y="1579"/>
      <point x="785" y="1543"/>
      <point x="782" y="1514" type="qcurve" smooth="yes"/>
      <point x="779" y="1493"/>
      <point x="735" y="1425" type="qcurve" smooth="yes"/>
      <point x="694" y="1364"/>
      <point x="682" y="1295" type="qcurve"/>
      <point x="751" y="1320"/>
      <point x="804" y="1370" type="qcurve" smooth="yes"/>
      <point x="862" y="1425"/>
      <point x="881" y="1431" type="qcurve" smooth="yes"/>
      <point x="892" y="1434"/>
      <point x="902" y="1434" type="qcurve" smooth="yes"/>
      <point x="920" y="1434"/>
      <point x="936" y="1424" type="qcurve" smooth="yes"/>
      <point x="960" y="1407"/>
      <point x="967" y="1371" type="qcurve" smooth="yes"/>
      <point x="971" y="1352"/>
      <point x="969" y="1335" type="qcurve" smooth="yes"/>
      <point x="967" y="1320"/>
      <point x="961" y="1307" type="qcurve" smooth="yes"/>
      <point x="948" y="1277"/>
      <point x="919" y="1269" type="qcurve" smooth="yes"/>
      <point x="913" y="1267"/>
      <point x="900" y="1267" type="qcurve" smooth="yes"/>
      <point x="875" y="1267"/>
      <point x="825" y="1276" type="qcurve" smooth="yes"/>
      <point x="797" y="1281"/>
      <point x="770" y="1281" type="qcurve" smooth="yes"/>
      <point x="729" y="1281"/>
      <point x="688" y="1270" type="qcurve"/>
      <point x="725" y="1215"/>
      <point x="783" y="1187" type="qcurve" smooth="yes"/>
      <point x="847" y="1155"/>
      <point x="856" y="1140" type="qcurve" smooth="yes"/>
      <point x="867" y="1122"/>
      <point x="864" y="1102" type="qcurve" smooth="yes"/>
      <point x="863" y="1093"/>
      <point x="860" y="1085" type="qcurve" smooth="yes"/>
      <point x="849" y="1055"/>
      <point x="815" y="1032" type="qcurve" smooth="yes"/>
      <point x="783" y="1010"/>
      <point x="753" y="1010" type="qcurve"/>
      <point x="752" y="1010"/>
      <point x="752" y="1011" type="qcurve"/>
      <point x="721" y="1011"/>
      <point x="707" y="1034" type="qcurve" smooth="yes"/>
      <point x="697" y="1051"/>
      <point x="697" y="1128" type="qcurve"/>
      <point x="695" y="1195"/>
      <point x="665" y="1253" type="qcurve"/>
      <point x="620" y="1195"/>
      <point x="604" y="1129" type="qcurve" smooth="yes"/>
      <point x="585" y="1054"/>
      <point x="573" y="1039" type="qcurve" smooth="yes"/>
      <point x="551" y="1014"/>
      <point x="520" y="1012" type="qcurve"/>
      <point x="515" y="1012" type="line" smooth="yes"/>
      <point x="487" y="1012"/>
      <point x="461" y="1033" type="qcurve" smooth="yes"/>
      <point x="433" y="1054"/>
      <point x="428" y="1084" type="qcurve"/>
      <point x="425" y="1094"/>
      <point x="427" y="1104" type="qcurve" smooth="yes"/>
      <point x="429" y="1121"/>
      <point x="441" y="1136" type="qcurve"/>
      <point x="457" y="1153"/>
      <point x="531" y="1187" type="qcurve" smooth="yes"/>
      <point x="595" y="1216"/>
      <point x="646" y="1269" type="qcurve"/>
      <point x="606" y="1280"/>
      <point x="567" y="1280" type="qcurve" smooth="yes"/>
      <point x="540" y="1280"/>
      <point x="514" y="1275" type="qcurve" smooth="yes"/>
      <point x="458" y="1264"/>
      <point x="434" y="1264" type="qcurve" smooth="yes"/>
      <point x="425" y="1264"/>
      <point x="420" y="1266" type="qcurve" smooth="yes"/>
      <point x="392" y="1275"/>
      <point x="384" y="1304" type="qcurve" smooth="yes"/>
      <point x="380" y="1317"/>
      <point x="382" y="1333" type="qcurve" smooth="yes"/>
      <point x="384" y="1350"/>
      <point x="392" y="1369" type="qcurve" smooth="yes"/>
      <point x="407" y="1404"/>
      <point x="435" y="1422" type="qcurve" smooth="yes"/>
      <point x="453" y="1434"/>
      <point x="470" y="1434" type="qcurve" smooth="yes"/>
      <point x="479" y="1434"/>
      <point x="488" y="1431" type="qcurve" smooth="yes"/>
      <point x="507" y="1425"/>
      <point x="554" y="1369" type="qcurve" smooth="yes"/>
      <point x="595" y="1320"/>
    </contour>
  </outline>
</glyph>
<glyph name="plus" format="1">
  <advance width="1014"/>
  <unicode hex="002B"/>
  <outline>
    <contour>
      <point x="516" y="647" type="line"/>
      <point x="166" y="647" type="line"/>
      <point x="184" y="787" type="line"/>
      <point x="534" y="787" type="line"/>
      <point x="579" y="1156" type="line"/>
      <point x="580" y="1157" type="line"/>
      <point x="719" y="1157" type="line"/>
      <point x="674" y="787" type="line"/>
      <point x="1023" y="787" type="line"/>
      <point x="1024" y="786" type="line"/>
      <point x="1006" y="647" type="line"/>
      <point x="656" y="647" type="line"/>
      <point x="611" y="277" type="line"/>
      <point x="471" y="277" type="line"/>
    </contour>
  </outline>
</glyph>
<glyph name="comma" format="1">
  <advance width="444"/>
  <unicode hex="002C"/>
  <outline>
    <contour>
      <point x="163" y="-216" type="qcurve" smooth="yes"/>
      <point x="110" y="-216" type="line"/>
      <point x="190" y="-25" type="line"/>
      <point x="115" y="-12"/>
      <point x="115" y="78" type="qcurve"/>
      <point x="116" y="98" type="line"/>
      <point x="124" y="157"/>
      <point x="196" y="216"/>
      <point x="250" y="216" type="qcurve" smooth="yes"/>
      <point x="302" y="216"/>
      <point x="332" y="187" type="qcurve" smooth="yes"/>
      <point x="357" y="162"/>
      <point x="357" y="117" type="qcurve" smooth="yes"/>
      <point x="357" y="84"/>
      <point x="346" y="56" type="qcurve"/>
      <point x="326" y="-7"/>
      <point x="241" y="-146"/>
      <point x="200" y="-204" type="qcurve"/>
      <point x="195" y="-214"/>
      <point x="175" y="-216"/>
    </contour>
  </outline>
</glyph>
<glyph name="hyphen" format="1">
  <advance width="670"/>
  <unicode hex="002D"/>
  <unicode hex="00AD"/>
  <outline>
    <contour>
      <point x="206" y="409" type="line" smooth="yes"/>
      <point x="166" y="409"/>
      <point x="170" y="437" type="qcurve" smooth="yes"/>
      <point x="180" y="520" type="line" smooth="yes"/>
      <point x="183" y="549"/>
      <point x="224" y="549" type="qcurve" smooth="yes"/>
      <point x="580" y="549" type="line" smooth="yes"/>
      <point x="621" y="549"/>
      <point x="618" y="520" type="qcurve" smooth="yes"/>
      <point x="608" y="437" type="line" smooth="yes"/>
      <point x="604" y="409"/>
      <point x="564" y="409" type="qcurve" smooth="yes"/>
    </contour>
  </outline>
</glyph>
<glyph name="period" format="1">
  <advance width="339"/>
  <unicode hex="002E"/>
  <outline>
    <contour>
      <point x="161" y="-20" type="qcurve" smooth="yes"/>
      <point x="107" y="-20"/>
      <point x="79" y="11" type="qcurve" smooth="yes"/>
      <point x="56" y="36"/>
      <point x="56" y="82" type="qcurve"/>
      <point x="57" y="106" type="line"/>
      <point x="65" y="166"/>
      <point x="137" y="225"/>
      <point x="191" y="225" type="qcurve" smooth="yes"/>
      <point x="243" y="225"/>
      <point x="273" y="195" type="qcurve" smooth="yes"/>
      <point x="298" y="171"/>
      <point x="298" y="125" type="qcurve"/>
      <point x="297" y="106" type="line"/>
      <point x="288" y="42"/>
      <point x="213" y="-20"/>
    </contour>
  </outline>
</glyph>
<glyph name="slash" format="1">
  <advance width="684"/>
  <unicode hex="002F"/>
  <outline>
    <contour>
      <point x="117" y="-50" type="line"/>
      <point x="-33" y="-50" type="line"/>
      <point x="690" y="1434" type="line"/>
      <point x="840" y="1434" type="line"/>
    </contour>
  </outline>
</glyph>
<glyph name="zero" format="1">
  <advance width="1307"/>
  <unicode hex="0030"/>
  <outline>
    <contour>
      <point x="665" y="118" type="qcurve" smooth="yes"/>
      <point x="784" y="118"/>
      <point x="939" y="266"/>
      <point x="1030" y="540"/>
      <point x="1053" y="732" type="qcurve" smooth="yes"/>
      <point x="1068" y="853"/>
      <point x="1068" y="950" type="qcurve" smooth="yes"/>
      <point x="1068" y="1011"/>
      <point x="1046" y="1198"/>
      <point x="925" y="1339"/>
      <point x="815" y="1339" type="qcurve" smooth="yes"/>
      <point x="486" y="1339"/>
      <point x="414" y="732" type="qcurve"/>
      <point x="399" y="613"/>
      <point x="399" y="516" type="qcurve" smooth="yes"/>
      <point x="399" y="453"/>
      <point x="420" y="263"/>
      <point x="546" y="118"/>
    </contour>
    <contour>
      <point x="649" y="-20" type="qcurve" smooth="yes"/>
      <point x="373" y="-20"/>
      <point x="267" y="163" type="qcurve" smooth="yes"/>
      <point x="194" y="288"/>
      <point x="194" y="509" type="qcurve" smooth="yes"/>
      <point x="194" y="610"/>
      <point x="209" y="732" type="qcurve" smooth="yes"/>
      <point x="255" y="1114"/>
      <point x="557" y="1478"/>
      <point x="832" y="1478" type="qcurve" smooth="yes"/>
      <point x="1107" y="1478"/>
      <point x="1207" y="1296" type="qcurve" smooth="yes"/>
      <point x="1275" y="1173"/>
      <point x="1275" y="959" type="qcurve" smooth="yes"/>
      <point x="1275" y="856"/>
      <point x="1259" y="732" type="qcurve"/>
      <point x="1213" y="345"/>
      <point x="923" y="-20"/>
    </contour>
  </outline>
</glyph>
<glyph name="one" format="1">
  <advance width="642"/>
  <unicode hex="0031"/>
  <outline>
    <contour>
      <point x="565" y="-17" type="line"/>
      <point x="439" y="-7"/>
      <point x="330" y="-6" type="qcurve"/>
      <point x="207" y="-7"/>
      <point x="82" y="-17" type="qcurve"/>
      <point x="106" y="95" type="line" smooth="yes"/>
      <point x="108" y="107"/>
      <point x="121" y="108" type="qcurve" smooth="yes"/>
      <point x="238" y="121" type="line" smooth="yes"/>
      <point x="252" y="122"/>
      <point x="253" y="136" type="qcurve"/>
      <point x="383" y="1199" type="line"/>
      <point x="207" y="1199" type="line"/>
      <point x="230" y="1303" type="line" smooth="yes"/>
      <point x="233" y="1318"/>
      <point x="250" y="1319" type="qcurve"/>
      <point x="367" y="1336" type="line" smooth="yes"/>
      <point x="376" y="1337"/>
      <point x="385" y="1346"/>
      <point x="387" y="1356" type="qcurve"/>
      <point x="414" y="1449" type="line"/>
      <point x="598" y="1449" type="line"/>
      <point x="435" y="123" type="line"/>
      <point x="440" y="121"/>
      <point x="556" y="108" type="qcurve" smooth="yes"/>
      <point x="568" y="107"/>
      <point x="568" y="97" type="qcurve"/>
    </contour>
  </outline>
</glyph>
<glyph name="two" format="1">
  <advance width="1058"/>
  <unicode hex="0032"/>
  <outline>
    <contour>
      <point x="967" y="0" type="line"/>
      <point x="19" y="0" type="line"/>
      <point x="50" y="168" type="line"/>
      <point x="331" y="398"/>
      <point x="571" y="649" type="qcurve" smooth="yes"/>
      <point x="691" y="774"/>
      <point x="852" y="1014"/>
      <point x="867" y="1122" type="qcurve"/>
      <point x="868" y="1147" type="line"/>
      <point x="868" y="1224"/>
      <point x="754" y="1338"/>
      <point x="643" y="1338" type="qcurve" smooth="yes"/>
      <point x="562" y="1338"/>
      <point x="432" y="1274"/>
      <point x="351" y="1171"/>
      <point x="342" y="1108" type="qcurve"/>
      <point x="341" y="1096"/>
      <point x="325" y="1095" type="qcurve"/>
      <point x="219" y="1083" type="line"/>
      <point x="260" y="1332" type="line"/>
      <point x="289" y="1359"/>
      <point x="400" y="1427"/>
      <point x="554" y="1478"/>
      <point x="649" y="1478" type="qcurve" smooth="yes"/>
      <point x="785" y="1478"/>
      <point x="986" y="1403"/>
      <point x="1035" y="1323" type="qcurve" smooth="yes"/>
      <point x="1073" y="1261"/>
      <point x="1073" y="1170" type="qcurve" smooth="yes"/>
      <point x="1073" y="1144"/>
      <point x="1070" y="1116" type="qcurve"/>
      <point x="1056" y="1012"/>
      <point x="956" y="843"/>
      <point x="876" y="749" type="qcurve" smooth="yes"/>
      <point x="764" y="616"/>
      <point x="519" y="379"/>
      <point x="389" y="261" type="qcurve" smooth="yes"/>
      <point x="283" y="165" type="line"/>
      <point x="280" y="142" type="line"/>
      <point x="761" y="155" type="line"/>
      <point x="772" y="158"/>
      <point x="782" y="165"/>
      <point x="785" y="173" type="qcurve" smooth="yes"/>
      <point x="883" y="398" type="line"/>
      <point x="887" y="413"/>
      <point x="904" y="415" type="qcurve" smooth="yes"/>
      <point x="1020" y="428" type="line"/>
    </contour>
  </outline>
</glyph>
<glyph name="three" format="1">
  <advance width="1066"/>
  <unicode hex="0033"/>
  <outline>
    <contour>
      <point x="474" y="-20" type="qcurve" smooth="yes"/>
      <point x="399" y="-20"/>
      <point x="283" y="4"/>
      <point x="191" y="38"/>
      <point x="118" y="71"/>
      <point x="87" y="81" type="qcurve"/>
      <point x="92" y="115"/>
      <point x="118" y="330"/>
      <point x="131" y="437" type="qcurve"/>
      <point x="256" y="424" type="line"/>
      <point x="272" y="423"/>
      <point x="272" y="411" type="qcurve" smooth="yes"/>
      <point x="272" y="409" type="line"/>
      <point x="263" y="364"/>
      <point x="263" y="305" type="qcurve" smooth="yes"/>
      <point x="263" y="260"/>
      <point x="297" y="172"/>
      <point x="396" y="112"/>
      <point x="493" y="112" type="qcurve" smooth="yes"/>
      <point x="583" y="112"/>
      <point x="733" y="199"/>
      <point x="781" y="270" type="qcurve" smooth="yes"/>
      <point x="842" y="361"/>
      <point x="842" y="472" type="qcurve" smooth="yes"/>
      <point x="842" y="547"/>
      <point x="772" y="653"/>
      <point x="645" y="703"/>
      <point x="583" y="707" type="qcurve" smooth="yes"/>
      <point x="548" y="709"/>
      <point x="522" y="709" type="qcurve" smooth="yes"/>
      <point x="503" y="709"/>
      <point x="488" y="708" type="qcurve"/>
      <point x="476" y="708" type="line"/>
      <point x="498" y="881" type="line"/>
      <point x="529" y="880" type="line"/>
      <point x="567" y="880"/>
      <point x="703" y="898"/>
      <point x="842" y="997"/>
      <point x="860" y="1113" type="qcurve"/>
      <point x="863" y="1138"/>
      <point x="863" y="1160" type="qcurve" smooth="yes"/>
      <point x="863" y="1221"/>
      <point x="810" y="1311"/>
      <point x="691" y="1349"/>
      <point x="618" y="1349" type="qcurve" smooth="yes"/>
      <point x="503" y="1349"/>
      <point x="429" y="1254" type="qcurve" smooth="yes"/>
      <point x="374" y="1183"/>
      <point x="354" y="1108" type="qcurve" smooth="yes"/>
      <point x="346" y="1080" type="line" smooth="yes"/>
      <point x="342" y="1067"/>
      <point x="327" y="1065" type="qcurve"/>
      <point x="217" y="1055" type="line"/>
      <point x="257" y="1381" type="line"/>
      <point x="289" y="1392"/>
      <point x="327" y="1408" type="qcurve" smooth="yes"/>
      <point x="383" y="1433"/>
      <point x="533" y="1479"/>
      <point x="635" y="1479" type="qcurve" smooth="yes"/>
      <point x="783" y="1479"/>
      <point x="883" y="1442" type="qcurve" smooth="yes"/>
      <point x="1061" y="1375"/>
      <point x="1061" y="1176" type="qcurve" smooth="yes"/>
      <point x="1061" y="1049"/>
      <point x="998" y="963" type="qcurve" smooth="yes"/>
      <point x="951" y="898"/>
      <point x="830" y="825"/>
      <point x="784" y="825" type="qcurve"/>
      <point x="782" y="803" type="line"/>
      <point x="848" y="803"/>
      <point x="975" y="703"/>
      <point x="1011" y="621" type="qcurve" smooth="yes"/>
      <point x="1039" y="557"/>
      <point x="1039" y="483" type="qcurve" smooth="yes"/>
      <point x="1039" y="462"/>
      <point x="1037" y="441" type="qcurve" smooth="yes"/>
      <point x="1013" y="240"/>
      <point x="889" y="120" type="qcurve" smooth="yes"/>
      <point x="745" y="-20"/>
    </contour>
  </outline>
</glyph>
<glyph name="four" format="1">
  <advance width="1108"/>
  <unicode hex="0034"/>
  <outline>
    <contour>
      <point x="958" y="-17" type="line"/>
      <point x="832" y="-7"/>
      <point x="722" y="-6" type="qcurve"/>
      <point x="613" y="-7"/>
      <point x="485" y="-17" type="qcurve"/>
      <point x="509" y="95" type="line" smooth="yes"/>
      <point x="511" y="107"/>
      <point x="524" y="108" type="qcurve" smooth="yes"/>
      <point x="641" y="121" type="line" smooth="yes"/>
      <point x="654" y="123"/>
      <point x="655" y="136" type="qcurve"/>
      <point x="687" y="390" type="line"/>
      <point x="67" y="390" type="line"/>
      <point x="80" y="499" type="line"/>
      <point x="802" y="1495" type="line"/>
      <point x="927" y="1413" type="line"/>
      <point x="298" y="534" type="line"/>
      <point x="704" y="534" type="line"/>
      <point x="759" y="981" type="line"/>
      <point x="933" y="981" type="line"/>
      <point x="878" y="534" type="line"/>
      <point x="1081" y="534" type="line"/>
      <point x="1063" y="390" type="line"/>
      <point x="861" y="390" type="line"/>
      <point x="828" y="123" type="line"/>
      <point x="835" y="121"/>
      <point x="949" y="108" type="qcurve" smooth="yes"/>
      <point x="961" y="107"/>
      <point x="961" y="95" type="qcurve"/>
    </contour>
  </outline>
</glyph>
<glyph name="five" format="1">
  <advance width="1055"/>
  <unicode hex="0035"/>
  <outline>
    <contour>
      <point x="459" y="-20" type="qcurve" smooth="yes"/>
      <point x="384" y="-20"/>
      <point x="268" y="4"/>
      <point x="176" y="37"/>
      <point x="101" y="71"/>
      <point x="69" y="82" type="qcurve"/>
      <point x="113" y="436" type="line"/>
      <point x="238" y="424" type="line" smooth="yes"/>
      <point x="252" y="423"/>
      <point x="252" y="411" type="qcurve"/>
      <point x="251" y="399" type="line" smooth="yes"/>
      <point x="244" y="348"/>
      <point x="244" y="301" type="qcurve" smooth="yes"/>
      <point x="244" y="254"/>
      <point x="283" y="168"/>
      <point x="382" y="112"/>
      <point x="478" y="112" type="qcurve" smooth="yes"/>
      <point x="790" y="112"/>
      <point x="833" y="471" type="qcurve" smooth="yes"/>
      <point x="836" y="499"/>
      <point x="836" y="525" type="qcurve" smooth="yes"/>
      <point x="836" y="600"/>
      <point x="774" y="726"/>
      <point x="632" y="796"/>
      <point x="542" y="796" type="qcurve" smooth="yes"/>
      <point x="417" y="796"/>
      <point x="313" y="757" type="qcurve"/>
      <point x="195" y="844" type="line"/>
      <point x="343" y="1449" type="line"/>
      <point x="1049" y="1449" type="line"/>
      <point x="1038" y="1099" type="line"/>
      <point x="907" y="1113" type="line" smooth="yes"/>
      <point x="890" y="1115"/>
      <point x="890" y="1130" type="qcurve"/>
      <point x="869" y="1284" type="line"/>
      <point x="868" y="1300"/>
      <point x="846" y="1300" type="qcurve"/>
      <point x="833" y="1301" type="line" smooth="yes"/>
      <point x="795" y="1305"/>
      <point x="746" y="1305" type="qcurve" smooth="yes"/>
      <point x="481" y="1305" type="line"/>
      <point x="389" y="925" type="line"/>
      <point x="403" y="927"/>
      <point x="422" y="931" type="qcurve" smooth="yes"/>
      <point x="486" y="947"/>
      <point x="556" y="947" type="qcurve" smooth="yes"/>
      <point x="815" y="947"/>
      <point x="937" y="820" type="qcurve" smooth="yes"/>
      <point x="1034" y="718"/>
      <point x="1034" y="536" type="qcurve" smooth="yes"/>
      <point x="1034" y="490"/>
      <point x="1028" y="440" type="qcurve" smooth="yes"/>
      <point x="1004" y="241"/>
      <point x="878" y="120" type="qcurve" smooth="yes"/>
      <point x="733" y="-20"/>
    </contour>
  </outline>
</glyph>
<glyph name="six" format="1">
  <advance width="1158"/>
  <unicode hex="0036"/>
  <outline>
    <contour>
      <point x="612" y="121" type="line" smooth="yes"/>
      <point x="748" y="121"/>
      <point x="834" y="215" type="qcurve" smooth="yes"/>
      <point x="956" y="350"/>
      <point x="956" y="573" type="qcurve" smooth="yes"/>
      <point x="956" y="578"/>
      <point x="955" y="652"/>
      <point x="910" y="765"/>
      <point x="811" y="834"/>
      <point x="727" y="834" type="qcurve" smooth="yes"/>
      <point x="651" y="834"/>
      <point x="504" y="778"/>
      <point x="397" y="661"/>
      <point x="379" y="570" type="qcurve"/>
      <point x="368" y="503"/>
      <point x="368" y="444" type="qcurve" smooth="yes"/>
      <point x="368" y="334"/>
      <point x="470" y="132"/>
      <point x="601" y="121" type="qcurve"/>
    </contour>
    <contour>
      <point x="603" y="-19" type="qcurve"/>
      <point x="559" y="-18" type="line"/>
      <point x="274" y="8"/>
      <point x="207" y="286" type="qcurve" smooth="yes"/>
      <point x="181" y="391"/>
      <point x="181" y="507" type="qcurve" smooth="yes"/>
      <point x="181" y="526"/>
      <point x="188" y="683"/>
      <point x="211" y="806" type="qcurve"/>
      <point x="265" y="1106"/>
      <point x="401" y="1278" type="qcurve" smooth="yes"/>
      <point x="565" y="1485"/>
      <point x="860" y="1485" type="qcurve" smooth="yes"/>
      <point x="928" y="1485"/>
      <point x="1049" y="1446"/>
      <point x="1137" y="1389"/>
      <point x="1159" y="1359" type="qcurve"/>
      <point x="1138" y="1099" type="line"/>
      <point x="1022" y="1118" type="line" smooth="yes"/>
      <point x="1014" y="1119"/>
      <point x="1009" y="1126"/>
      <point x="1009" y="1133" type="qcurve" smooth="yes"/>
      <point x="1009" y="1155" type="line" smooth="yes"/>
      <point x="1009" y="1177"/>
      <point x="1002" y="1210" type="qcurve" smooth="yes"/>
      <point x="985" y="1292"/>
      <point x="920" y="1335" type="qcurve" smooth="yes"/>
      <point x="877" y="1363"/>
      <point x="811" y="1363" type="qcurve" smooth="yes"/>
      <point x="700" y="1363"/>
      <point x="503" y="1143"/>
      <point x="445" y="945" type="qcurve" smooth="yes"/>
      <point x="430" y="892"/>
      <point x="418" y="820" type="qcurve"/>
      <point x="430" y="820" type="line"/>
      <point x="475" y="886"/>
      <point x="656" y="973"/>
      <point x="755" y="973" type="qcurve" smooth="yes"/>
      <point x="1062" y="973"/>
      <point x="1125" y="739" type="qcurve" smooth="yes"/>
      <point x="1143" y="671"/>
      <point x="1143" y="588" type="qcurve" smooth="yes"/>
      <point x="1143" y="535"/>
      <point x="1136" y="476" type="qcurve"/>
      <point x="1105" y="244"/>
      <point x="953" y="106" type="qcurve" smooth="yes"/>
      <point x="814" y="-19"/>
    </contour>
  </outline>
</glyph>
<glyph name="seven" format="1">
  <advance width="1007"/>
  <unicode hex="0037"/>
  <outline>
    <contour>
      <point x="441" y="0" type="qcurve"/>
      <point x="226" y="0" type="line"/>
      <point x="249" y="174"/>
      <point x="382" y="487"/>
      <point x="568" y="781"/>
      <point x="671" y="925" type="qcurve" smooth="yes"/>
      <point x="798" y="1103"/>
      <point x="911" y="1290" type="qcurve"/>
      <point x="912" y="1304" type="line"/>
      <point x="604" y="1304" type="line" smooth="yes"/>
      <point x="547" y="1304"/>
      <point x="497" y="1300" type="qcurve"/>
      <point x="472" y="1299"/>
      <point x="429" y="1297"/>
      <point x="424" y="1281" type="qcurve"/>
      <point x="355" y="1117" type="line" smooth="yes"/>
      <point x="349" y="1102"/>
      <point x="332" y="1100" type="qcurve" smooth="yes"/>
      <point x="213" y="1088" type="line"/>
      <point x="224" y="1180"/>
      <point x="248" y="1364"/>
      <point x="259" y="1455" type="qcurve"/>
      <point x="1145" y="1455" type="line"/>
      <point x="1129" y="1329" type="line"/>
      <point x="1035" y="1176"/>
      <point x="934" y="1022" type="qcurve" smooth="yes"/>
      <point x="819" y="848"/>
      <point x="610" y="503"/>
      <point x="463" y="164"/>
    </contour>
  </outline>
</glyph>
<glyph name="eight" format="1">
  <advance width="1170"/>
  <unicode hex="0038"/>
  <outline>
    <contour>
      <point x="594" y="114" type="qcurve" smooth="yes"/>
      <point x="726" y="114"/>
      <point x="915" y="250"/>
      <point x="925" y="384" type="qcurve"/>
      <point x="925" y="392" type="line" smooth="yes"/>
      <point x="925" y="469"/>
      <point x="849" y="572"/>
      <point x="724" y="643"/>
      <point x="657" y="672" type="qcurve" smooth="yes"/>
      <point x="615" y="691" type="line"/>
      <point x="480" y="632"/>
      <point x="322" y="487"/>
      <point x="308" y="364" type="qcurve" smooth="yes"/>
      <point x="306" y="346"/>
      <point x="306" y="329" type="qcurve" smooth="yes"/>
      <point x="306" y="266"/>
      <point x="373" y="166"/>
      <point x="512" y="114"/>
    </contour>
    <contour>
      <point x="578" y="-20" type="qcurve" smooth="yes"/>
      <point x="457" y="-20"/>
      <point x="236" y="59"/>
      <point x="173" y="141" type="qcurve" smooth="yes"/>
      <point x="122" y="209"/>
      <point x="122" y="307" type="qcurve" smooth="yes"/>
      <point x="122" y="329"/>
      <point x="125" y="353" type="qcurve"/>
      <point x="165" y="614"/>
      <point x="469" y="767" type="qcurve"/>
      <point x="377" y="821"/>
      <point x="318" y="908" type="qcurve" smooth="yes"/>
      <point x="265" y="988"/>
      <point x="265" y="1116" type="qcurve" smooth="yes"/>
      <point x="265" y="1139"/>
      <point x="266" y="1142" type="qcurve" smooth="yes"/>
      <point x="293" y="1305"/>
      <point x="559" y="1489"/>
      <point x="722" y="1489" type="qcurve" smooth="yes"/>
      <point x="841" y="1489"/>
      <point x="1038" y="1418"/>
      <point x="1092" y="1343" type="qcurve" smooth="yes"/>
      <point x="1136" y="1281"/>
      <point x="1136" y="1190" type="qcurve" smooth="yes"/>
      <point x="1136" y="1072"/>
      <point x="1052" y="964" type="qcurve"/>
      <point x="976" y="872"/>
      <point x="863" y="810" type="qcurve"/>
      <point x="987" y="743"/>
      <point x="1059" y="639" type="qcurve" smooth="yes"/>
      <point x="1117" y="553"/>
      <point x="1117" y="441" type="qcurve" smooth="yes"/>
      <point x="1117" y="416"/>
      <point x="1114" y="389" type="qcurve"/>
      <point x="1096" y="258"/>
      <point x="941" y="76"/>
      <point x="708" y="-20"/>
    </contour>
    <contour>
      <point x="714" y="883" type="qcurve"/>
      <point x="804" y="924"/>
      <point x="870" y="983" type="qcurve" smooth="yes"/>
      <point x="958" y="1061"/>
      <point x="958" y="1180" type="qcurve" smooth="yes"/>
      <point x="958" y="1360"/>
      <point x="706" y="1360" type="qcurve" smooth="yes"/>
      <point x="622" y="1360"/>
      <point x="473" y="1259"/>
      <point x="457" y="1174" type="qcurve"/>
      <point x="456" y="1154" type="line"/>
      <point x="456" y="1101"/>
      <point x="526" y="999"/>
      <point x="650" y="912"/>
    </contour>
  </outline>
</glyph>
<glyph name="nine" format="1">
  <advance width="1088"/>
  <unicode hex="0039"/>
  <outline>
    <contour>
      <point x="542" y="593" type="line" smooth="yes"/>
      <point x="673" y="593"/>
      <point x="869" y="781"/>
      <point x="891" y="921" type="qcurve"/>
      <point x="899" y="983"/>
      <point x="899" y="1031" type="qcurve" smooth="yes"/>
      <point x="899" y="1157"/>
      <point x="790" y="1355"/>
      <point x="661" y="1359" type="qcurve"/>
      <point x="528" y="1359"/>
      <point x="429" y="1231" type="qcurve" smooth="yes"/>
      <point x="385" y="1174"/>
      <point x="358" y="1106" type="qcurve" smooth="yes"/>
      <point x="317" y="1003"/>
      <point x="317" y="896" type="qcurve" smooth="yes"/>
      <point x="317" y="842"/>
      <point x="346" y="707"/>
      <point x="448" y="597"/>
      <point x="537" y="593" type="qcurve"/>
    </contour>
    <contour>
      <point x="434" y="-20" type="qcurve" smooth="yes"/>
      <point x="332" y="-20"/>
      <point x="127" y="58"/>
      <point x="90" y="102" type="qcurve"/>
      <point x="120" y="352" type="line"/>
      <point x="217" y="338" type="line" smooth="yes"/>
      <point x="224" y="337"/>
      <point x="229" y="331"/>
      <point x="230" y="325" type="qcurve" smooth="yes"/>
      <point x="233" y="305" type="line" smooth="yes"/>
      <point x="236" y="284"/>
      <point x="248" y="254" type="qcurve" smooth="yes"/>
      <point x="276" y="178"/>
      <point x="346" y="141" type="qcurve" smooth="yes"/>
      <point x="389" y="118"/>
      <point x="454" y="118" type="qcurve" smooth="yes"/>
      <point x="559" y="118"/>
      <point x="635" y="172" type="qcurve" smooth="yes"/>
      <point x="780" y="274"/>
      <point x="840" y="536" type="qcurve" smooth="yes"/>
      <point x="844" y="552"/>
      <point x="847" y="570" type="qcurve" smooth="yes"/>
      <point x="854" y="606"/>
      <point x="871" y="665" type="qcurve"/>
      <point x="860" y="675" type="line"/>
      <point x="834" y="618"/>
      <point x="729" y="508"/>
      <point x="585" y="434"/>
      <point x="500" y="434" type="qcurve" smooth="yes"/>
      <point x="383" y="434"/>
      <point x="224" y="522"/>
      <point x="179" y="597" type="qcurve" smooth="yes"/>
      <point x="112" y="708"/>
      <point x="112" y="871" type="qcurve" smooth="yes"/>
      <point x="112" y="916"/>
      <point x="118" y="964" type="qcurve" smooth="yes"/>
      <point x="137" y="1117"/>
      <point x="278" y="1353"/>
      <point x="513" y="1489"/>
      <point x="673" y="1489" type="qcurve" smooth="yes"/>
      <point x="918" y="1489"/>
      <point x="1025" y="1320" type="qcurve" smooth="yes"/>
      <point x="1104" y="1197"/>
      <point x="1104" y="992" type="qcurve" smooth="yes"/>
      <point x="1104" y="853"/>
      <point x="1063" y="619" type="qcurve" smooth="yes"/>
      <point x="996" y="245"/>
      <point x="804" y="90" type="qcurve" smooth="yes"/>
      <point x="667" y="-20"/>
    </contour>
  </outline>
</glyph>
<glyph name="colon" format="1">
  <advance width="557"/>
  <unicode hex="003A"/>
  <outline>
    <contour>
      <point x="336" y="673" type="qcurve" smooth="yes"/>
      <point x="285" y="673"/>
      <point x="258" y="703" type="qcurve" smooth="yes"/>
      <point x="236" y="727"/>
      <point x="236" y="772" type="qcurve"/>
      <point x="237" y="793" type="line"/>
      <point x="245" y="850"/>
      <point x="313" y="905"/>
      <point x="364" y="905" type="qcurve" smooth="yes"/>
      <point x="414" y="905"/>
      <point x="443" y="877" type="qcurve" smooth="yes"/>
      <point x="466" y="855"/>
      <point x="466" y="812" type="qcurve"/>
      <point x="465" y="793" type="line"/>
      <point x="457" y="732"/>
      <point x="386" y="673"/>
    </contour>
    <contour>
      <point x="251" y="-20" type="qcurve" smooth="yes"/>
      <point x="200" y="-20"/>
      <point x="173" y="10" type="qcurve" smooth="yes"/>
      <point x="151" y="34"/>
      <point x="151" y="79" type="qcurve"/>
      <point x="152" y="100" type="line"/>
      <point x="160" y="157"/>
      <point x="228" y="213"/>
      <point x="279" y="213" type="qcurve" smooth="yes"/>
      <point x="329" y="213"/>
      <point x="358" y="185" type="qcurve" smooth="yes"/>
      <point x="381" y="162"/>
      <point x="381" y="119" type="qcurve"/>
      <point x="380" y="100" type="line"/>
      <point x="372" y="39"/>
      <point x="301" y="-20"/>
    </contour>
  </outline>
</glyph>
<glyph name="semicolon" format="1">
  <advance width="557"/>
  <unicode hex="003B"/>
  <outline>
    <contour>
      <point x="336" y="673" type="qcurve" smooth="yes"/>
      <point x="285" y="673"/>
      <point x="258" y="703" type="qcurve" smooth="yes"/>
      <point x="236" y="727"/>
      <point x="236" y="772" type="qcurve"/>
      <point x="237" y="793" type="line"/>
      <point x="245" y="850"/>
      <point x="313" y="905"/>
      <point x="364" y="905" type="qcurve" smooth="yes"/>
      <point x="414" y="905"/>
      <point x="443" y="877" type="qcurve" smooth="yes"/>
      <point x="466" y="855"/>
      <point x="466" y="812" type="qcurve"/>
      <point x="465" y="793" type="line"/>
      <point x="457" y="732"/>
      <point x="386" y="673"/>
    </contour>
    <contour>
      <point x="193" y="-216" type="qcurve" smooth="yes"/>
      <point x="140" y="-216" type="line"/>
      <point x="220" y="-25" type="line"/>
      <point x="145" y="-12"/>
      <point x="145" y="78" type="qcurve"/>
      <point x="146" y="98" type="line"/>
      <point x="154" y="157"/>
      <point x="226" y="216"/>
      <point x="280" y="216" type="qcurve" smooth="yes"/>
      <point x="332" y="216"/>
      <point x="362" y="187" type="qcurve" smooth="yes"/>
      <point x="387" y="162"/>
      <point x="387" y="117" type="qcurve" smooth="yes"/>
      <point x="387" y="84"/>
      <point x="376" y="56" type="qcurve"/>
      <point x="356" y="-7"/>
      <point x="271" y="-146"/>
      <point x="230" y="-204" type="qcurve"/>
      <point x="225" y="-214"/>
      <point x="205" y="-216"/>
    </contour>
  </outline>
</glyph>
<glyph name="less" format="1">
  <advance width="1014"/>
  <unicode hex="003C"/>
  <outline>
    <contour>
      <point x="1059" y="1074" type="line"/>
      <point x="390" y="715" type="line"/>
      <point x="971" y="360" type="line"/>
      <point x="951" y="193" type="line"/>
      <point x="170" y="674" type="line"/>
      <point x="180" y="757" type="line"/>
      <point x="1079" y="1241" type="line"/>
    </contour>
  </outline>
</glyph>
<glyph name="equal" format="1">
  <advance width="1014"/>
  <unicode hex="003D"/>
  <outline>
    <contour>
      <point x="164" y="631" type="line"/>
      <point x="1004" y="631" type="line"/>
      <point x="987" y="491" type="line"/>
      <point x="147" y="491" type="line"/>
    </contour>
    <contour>
      <point x="203" y="943" type="line"/>
      <point x="1043" y="943" type="line"/>
      <point x="1026" y="803" type="line"/>
      <point x="186" y="803" type="line"/>
    </contour>
  </outline>
</glyph>
<glyph name="greater" format="1">
  <advance width="1014"/>
  <unicode hex="003E"/>
  <outline>
    <contour>
      <point x="239" y="1241" type="line"/>
      <point x="1020" y="757" type="line"/>
      <point x="1010" y="674" type="line"/>
      <point x="111" y="193" type="line"/>
      <point x="131" y="360" type="line"/>
      <point x="800" y="715" type="line"/>
      <point x="219" y="1074" type="line"/>
    </contour>
  </outline>
</glyph>
<glyph name="question" format="1">
  <advance width="768"/>
  <unicode hex="003F"/>
  <outline>
    <contour>
      <point x="399" y="-138" type="qcurve" smooth="yes"/>
      <point x="289" y="-138"/>
      <point x="289" y="-29" type="qcurve" smooth="yes"/>
      <point x="289" y="-14"/>
      <point x="291" y="4" type="qcurve" smooth="yes"/>
      <point x="307" y="136"/>
      <point x="433" y="136" type="qcurve" smooth="yes"/>
      <point x="544" y="136"/>
      <point x="544" y="35" type="qcurve" smooth="yes"/>
      <point x="544" y="20"/>
      <point x="542" y="4" type="qcurve" smooth="yes"/>
      <point x="526" y="-138"/>
    </contour>
    <contour>
      <point x="546" y="365" type="qcurve"/>
      <point x="377" y="365" type="line"/>
      <point x="399" y="473"/>
      <point x="415" y="601" type="qcurve" smooth="yes"/>
      <point x="432" y="738" type="line"/>
      <point x="468" y="732"/>
      <point x="503" y="732" type="qcurve" smooth="yes"/>
      <point x="603" y="732"/>
      <point x="745" y="825"/>
      <point x="786" y="900" type="qcurve" smooth="yes"/>
      <point x="842" y="1002"/>
      <point x="842" y="1127" type="qcurve" smooth="yes"/>
      <point x="842" y="1156"/>
      <point x="832" y="1246"/>
      <point x="779" y="1346"/>
      <point x="680" y="1406"/>
      <point x="603" y="1406" type="qcurve"/>
      <point x="484" y="1404"/>
      <point x="419" y="1339" type="qcurve" smooth="yes"/>
      <point x="370" y="1290"/>
      <point x="353" y="1235" type="qcurve" smooth="yes"/>
      <point x="347" y="1215" type="line"/>
      <point x="342" y="1203"/>
      <point x="329" y="1202" type="qcurve" smooth="yes"/>
      <point x="215" y="1188" type="line"/>
      <point x="251" y="1430" type="line"/>
      <point x="300" y="1473"/>
      <point x="495" y="1533"/>
      <point x="613" y="1535" type="qcurve"/>
      <point x="842" y="1535"/>
      <point x="950" y="1418" type="qcurve" smooth="yes"/>
      <point x="1039" y="1323"/>
      <point x="1039" y="1163" type="qcurve" smooth="yes"/>
      <point x="1039" y="1126"/>
      <point x="1034" y="1086" type="qcurve" smooth="yes"/>
      <point x="1007" y="882"/>
      <point x="772" y="624"/>
      <point x="561" y="598" type="qcurve"/>
      <point x="548" y="471"/>
    </contour>
  </outline>
</glyph>
<glyph name="at" format="1">
  <advance width="2019"/>
  <unicode hex="0040"/>
  <outline>
    <contour>
      <point x="1048" y="622" type="qcurve"/>
      <point x="964" y="612"/>
      <point x="811" y="472"/>
      <point x="795" y="343" type="qcurve" smooth="yes"/>
      <point x="782" y="236"/>
      <point x="889" y="62"/>
      <point x="1008" y="62" type="qcurve"/>
      <point x="1105" y="67"/>
      <point x="1154" y="229" type="qcurve"/>
      <point x="1213" y="705" type="line"/>
      <point x="1151" y="642"/>
    </contour>
    <contour>
      <point x="1364" y="29" type="qcurve"/>
      <point x="1301" y="30"/>
      <point x="1230" y="64"/>
      <point x="1210" y="101" type="qcurve"/>
      <point x="1177" y="64"/>
      <point x="1064" y="9"/>
      <point x="984" y="9" type="qcurve" smooth="yes"/>
      <point x="840" y="9"/>
      <point x="640" y="210"/>
      <point x="656" y="343" type="qcurve"/>
      <point x="668" y="430"/>
      <point x="791" y="589"/>
      <point x="961" y="660"/>
      <point x="1056" y="674" type="qcurve"/>
      <point x="1125" y="690"/>
      <point x="1217" y="743"/>
      <point x="1223" y="791" type="qcurve"/>
      <point x="1230" y="860"/>
      <point x="1165" y="972"/>
      <point x="1075" y="972" type="qcurve" smooth="yes"/>
      <point x="1003" y="972"/>
      <point x="890" y="854"/>
      <point x="881" y="788" type="qcurve"/>
      <point x="836" y="788" type="line"/>
      <point x="855" y="947" type="line" smooth="yes"/>
      <point x="858" y="967"/>
      <point x="932" y="987" type="qcurve" smooth="yes"/>
      <point x="1008" y="1007"/>
      <point x="1113" y="1007" type="qcurve"/>
      <point x="1221" y="1005"/>
      <point x="1375" y="880"/>
      <point x="1363" y="785" type="qcurve" smooth="yes"/>
      <point x="1291" y="196" type="line" smooth="yes"/>
      <point x="1277" y="79"/>
      <point x="1371" y="79" type="qcurve"/>
      <point x="1560" y="114"/>
      <point x="1762" y="427"/>
      <point x="1790" y="653" type="qcurve"/>
      <point x="1811" y="988"/>
      <point x="1624" y="1193" type="qcurve" smooth="yes"/>
      <point x="1451" y="1381"/>
      <point x="1168" y="1381" type="qcurve" smooth="yes"/>
      <point x="963" y="1381"/>
      <point x="554" y="1106"/>
      <point x="445" y="888" type="qcurve" smooth="yes"/>
      <point x="356" y="710"/>
      <point x="334" y="527" type="qcurve" smooth="yes"/>
      <point x="295" y="214"/>
      <point x="506" y="-183"/>
      <point x="834" y="-367"/>
      <point x="977" y="-367" type="qcurve" smooth="yes"/>
      <point x="1251" y="-367"/>
      <point x="1577" y="-159" type="qcurve"/>
      <point x="1568" y="-234" type="line"/>
      <point x="1283" y="-418"/>
      <point x="975" y="-418" type="qcurve" smooth="yes"/>
      <point x="735" y="-418"/>
      <point x="323" y="-173"/>
      <point x="133" y="266"/>
      <point x="162" y="508" type="qcurve" smooth="yes"/>
      <point x="192" y="750"/>
      <point x="495" y="1195"/>
      <point x="967" y="1434"/>
      <point x="1202" y="1434" type="qcurve" smooth="yes"/>
      <point x="1564" y="1434"/>
      <point x="2002" y="974"/>
      <point x="1960" y="638" type="qcurve" smooth="yes"/>
      <point x="1927" y="368"/>
      <point x="1730" y="199" type="qcurve" smooth="yes"/>
      <point x="1535" y="31"/>
    </contour>
  </outline>
</glyph>
<glyph name="A" format="1">
  <advance width="1400"/>
  <unicode hex="0041"/>
  <outline>
    <contour>
      <point x="1378" y="-17" type="line"/>
      <point x="1238" y="-6"/>
      <point x="1110" y="-6" type="qcurve" smooth="yes"/>
      <point x="983" y="-6"/>
      <point x="840" y="-17" type="qcurve"/>
      <point x="866" y="104" type="line"/>
      <point x="868" y="117"/>
      <point x="882" y="118" type="qcurve" smooth="yes"/>
      <point x="1008" y="132" type="line"/>
      <point x="1022" y="135"/>
      <point x="1024" y="148" type="qcurve"/>
      <point x="1024" y="154"/>
      <point x="960" y="428" type="qcurve"/>
      <point x="459" y="428" type="line"/>
      <point x="329" y="146" type="line"/>
      <point x="329" y="135"/>
      <point x="340" y="132" type="qcurve"/>
      <point x="463" y="118" type="line" smooth="yes"/>
      <point x="476" y="117"/>
      <point x="476" y="104" type="qcurve"/>
      <point x="473" y="-17" type="line"/>
      <point x="465" y="-17"/>
      <point x="458" y="-16" type="qcurve" smooth="yes"/>
      <point x="340" y="-8"/>
      <point x="231" y="-6" type="qcurve"/>
      <point x="121" y="-8"/>
      <point x="-1" y="-16" type="qcurve"/>
      <point x="-6" y="-17"/>
      <point x="-12" y="-17" type="qcurve"/>
      <point x="14" y="104" type="line"/>
      <point x="16" y="117"/>
      <point x="30" y="118" type="qcurve" smooth="yes"/>
      <point x="154" y="132" type="line" smooth="yes"/>
      <point x="162" y="133"/>
      <point x="170" y="140"/>
      <point x="327" y="455" type="qcurve"/>
      <point x="687" y="1240"/>
      <point x="707" y="1288" type="qcurve" smooth="yes"/>
      <point x="709" y="1292"/>
      <point x="709" y="1297" type="qcurve" smooth="yes"/>
      <point x="709" y="1306"/>
      <point x="698" y="1308" type="qcurve"/>
      <point x="570" y="1324" type="line"/>
      <point x="557" y="1325"/>
      <point x="557" y="1337" type="qcurve"/>
      <point x="559" y="1449" type="line"/>
      <point x="912" y="1449" type="line"/>
      <point x="1232" y="148" type="line" smooth="yes"/>
      <point x="1236" y="134"/>
      <point x="1248" y="132" type="qcurve" smooth="yes"/>
      <point x="1368" y="118" type="line"/>
      <point x="1382" y="117"/>
      <point x="1382" y="106" type="qcurve"/>
    </contour>
    <contour>
      <point x="930" y="556" type="line"/>
      <point x="790" y="1152" type="line"/>
      <point x="517" y="556" type="line"/>
    </contour>
  </outline>
</glyph>
<glyph name="B" format="1">
  <advance width="1285"/>
  <unicode hex="0042"/>
  <outline>
    <contour>
      <point x="42" y="-17" type="qcurve"/>
      <point x="69" y="105" type="line" smooth="yes"/>
      <point x="71" y="117"/>
      <point x="84" y="118" type="qcurve" smooth="yes"/>
      <point x="211" y="133" type="line" smooth="yes"/>
      <point x="220" y="134"/>
      <point x="226" y="141"/>
      <point x="227" y="149" type="qcurve" smooth="yes"/>
      <point x="368" y="1293" type="line"/>
      <point x="368" y="1303"/>
      <point x="355" y="1304" type="qcurve"/>
      <point x="232" y="1323" type="line"/>
      <point x="220" y="1324"/>
      <point x="220" y="1337" type="qcurve"/>
      <point x="222" y="1449" type="line"/>
      <point x="822" y="1449" type="line" smooth="yes"/>
      <point x="961" y="1449"/>
      <point x="1052" y="1413" type="qcurve" smooth="yes"/>
      <point x="1210" y="1349"/>
      <point x="1210" y="1157" type="qcurve" smooth="yes"/>
      <point x="1210" y="1124"/>
      <point x="1205" y="1086" type="qcurve" smooth="yes"/>
      <point x="1178" y="877"/>
      <point x="999" y="800" type="qcurve"/>
      <point x="1242" y="729"/>
      <point x="1242" y="476" type="qcurve" smooth="yes"/>
      <point x="1242" y="444"/>
      <point x="1238" y="409" type="qcurve" smooth="yes"/>
      <point x="1219" y="251"/>
      <point x="1074" y="69"/>
      <point x="822" y="-5"/>
      <point x="641" y="-5" type="qcurve" smooth="yes"/>
      <point x="319" y="-5" type="line" smooth="yes"/>
      <point x="183" y="-5"/>
    </contour>
    <contour>
      <point x="773" y="833" type="line" smooth="yes"/>
      <point x="836" y="833"/>
      <point x="880" y="858" type="qcurve" smooth="yes"/>
      <point x="960" y="904"/>
      <point x="994" y="1003" type="qcurve" smooth="yes"/>
      <point x="1015" y="1066"/>
      <point x="1015" y="1129" type="qcurve" smooth="yes"/>
      <point x="1015" y="1166"/>
      <point x="995" y="1254"/>
      <point x="911" y="1322"/>
      <point x="824" y="1322" type="qcurve"/>
      <point x="781" y="1323"/>
      <point x="557" y="1323" type="qcurve"/>
      <point x="497" y="833" type="line"/>
    </contour>
    <contour>
      <point x="685" y="128" type="line" smooth="yes"/>
      <point x="862" y="128"/>
      <point x="1025" y="265"/>
      <point x="1042" y="412" type="qcurve" smooth="yes"/>
      <point x="1045" y="440"/>
      <point x="1045" y="465" type="qcurve" smooth="yes"/>
      <point x="1045" y="564"/>
      <point x="926" y="696"/>
      <point x="769" y="696" type="qcurve" smooth="yes"/>
      <point x="481" y="696" type="line"/>
      <point x="411" y="128" type="line"/>
    </contour>
  </outline>
</glyph>
<glyph name="C" format="1">
  <advance width="1257"/>
  <unicode hex="0043"/>
  <outline>
    <contour>
      <point x="700" y="-20" type="qcurve" smooth="yes"/>
      <point x="295" y="-20"/>
      <point x="191" y="307" type="qcurve" smooth="yes"/>
      <point x="158" y="412"/>
      <point x="158" y="554" type="qcurve" smooth="yes"/>
      <point x="158" y="637"/>
      <point x="169" y="733" type="qcurve"/>
      <point x="217" y="1115"/>
      <point x="571" y="1478"/>
      <point x="868" y="1478" type="qcurve" smooth="yes"/>
      <point x="949" y="1478"/>
      <point x="1114" y="1454"/>
      <point x="1258" y="1393"/>
      <point x="1310" y="1338" type="qcurve"/>
      <point x="1267" y="988" type="line"/>
      <point x="1159" y="1001" type="line" smooth="yes"/>
      <point x="1151" y="1002"/>
      <point x="1145" y="1009"/>
      <point x="1144" y="1016" type="qcurve" smooth="yes"/>
      <point x="1142" y="1038" type="line" smooth="yes"/>
      <point x="1139" y="1059"/>
      <point x="1131" y="1120"/>
      <point x="1122" y="1176"/>
      <point x="1118" y="1191" type="qcurve" smooth="yes"/>
      <point x="1110" y="1225"/>
      <point x="1084" y="1272"/>
      <point x="1055" y="1288" type="qcurve"/>
      <point x="960" y="1335"/>
      <point x="850" y="1335" type="qcurve" smooth="yes"/>
      <point x="658" y="1335"/>
      <point x="413" y="1033"/>
      <point x="375" y="733" type="qcurve"/>
      <point x="365" y="647"/>
      <point x="365" y="573" type="qcurve" smooth="yes"/>
      <point x="365" y="389"/>
      <point x="516" y="121"/>
      <point x="718" y="121" type="qcurve" smooth="yes"/>
      <point x="781" y="121"/>
      <point x="915" y="137"/>
      <point x="975" y="175" type="qcurve"/>
      <point x="976" y="175" type="line"/>
      <point x="992" y="186"/>
      <point x="1007" y="200"/>
      <point x="1024" y="231"/>
      <point x="1043" y="278"/>
      <point x="1061" y="327"/>
      <point x="1067" y="345" type="qcurve" smooth="yes"/>
      <point x="1073" y="362" type="line"/>
      <point x="1076" y="375"/>
      <point x="1093" y="377" type="qcurve" smooth="yes"/>
      <point x="1205" y="389" type="line"/>
      <point x="1173" y="130" type="line"/>
      <point x="1116" y="74"/>
      <point x="960" y="8"/>
      <point x="784" y="-20"/>
    </contour>
  </outline>
</glyph>
<glyph name="D" format="1">
  <advance width="1422"/>
  <unicode hex="0044"/>
  <outline>
    <contour>
      <point x="97" y="-18" type="qcurve"/>
      <point x="123" y="104" type="line" smooth="yes"/>
      <point x="126" y="116"/>
      <point x="140" y="117" type="qcurve"/>
      <point x="266" y="132" type="line" smooth="yes"/>
      <point x="274" y="133"/>
      <point x="281" y="140"/>
      <point x="282" y="148" type="qcurve" smooth="yes"/>
      <point x="423" y="1292" type="line"/>
      <point x="423" y="1302"/>
      <point x="410" y="1303" type="qcurve"/>
      <point x="288" y="1322" type="line"/>
      <point x="275" y="1323"/>
      <point x="275" y="1334" type="qcurve"/>
      <point x="277" y="1448" type="line"/>
      <point x="845" y="1448" type="line" smooth="yes"/>
      <point x="1278" y="1448"/>
      <point x="1398" y="1141" type="qcurve" smooth="yes"/>
      <point x="1440" y="1034"/>
      <point x="1440" y="883" type="qcurve" smooth="yes"/>
      <point x="1440" y="810"/>
      <point x="1430" y="727" type="qcurve" smooth="yes"/>
      <point x="1397" y="467"/>
      <point x="1194" y="143"/>
      <point x="873" y="-7"/>
      <point x="666" y="-7" type="qcurve"/>
      <point x="364" y="-6" type="line"/>
      <point x="240" y="-7"/>
    </contour>
    <contour>
      <point x="741" y="127" type="line" smooth="yes"/>
      <point x="944" y="127"/>
      <point x="1185" y="423"/>
      <point x="1222" y="727" type="qcurve" smooth="yes"/>
      <point x="1233" y="815"/>
      <point x="1233" y="890" type="qcurve" smooth="yes"/>
      <point x="1233" y="989"/>
      <point x="1182" y="1196"/>
      <point x="1014" y="1323"/>
      <point x="888" y="1323" type="qcurve" smooth="yes"/>
      <point x="621" y="1323" type="line"/>
      <point x="474" y="127" type="line"/>
    </contour>
  </outline>
</glyph>
<glyph name="E" format="1">
  <advance width="1360"/>
  <unicode hex="0045"/>
  <outline>
    <contour>
      <point x="97" y="-17" type="qcurve"/>
      <point x="123" y="105" type="line"/>
      <point x="125" y="118"/>
      <point x="140" y="119" type="qcurve"/>
      <point x="265" y="133" type="line"/>
      <point x="280" y="134"/>
      <point x="281" y="150" type="qcurve"/>
      <point x="421" y="1287" type="line"/>
      <point x="424" y="1302"/>
      <point x="409" y="1304" type="qcurve" smooth="yes"/>
      <point x="287" y="1323" type="line"/>
      <point x="274" y="1324"/>
      <point x="274" y="1336" type="qcurve"/>
      <point x="277" y="1448" type="line"/>
      <point x="1313" y="1448" type="line"/>
      <point x="1270" y="1101" type="line"/>
      <point x="1163" y="1113" type="line" smooth="yes"/>
      <point x="1155" y="1114"/>
      <point x="1148" y="1121"/>
      <point x="1148" y="1128" type="qcurve"/>
      <point x="1119" y="1280" type="line"/>
      <point x="1118" y="1294"/>
      <point x="1099" y="1295" type="qcurve" smooth="yes"/>
      <point x="932" y="1303"/>
      <point x="748" y="1309"/>
      <point x="613" y="1309" type="qcurve"/>
      <point x="552" y="817" type="line"/>
      <point x="1112" y="817" type="line"/>
      <point x="1095" y="673" type="line"/>
      <point x="535" y="673" type="line"/>
      <point x="468" y="134" type="line"/>
      <point x="576" y="134"/>
      <point x="709" y="136"/>
      <point x="868" y="142"/>
      <point x="1006" y="148" type="qcurve" smooth="yes"/>
      <point x="1025" y="149"/>
      <point x="1034" y="163" type="qcurve" smooth="yes"/>
      <point x="1124" y="293" type="line" smooth="yes"/>
      <point x="1128" y="299"/>
      <point x="1139" y="307"/>
      <point x="1147" y="308" type="qcurve" smooth="yes"/>
      <point x="1285" y="321" type="line"/>
      <point x="1165" y="-5" type="line"/>
      <point x="324" y="-5" type="line"/>
      <point x="219" y="-8"/>
    </contour>
  </outline>
</glyph>
<glyph name="F" format="1">
  <advance width="1139"/>
  <unicode hex="0046"/>
  <outline>
    <contour>
      <point x="605" y="-17" type="line"/>
      <point x="506" y="-9"/>
      <point x="401" y="-5"/>
      <point x="315" y="-5" type="qcurve"/>
      <point x="210" y="-8"/>
      <point x="87" y="-17" type="qcurve"/>
      <point x="114" y="105" type="line"/>
      <point x="116" y="118"/>
      <point x="130" y="119" type="qcurve" smooth="yes"/>
      <point x="256" y="133" type="line"/>
      <point x="271" y="134"/>
      <point x="272" y="148" type="qcurve"/>
      <point x="413" y="1292" type="line"/>
      <point x="413" y="1302"/>
      <point x="400" y="1304" type="qcurve" smooth="yes"/>
      <point x="278" y="1323" type="line"/>
      <point x="265" y="1324"/>
      <point x="265" y="1334" type="qcurve"/>
      <point x="267" y="1448" type="line"/>
      <point x="1224" y="1448" type="line"/>
      <point x="1182" y="1101" type="line"/>
      <point x="1074" y="1113" type="line" smooth="yes"/>
      <point x="1060" y="1115"/>
      <point x="1058" y="1128" type="qcurve" smooth="yes"/>
      <point x="1031" y="1280" type="line"/>
      <point x="1030" y="1294"/>
      <point x="1011" y="1295" type="qcurve" smooth="yes"/>
      <point x="962" y="1297" type="line"/>
      <point x="769" y="1309"/>
      <point x="603" y="1309" type="qcurve"/>
      <point x="543" y="817" type="line"/>
      <point x="1012" y="817" type="line"/>
      <point x="994" y="675" type="line"/>
      <point x="525" y="675" type="line"/>
      <point x="461" y="145" type="line"/>
      <point x="461" y="134"/>
      <point x="473" y="133" type="qcurve" smooth="yes"/>
      <point x="596" y="119" type="line" smooth="yes"/>
      <point x="609" y="118"/>
      <point x="609" y="107" type="qcurve"/>
    </contour>
  </outline>
</glyph>
<glyph name="G" format="1">
  <advance width="1290"/>
  <unicode hex="0047"/>
  <outline>
    <contour>
      <point x="715" y="-20" type="qcurve" smooth="yes"/>
      <point x="519" y="-20"/>
      <point x="259" y="141"/>
      <point x="206" y="308" type="qcurve" smooth="yes"/>
      <point x="173" y="413"/>
      <point x="173" y="554" type="qcurve" smooth="yes"/>
      <point x="173" y="637"/>
      <point x="184" y="733" type="qcurve"/>
      <point x="278" y="1477"/>
      <point x="882" y="1477" type="qcurve" smooth="yes"/>
      <point x="964" y="1477"/>
      <point x="1129" y="1453"/>
      <point x="1273" y="1392"/>
      <point x="1325" y="1338" type="qcurve"/>
      <point x="1282" y="988" type="line"/>
      <point x="1174" y="1001" type="line" smooth="yes"/>
      <point x="1166" y="1002"/>
      <point x="1160" y="1009"/>
      <point x="1159" y="1016" type="qcurve" smooth="yes"/>
      <point x="1157" y="1038" type="line" smooth="yes"/>
      <point x="1154" y="1059"/>
      <point x="1146" y="1119"/>
      <point x="1137" y="1176"/>
      <point x="1132" y="1191" type="qcurve"/>
      <point x="1125" y="1225"/>
      <point x="1099" y="1272"/>
      <point x="1070" y="1288" type="qcurve"/>
      <point x="975" y="1334"/>
      <point x="865" y="1334" type="qcurve" smooth="yes"/>
      <point x="673" y="1334"/>
      <point x="428" y="1033"/>
      <point x="390" y="733" type="qcurve"/>
      <point x="380" y="648"/>
      <point x="380" y="574" type="qcurve" smooth="yes"/>
      <point x="380" y="390"/>
      <point x="532" y="122"/>
      <point x="733" y="122" type="qcurve" smooth="yes"/>
      <point x="796" y="122"/>
      <point x="929" y="138"/>
      <point x="989" y="175" type="qcurve" smooth="yes"/>
      <point x="1007" y="186"/>
      <point x="1024" y="206"/>
      <point x="1033" y="224" type="qcurve"/>
      <point x="1069" y="515" type="line"/>
      <point x="1069" y="527"/>
      <point x="1060" y="529" type="qcurve"/>
      <point x="875" y="542" type="line"/>
      <point x="866" y="545"/>
      <point x="866" y="553" type="qcurve"/>
      <point x="872" y="673" type="line"/>
      <point x="1278" y="673" type="line"/>
      <point x="1212" y="135" type="line"/>
      <point x="1178" y="134"/>
      <point x="1136" y="119"/>
      <point x="1112" y="101" type="qcurve" smooth="yes"/>
      <point x="951" y="-20"/>
    </contour>
  </outline>
</glyph>
<glyph name="H" format="1">
  <advance width="1551"/>
  <unicode hex="0048"/>
  <outline>
    <contour>
      <point x="1440" y="-18" type="line"/>
      <point x="1340" y="-11"/>
      <point x="1238" y="-6"/>
      <point x="1149" y="-6" type="qcurve"/>
      <point x="1045" y="-9"/>
      <point x="922" y="-18" type="qcurve"/>
      <point x="948" y="104" type="line"/>
      <point x="950" y="117"/>
      <point x="964" y="118" type="qcurve" smooth="yes"/>
      <point x="1091" y="132" type="line" smooth="yes"/>
      <point x="1105" y="134"/>
      <point x="1107" y="148" type="qcurve" smooth="yes"/>
      <point x="1171" y="672" type="line"/>
      <point x="562" y="672" type="line"/>
      <point x="498" y="143" type="line"/>
      <point x="498" y="133"/>
      <point x="510" y="132" type="qcurve" smooth="yes"/>
      <point x="633" y="118" type="line" smooth="yes"/>
      <point x="645" y="117"/>
      <point x="645" y="106" type="qcurve"/>
      <point x="642" y="-18" type="line"/>
      <point x="542" y="-11"/>
      <point x="438" y="-6"/>
      <point x="352" y="-6" type="qcurve"/>
      <point x="247" y="-9"/>
      <point x="124" y="-18" type="qcurve"/>
      <point x="151" y="104" type="line"/>
      <point x="153" y="117"/>
      <point x="167" y="118" type="qcurve" smooth="yes"/>
      <point x="293" y="132" type="line" smooth="yes"/>
      <point x="303" y="133"/>
      <point x="309" y="143"/>
      <point x="310" y="152" type="qcurve" smooth="yes"/>
      <point x="450" y="1291" type="line"/>
      <point x="450" y="1301"/>
      <point x="437" y="1303" type="qcurve" smooth="yes"/>
      <point x="315" y="1322" type="line"/>
      <point x="302" y="1323"/>
      <point x="302" y="1333" type="qcurve"/>
      <point x="304" y="1448" type="line"/>
      <point x="822" y="1448" type="line"/>
      <point x="797" y="1335" type="line" smooth="yes"/>
      <point x="794" y="1323"/>
      <point x="781" y="1322" type="qcurve"/>
      <point x="654" y="1303" type="line" smooth="yes"/>
      <point x="639" y="1301"/>
      <point x="637" y="1286" type="qcurve" smooth="yes"/>
      <point x="577" y="794" type="line"/>
      <point x="1186" y="794" type="line"/>
      <point x="1247" y="1291" type="line"/>
      <point x="1247" y="1301"/>
      <point x="1234" y="1303" type="qcurve" smooth="yes"/>
      <point x="1112" y="1322" type="line"/>
      <point x="1099" y="1323"/>
      <point x="1099" y="1333" type="qcurve"/>
      <point x="1102" y="1448" type="line"/>
      <point x="1620" y="1448" type="line"/>
      <point x="1594" y="1335" type="line"/>
      <point x="1592" y="1323"/>
      <point x="1578" y="1322" type="qcurve"/>
      <point x="1451" y="1303" type="line" smooth="yes"/>
      <point x="1437" y="1301"/>
      <point x="1435" y="1286" type="qcurve" smooth="yes"/>
      <point x="1295" y="144" type="line"/>
      <point x="1295" y="133"/>
      <point x="1307" y="132" type="qcurve" smooth="yes"/>
      <point x="1430" y="118" type="line" smooth="yes"/>
      <point x="1443" y="117"/>
      <point x="1443" y="106" type="qcurve"/>
    </contour>
  </outline>
</glyph>
<glyph name="I" format="1">
  <advance width="758"/>
  <unicode hex="0049"/>
  <outline>
    <contour>
      <point x="635" y="-17" type="line"/>
      <point x="514" y="-8"/>
      <point x="410" y="-5" type="qcurve"/>
      <point x="323" y="-5"/>
      <point x="219" y="-10"/>
      <point x="117" y="-17" type="qcurve"/>
      <point x="144" y="105" type="line"/>
      <point x="145" y="118"/>
      <point x="160" y="119" type="qcurve"/>
      <point x="286" y="133" type="line"/>
      <point x="301" y="134"/>
      <point x="302" y="149" type="qcurve"/>
      <point x="442" y="1291" type="line"/>
      <point x="442" y="1302"/>
      <point x="430" y="1304" type="qcurve" smooth="yes"/>
      <point x="307" y="1323" type="line"/>
      <point x="295" y="1324"/>
      <point x="295" y="1333" type="qcurve"/>
      <point x="297" y="1449" type="line"/>
      <point x="815" y="1449" type="line"/>
      <point x="789" y="1336" type="line"/>
      <point x="788" y="1324"/>
      <point x="773" y="1323" type="qcurve"/>
      <point x="646" y="1304" type="line" smooth="yes"/>
      <point x="632" y="1302"/>
      <point x="630" y="1287" type="qcurve" smooth="yes"/>
      <point x="490" y="148" type="line"/>
      <point x="490" y="135"/>
      <point x="502" y="133" type="qcurve"/>
      <point x="626" y="119" type="line" smooth="yes"/>
      <point x="638" y="118"/>
      <point x="638" y="108" type="qcurve"/>
    </contour>
  </outline>
</glyph>
<glyph name="J" format="1">
  <advance width="1048"/>
  <unicode hex="004A"/>
  <outline>
    <contour>
      <point x="424" y="-21" type="qcurve" smooth="yes"/>
      <point x="295" y="-21"/>
      <point x="128" y="45"/>
      <point x="95" y="98" type="qcurve"/>
      <point x="128" y="359" type="line"/>
      <point x="232" y="348" type="line" smooth="yes"/>
      <point x="246" y="346"/>
      <point x="248" y="334" type="qcurve" smooth="yes"/>
      <point x="280" y="179" type="line"/>
      <point x="281" y="168"/>
      <point x="295" y="155" type="qcurve" smooth="yes"/>
      <point x="329" y="120"/>
      <point x="436" y="120" type="qcurve" smooth="yes"/>
      <point x="516" y="120"/>
      <point x="648" y="203"/>
      <point x="662" y="296" type="qcurve"/>
      <point x="785" y="1290" type="line"/>
      <point x="785" y="1302"/>
      <point x="773" y="1303" type="qcurve"/>
      <point x="651" y="1322" type="line"/>
      <point x="638" y="1323"/>
      <point x="638" y="1334" type="qcurve"/>
      <point x="640" y="1448" type="line"/>
      <point x="1158" y="1448" type="line"/>
      <point x="1133" y="1336" type="line" smooth="yes"/>
      <point x="1130" y="1323"/>
      <point x="1116" y="1322" type="qcurve"/>
      <point x="990" y="1303" type="line" smooth="yes"/>
      <point x="982" y="1302"/>
      <point x="975" y="1295"/>
      <point x="974" y="1287" type="qcurve" smooth="yes"/>
      <point x="854" y="312" type="line"/>
      <point x="833" y="150"/>
      <point x="607" y="-21"/>
    </contour>
  </outline>
</glyph>
<glyph name="K" format="1">
  <advance width="1454"/>
  <unicode hex="004B"/>
  <outline>
    <contour>
      <point x="1412" y="-17" type="line"/>
      <point x="1258" y="-5"/>
      <point x="1118" y="-5" type="qcurve"/>
      <point x="766" y="748" type="line"/>
      <point x="501" y="498" type="line"/>
      <point x="459" y="145" type="line"/>
      <point x="459" y="135"/>
      <point x="471" y="133" type="qcurve"/>
      <point x="595" y="119" type="line" smooth="yes"/>
      <point x="607" y="118"/>
      <point x="607" y="105" type="qcurve"/>
      <point x="604" y="-17" type="line"/>
      <point x="483" y="-8"/>
      <point x="378" y="-5" type="qcurve"/>
      <point x="288" y="-5"/>
      <point x="186" y="-10"/>
      <point x="86" y="-17" type="qcurve"/>
      <point x="112" y="105" type="line"/>
      <point x="114" y="118"/>
      <point x="129" y="119" type="qcurve"/>
      <point x="254" y="133" type="line" smooth="yes"/>
      <point x="263" y="134"/>
      <point x="270" y="142"/>
      <point x="340" y="719" type="qcurve"/>
      <point x="411" y="1293" type="line"/>
      <point x="411" y="1303"/>
      <point x="398" y="1304" type="qcurve"/>
      <point x="276" y="1323" type="line"/>
      <point x="263" y="1324"/>
      <point x="263" y="1335" type="qcurve"/>
      <point x="266" y="1449" type="line"/>
      <point x="784" y="1449" type="line"/>
      <point x="758" y="1337" type="line"/>
      <point x="756" y="1324"/>
      <point x="742" y="1323" type="qcurve"/>
      <point x="615" y="1304" type="line"/>
      <point x="600" y="1303"/>
      <point x="599" y="1288" type="qcurve"/>
      <point x="523" y="680" type="line"/>
      <point x="705" y="858"/>
      <point x="959" y="1123"/>
      <point x="1102" y="1284" type="qcurve" smooth="yes"/>
      <point x="1106" y="1288"/>
      <point x="1106" y="1294" type="qcurve" smooth="yes"/>
      <point x="1106" y="1302"/>
      <point x="1096" y="1304" type="qcurve" smooth="yes"/>
      <point x="993" y="1323" type="line"/>
      <point x="981" y="1324"/>
      <point x="981" y="1337" type="qcurve"/>
      <point x="983" y="1449" type="line"/>
      <point x="1456" y="1449" type="line"/>
      <point x="1430" y="1337" type="line"/>
      <point x="1428" y="1324"/>
      <point x="1414" y="1323" type="qcurve"/>
      <point x="1305" y="1307" type="line"/>
      <point x="1287" y="1303"/>
      <point x="1272" y="1288" type="qcurve"/>
      <point x="911" y="899" type="line"/>
      <point x="1266" y="149" type="line" smooth="yes"/>
      <point x="1273" y="134"/>
      <point x="1285" y="132" type="qcurve" smooth="yes"/>
      <point x="1402" y="118" type="line"/>
      <point x="1416" y="117"/>
      <point x="1416" y="106" type="qcurve"/>
    </contour>
  </outline>
</glyph>
<glyph name="L" format="1">
  <advance width="1242"/>
  <unicode hex="004C"/>
  <outline>
    <contour>
      <point x="88" y="-17" type="qcurve"/>
      <point x="114" y="105" type="line"/>
      <point x="116" y="118"/>
      <point x="130" y="119" type="qcurve" smooth="yes"/>
      <point x="257" y="133" type="line" smooth="yes"/>
      <point x="271" y="135"/>
      <point x="273" y="149" type="qcurve" smooth="yes"/>
      <point x="413" y="1291" type="line"/>
      <point x="413" y="1302"/>
      <point x="401" y="1304" type="qcurve" smooth="yes"/>
      <point x="278" y="1323" type="line"/>
      <point x="265" y="1324"/>
      <point x="265" y="1336" type="qcurve"/>
      <point x="268" y="1449" type="line"/>
      <point x="785" y="1449" type="line"/>
      <point x="760" y="1336" type="line" smooth="yes"/>
      <point x="758" y="1324"/>
      <point x="744" y="1323" type="qcurve"/>
      <point x="617" y="1304" type="line" smooth="yes"/>
      <point x="604" y="1302"/>
      <point x="602" y="1292" type="qcurve"/>
      <point x="459" y="134" type="line"/>
      <point x="582" y="134"/>
      <point x="772" y="140"/>
      <point x="928" y="148" type="qcurve"/>
      <point x="947" y="148"/>
      <point x="952" y="163" type="qcurve" smooth="yes"/>
      <point x="1043" y="443" type="line"/>
      <point x="1046" y="450"/>
      <point x="1054" y="458"/>
      <point x="1063" y="458" type="qcurve"/>
      <point x="1186" y="472" type="line"/>
      <point x="1186" y="468"/>
      <point x="1185" y="465" type="qcurve" smooth="yes"/>
      <point x="1126" y="163"/>
      <point x="1104" y="-5" type="qcurve"/>
      <point x="315" y="-5" type="line"/>
      <point x="211" y="-8"/>
    </contour>
  </outline>
</glyph>
<glyph name="M" format="1">
  <advance width="1783"/>
  <unicode hex="004D"/>
  <outline>
    <contour>
      <point x="1693" y="-17" type="line"/>
      <point x="1657" y="-15" type="line" smooth="yes"/>
      <point x="1590" y="-10"/>
      <point x="1530" y="-7" type="qcurve"/>
      <point x="1530" y="-8" type="line"/>
      <point x="1480" y="-6"/>
      <point x="1435" y="-6" type="qcurve" smooth="yes"/>
      <point x="1310" y="-6"/>
      <point x="1176" y="-17" type="qcurve"/>
      <point x="1203" y="105" type="line"/>
      <point x="1205" y="118"/>
      <point x="1219" y="119" type="qcurve" smooth="yes"/>
      <point x="1345" y="133" type="line"/>
      <point x="1357" y="135"/>
      <point x="1359" y="142" type="qcurve"/>
      <point x="1477" y="1102" type="line"/>
      <point x="927" y="69" type="line"/>
      <point x="919" y="68" type="line" smooth="yes"/>
      <point x="911" y="66"/>
      <point x="898" y="66" type="qcurve" smooth="yes"/>
      <point x="842" y="66"/>
      <point x="824" y="117" type="qcurve"/>
      <point x="509" y="1052" type="line"/>
      <point x="398" y="144" type="line"/>
      <point x="398" y="134"/>
      <point x="410" y="133" type="qcurve" smooth="yes"/>
      <point x="534" y="119" type="line" smooth="yes"/>
      <point x="546" y="118"/>
      <point x="546" y="105" type="qcurve"/>
      <point x="543" y="-17" type="line"/>
      <point x="418" y="-8"/>
      <point x="311" y="-5" type="qcurve"/>
      <point x="203" y="-8"/>
      <point x="77" y="-17" type="qcurve"/>
      <point x="103" y="105" type="line"/>
      <point x="105" y="118"/>
      <point x="120" y="119" type="qcurve"/>
      <point x="245" y="133" type="line"/>
      <point x="257" y="135"/>
      <point x="260" y="142" type="qcurve"/>
      <point x="402" y="1294" type="line"/>
      <point x="400" y="1303"/>
      <point x="389" y="1304" type="qcurve"/>
      <point x="267" y="1323" type="line"/>
      <point x="254" y="1324"/>
      <point x="254" y="1334" type="qcurve"/>
      <point x="257" y="1449" type="line"/>
      <point x="491" y="1449"/>
      <point x="519" y="1446"/>
      <point x="530" y="1445" type="qcurve" smooth="yes"/>
      <point x="568" y="1439"/>
      <point x="601" y="1398"/>
      <point x="616" y="1359" type="qcurve" smooth="yes"/>
      <point x="618" y="1355"/>
      <point x="937" y="362" type="qcurve"/>
      <point x="1462" y="1359" type="line"/>
      <point x="1486" y="1407"/>
      <point x="1551" y="1449"/>
      <point x="1583" y="1449" type="qcurve" smooth="yes"/>
      <point x="1873" y="1449" type="line"/>
      <point x="1848" y="1336" type="line" smooth="yes"/>
      <point x="1846" y="1324"/>
      <point x="1831" y="1323" type="qcurve"/>
      <point x="1705" y="1304" type="line" smooth="yes"/>
      <point x="1691" y="1302"/>
      <point x="1689" y="1287" type="qcurve" smooth="yes"/>
      <point x="1549" y="144" type="line"/>
      <point x="1549" y="134"/>
      <point x="1561" y="133" type="qcurve" smooth="yes"/>
      <point x="1684" y="119" type="line" smooth="yes"/>
      <point x="1697" y="118"/>
      <point x="1697" y="107" type="qcurve"/>
    </contour>
  </outline>
</glyph>
<glyph name="N" format="1">
  <advance width="1560"/>
  <unicode hex="004E"/>
  <outline>
    <contour>
      <point x="584" y="-18" type="line"/>
      <point x="459" y="-8"/>
      <point x="352" y="-6" type="qcurve"/>
      <point x="244" y="-8"/>
      <point x="117" y="-18" type="qcurve"/>
      <point x="144" y="104" type="line"/>
      <point x="146" y="117"/>
      <point x="160" y="118" type="qcurve" smooth="yes"/>
      <point x="286" y="132" type="line" smooth="yes"/>
      <point x="298" y="133"/>
      <point x="301" y="142" type="qcurve"/>
      <point x="443" y="1295" type="line"/>
      <point x="442" y="1303"/>
      <point x="430" y="1305" type="qcurve" smooth="yes"/>
      <point x="308" y="1324" type="line"/>
      <point x="295" y="1325"/>
      <point x="295" y="1335" type="qcurve"/>
      <point x="297" y="1450" type="line"/>
      <point x="510" y="1450"/>
      <point x="563" y="1449" type="qcurve" smooth="yes"/>
      <point x="621" y="1447"/>
      <point x="679" y="1383"/>
      <point x="707" y="1323" type="qcurve" smooth="yes"/>
      <point x="1201" y="284" type="line"/>
      <point x="1325" y="1293" type="line"/>
      <point x="1325" y="1303"/>
      <point x="1312" y="1305" type="qcurve" smooth="yes"/>
      <point x="1190" y="1324" type="line"/>
      <point x="1177" y="1325"/>
      <point x="1177" y="1335" type="qcurve"/>
      <point x="1179" y="1450" type="line"/>
      <point x="1647" y="1450" type="line"/>
      <point x="1621" y="1337" type="line"/>
      <point x="1619" y="1325"/>
      <point x="1605" y="1324" type="qcurve"/>
      <point x="1478" y="1305" type="line" smooth="yes"/>
      <point x="1464" y="1303"/>
      <point x="1462" y="1288" type="qcurve" smooth="yes"/>
      <point x="1303" y="-6" type="line"/>
      <point x="1173" y="-6" type="line" smooth="yes"/>
      <point x="1141" y="-6"/>
      <point x="1098" y="42"/>
      <point x="1074" y="97" type="qcurve"/>
      <point x="564" y="1170" type="line"/>
      <point x="439" y="144" type="line"/>
      <point x="439" y="134"/>
      <point x="451" y="132" type="qcurve"/>
      <point x="574" y="118" type="line" smooth="yes"/>
      <point x="587" y="117"/>
      <point x="587" y="106" type="qcurve"/>
    </contour>
  </outline>
</glyph>
<glyph name="O" format="1">
  <advance width="1351"/>
  <unicode hex="004F"/>
  <outline>
    <contour>
      <point x="672" y="-20" type="qcurve" smooth="yes"/>
      <point x="476" y="-20"/>
      <point x="351" y="60" type="qcurve" smooth="yes"/>
      <point x="146" y="190"/>
      <point x="146" y="546" type="qcurve" smooth="yes"/>
      <point x="146" y="632"/>
      <point x="158" y="732" type="qcurve" smooth="yes"/>
      <point x="252" y="1476"/>
      <point x="856" y="1476" type="qcurve" smooth="yes"/>
      <point x="1151" y="1476"/>
      <point x="1283" y="1295" type="qcurve" smooth="yes"/>
      <point x="1381" y="1160"/>
      <point x="1381" y="916" type="qcurve" smooth="yes"/>
      <point x="1381" y="830"/>
      <point x="1369" y="732" type="qcurve" smooth="yes"/>
      <point x="1321" y="345"/>
      <point x="968" y="-20"/>
    </contour>
    <contour>
      <point x="687" y="122" type="qcurve" smooth="yes"/>
      <point x="836" y="122"/>
      <point x="1032" y="268"/>
      <point x="1144" y="541"/>
      <point x="1167" y="734" type="qcurve"/>
      <point x="1179" y="826"/>
      <point x="1179" y="904" type="qcurve" smooth="yes"/>
      <point x="1179" y="1075"/>
      <point x="1042" y="1334"/>
      <point x="836" y="1334" type="qcurve" smooth="yes"/>
      <point x="433" y="1334"/>
      <point x="361" y="734" type="qcurve"/>
      <point x="347" y="628"/>
      <point x="347" y="539" type="qcurve" smooth="yes"/>
      <point x="347" y="465"/>
      <point x="378" y="266"/>
      <point x="536" y="122"/>
    </contour>
  </outline>
</glyph>
<glyph name="P" format="1">
  <advance width="1233"/>
  <unicode hex="0050"/>
  <outline>
    <contour>
      <point x="595" y="-18" type="line"/>
      <point x="464" y="-6"/>
      <point x="338" y="-6" type="qcurve" smooth="yes"/>
      <point x="212" y="-6"/>
      <point x="79" y="-18" type="qcurve"/>
      <point x="106" y="104" type="line"/>
      <point x="107" y="117"/>
      <point x="121" y="118" type="qcurve" smooth="yes"/>
      <point x="248" y="132" type="line" smooth="yes"/>
      <point x="262" y="134"/>
      <point x="264" y="149" type="qcurve" smooth="yes"/>
      <point x="404" y="1293" type="line"/>
      <point x="404" y="1303"/>
      <point x="392" y="1305" type="qcurve" smooth="yes"/>
      <point x="270" y="1324" type="line"/>
      <point x="257" y="1325"/>
      <point x="257" y="1334" type="qcurve"/>
      <point x="259" y="1450" type="line"/>
      <point x="780" y="1450" type="line" smooth="yes"/>
      <point x="961" y="1450"/>
      <point x="1194" y="1367"/>
      <point x="1244" y="1271" type="qcurve" smooth="yes"/>
      <point x="1279" y="1203"/>
      <point x="1279" y="1101" type="qcurve" smooth="yes"/>
      <point x="1279" y="1061"/>
      <point x="1274" y="1017" type="qcurve" smooth="yes"/>
      <point x="1246" y="800"/>
      <point x="940" y="586"/>
      <point x="678" y="586" type="qcurve" smooth="yes"/>
      <point x="504" y="586" type="line"/>
      <point x="450" y="145" type="line"/>
      <point x="450" y="134"/>
      <point x="462" y="132" type="qcurve"/>
      <point x="585" y="118" type="line" smooth="yes"/>
      <point x="599" y="117"/>
      <point x="599" y="106" type="qcurve"/>
    </contour>
    <contour>
      <point x="731" y="706" type="line" smooth="yes"/>
      <point x="836" y="706"/>
      <point x="982" y="784"/>
      <point x="1066" y="922"/>
      <point x="1077" y="1014" type="qcurve"/>
      <point x="1082" y="1049"/>
      <point x="1082" y="1080" type="qcurve" smooth="yes"/>
      <point x="1082" y="1180"/>
      <point x="969" y="1316"/>
      <point x="792" y="1316" type="qcurve" smooth="yes"/>
      <point x="594" y="1316" type="line"/>
      <point x="519" y="706" type="line"/>
    </contour>
  </outline>
</glyph>
<glyph name="Q" format="1">
  <advance width="1364"/>
  <unicode hex="0051"/>
  <outline>
    <contour>
      <point x="1116" y="-274" type="qcurve" smooth="yes"/>
      <point x="1112" y="-274" type="line"/>
      <point x="985" y="-248"/>
      <point x="788" y="-182"/>
      <point x="673" y="-128" type="qcurve"/>
      <point x="667" y="-124"/>
      <point x="667" y="-116" type="qcurve" smooth="yes"/>
      <point x="667" y="-112"/>
      <point x="693" y="-21" type="qcurve"/>
      <point x="672" y="-21" type="line" smooth="yes"/>
      <point x="475" y="-21"/>
      <point x="350" y="59" type="qcurve" smooth="yes"/>
      <point x="146" y="189"/>
      <point x="146" y="541" type="qcurve" smooth="yes"/>
      <point x="146" y="629"/>
      <point x="159" y="731" type="qcurve" smooth="yes"/>
      <point x="251" y="1475"/>
      <point x="855" y="1475" type="qcurve" smooth="yes"/>
      <point x="1151" y="1475"/>
      <point x="1283" y="1293" type="qcurve" smooth="yes"/>
      <point x="1381" y="1159"/>
      <point x="1381" y="915" type="qcurve" smooth="yes"/>
      <point x="1381" y="829"/>
      <point x="1369" y="731" type="qcurve" smooth="yes"/>
      <point x="1327" y="396"/>
      <point x="1052" y="33"/>
      <point x="823" y="-8" type="qcurve"/>
      <point x="1012" y="-79"/>
      <point x="1197" y="-126" type="qcurve"/>
      <point x="1131" y="-265" type="line" smooth="yes"/>
      <point x="1127" y="-274"/>
    </contour>
    <contour>
      <point x="687" y="121" type="qcurve" smooth="yes"/>
      <point x="836" y="121"/>
      <point x="1031" y="267"/>
      <point x="1144" y="540"/>
      <point x="1167" y="732" type="qcurve"/>
      <point x="1179" y="824"/>
      <point x="1179" y="903" type="qcurve" smooth="yes"/>
      <point x="1179" y="1074"/>
      <point x="1042" y="1332"/>
      <point x="836" y="1332" type="qcurve" smooth="yes"/>
      <point x="628" y="1332"/>
      <point x="396" y="1026"/>
      <point x="361" y="732" type="qcurve"/>
      <point x="347" y="626"/>
      <point x="347" y="537" type="qcurve" smooth="yes"/>
      <point x="347" y="463"/>
      <point x="378" y="265"/>
      <point x="536" y="121"/>
    </contour>
  </outline>
</glyph>
<glyph name="R" format="1">
  <advance width="1358"/>
  <unicode hex="0052"/>
  <outline>
    <contour>
      <point x="1264" y="-17" type="line"/>
      <point x="1157" y="-10"/>
      <point x="1100" y="-8" type="qcurve" smooth="yes"/>
      <point x="1015" y="-5"/>
      <point x="942" y="-5" type="qcurve"/>
      <point x="694" y="587" type="line"/>
      <point x="655" y="586"/>
      <point x="463" y="586" type="qcurve"/>
      <point x="409" y="144" type="line"/>
      <point x="409" y="134"/>
      <point x="421" y="133" type="qcurve" smooth="yes"/>
      <point x="544" y="118" type="line" smooth="yes"/>
      <point x="552" y="117"/>
      <point x="557" y="112"/>
      <point x="557" y="105" type="qcurve"/>
      <point x="554" y="-17" type="line"/>
      <point x="417" y="-6"/>
      <point x="297" y="-5" type="qcurve"/>
      <point x="177" y="-6"/>
      <point x="38" y="-17" type="qcurve"/>
      <point x="64" y="105" type="line" smooth="yes"/>
      <point x="65" y="112"/>
      <point x="73" y="117"/>
      <point x="80" y="118" type="qcurve" smooth="yes"/>
      <point x="207" y="133" type="line"/>
      <point x="222" y="134"/>
      <point x="223" y="149" type="qcurve"/>
      <point x="364" y="1293" type="line"/>
      <point x="364" y="1304"/>
      <point x="351" y="1304" type="qcurve"/>
      <point x="229" y="1324" type="line"/>
      <point x="215" y="1325"/>
      <point x="215" y="1336" type="qcurve"/>
      <point x="218" y="1449" type="line"/>
      <point x="761" y="1449" type="line" smooth="yes"/>
      <point x="940" y="1449"/>
      <point x="1056" y="1408" type="qcurve" smooth="yes"/>
      <point x="1255" y="1336"/>
      <point x="1255" y="1100" type="qcurve" smooth="yes"/>
      <point x="1255" y="1061"/>
      <point x="1250" y="1017" type="qcurve"/>
      <point x="1205" y="688"/>
      <point x="883" y="611" type="qcurve"/>
      <point x="1101" y="153" type="line"/>
      <point x="1102" y="153" type="line"/>
      <point x="1115" y="123"/>
      <point x="1138" y="118" type="qcurve"/>
      <point x="1253" y="104" type="line" smooth="yes"/>
      <point x="1266" y="103"/>
      <point x="1266" y="93" type="qcurve"/>
    </contour>
    <contour>
      <point x="707" y="707" type="line" smooth="yes"/>
      <point x="812" y="707"/>
      <point x="958" y="785"/>
      <point x="1000" y="854" type="qcurve" smooth="yes"/>
      <point x="1058" y="949"/>
      <point x="1058" y="1081" type="qcurve" smooth="yes"/>
      <point x="1058" y="1181"/>
      <point x="946" y="1316"/>
      <point x="768" y="1316" type="qcurve" smooth="yes"/>
      <point x="553" y="1316" type="line"/>
      <point x="478" y="707" type="line"/>
    </contour>
  </outline>
</glyph>
<glyph name="S" format="1">
  <advance width="1103"/>
  <unicode hex="0053"/>
  <outline>
    <contour>
      <point x="486" y="-20" type="qcurve" smooth="yes"/>
      <point x="368" y="-20"/>
      <point x="140" y="31"/>
      <point x="83" y="70" type="qcurve"/>
      <point x="119" y="367" type="line"/>
      <point x="234" y="355" type="line" smooth="yes"/>
      <point x="243" y="354"/>
      <point x="249" y="346"/>
      <point x="250" y="339" type="qcurve" smooth="yes"/>
      <point x="277" y="180" type="line" smooth="yes"/>
      <point x="280" y="161"/>
      <point x="298" y="157" type="qcurve" smooth="yes"/>
      <point x="410" y="130"/>
      <point x="514" y="130" type="qcurve" smooth="yes"/>
      <point x="610" y="130"/>
      <point x="751" y="205"/>
      <point x="793" y="267" type="qcurve" smooth="yes"/>
      <point x="847" y="347"/>
      <point x="847" y="448" type="qcurve" smooth="yes"/>
      <point x="847" y="521"/>
      <point x="759" y="647"/>
      <point x="621" y="700" type="qcurve"/>
      <point x="507" y="742"/>
      <point x="324" y="844"/>
      <point x="274" y="920" type="qcurve" smooth="yes"/>
      <point x="235" y="981"/>
      <point x="235" y="1068" type="qcurve" smooth="yes"/>
      <point x="235" y="1091"/>
      <point x="238" y="1116" type="qcurve" smooth="yes"/>
      <point x="255" y="1247"/>
      <point x="394" y="1409"/>
      <point x="617" y="1483"/>
      <point x="760" y="1483" type="qcurve" smooth="yes"/>
      <point x="902" y="1483"/>
      <point x="1089" y="1461" type="qcurve"/>
      <point x="1067" y="1250"/>
      <point x="1060" y="1053" type="qcurve"/>
      <point x="936" y="1067" type="line" smooth="yes"/>
      <point x="927" y="1068"/>
      <point x="920" y="1075"/>
      <point x="919" y="1082" type="qcurve" smooth="yes"/>
      <point x="894" y="1312" type="line" smooth="yes"/>
      <point x="893" y="1325"/>
      <point x="874" y="1327" type="qcurve" smooth="yes"/>
      <point x="801" y="1334"/>
      <point x="712" y="1334" type="qcurve" smooth="yes"/>
      <point x="538" y="1334"/>
      <point x="472" y="1221" type="qcurve" smooth="yes"/>
      <point x="436" y="1160"/>
      <point x="436" y="1100" type="qcurve" smooth="yes"/>
      <point x="436" y="1020"/>
      <point x="583" y="919"/>
      <point x="734" y="862" type="qcurve"/>
      <point x="910" y="792"/>
      <point x="993" y="685" type="qcurve" smooth="yes"/>
      <point x="1061" y="598"/>
      <point x="1061" y="476" type="qcurve" smooth="yes"/>
      <point x="1061" y="449"/>
      <point x="1057" y="419" type="qcurve" smooth="yes"/>
      <point x="1041" y="293"/>
      <point x="900" y="96"/>
      <point x="656" y="-20"/>
    </contour>
  </outline>
</glyph>
<glyph name="T" format="1">
  <advance width="1354"/>
  <unicode hex="0054"/>
  <outline>
    <contour>
      <point x="942" y="-17" type="line"/>
      <point x="851" y="-11"/>
      <point x="740" y="-6"/>
      <point x="651" y="-6" type="qcurve" smooth="yes"/>
      <point x="547" y="-6"/>
      <point x="437" y="-16" type="qcurve"/>
      <point x="415" y="-17" type="line"/>
      <point x="442" y="105" type="line" smooth="yes"/>
      <point x="444" y="117"/>
      <point x="458" y="118" type="qcurve"/>
      <point x="585" y="133" type="line"/>
      <point x="599" y="133"/>
      <point x="601" y="149" type="qcurve" smooth="yes"/>
      <point x="743" y="1310" type="line"/>
      <point x="638" y="1310"/>
      <point x="532" y="1302" type="qcurve"/>
      <point x="455" y="1298" type="line" smooth="yes"/>
      <point x="436" y="1297"/>
      <point x="431" y="1283" type="qcurve" smooth="yes"/>
      <point x="339" y="1000" type="line" smooth="yes"/>
      <point x="335" y="987"/>
      <point x="320" y="985" type="qcurve" smooth="yes"/>
      <point x="219" y="974" type="line"/>
      <point x="277" y="1449" type="line"/>
      <point x="1441" y="1449" type="line"/>
      <point x="1383" y="974" type="line"/>
      <point x="1284" y="985" type="line" smooth="yes"/>
      <point x="1270" y="987"/>
      <point x="1268" y="1000" type="qcurve"/>
      <point x="1246" y="1283" type="line" smooth="yes"/>
      <point x="1245" y="1297"/>
      <point x="1226" y="1298" type="qcurve" smooth="yes"/>
      <point x="1148" y="1302" type="line"/>
      <point x="1045" y="1310"/>
      <point x="940" y="1310" type="qcurve"/>
      <point x="798" y="144" type="line"/>
      <point x="798" y="134"/>
      <point x="810" y="133" type="qcurve" smooth="yes"/>
      <point x="933" y="118" type="line" smooth="yes"/>
      <point x="946" y="117"/>
      <point x="946" y="107" type="qcurve"/>
    </contour>
  </outline>
</glyph>
<glyph name="U" format="1">
  <advance width="1457"/>
  <unicode hex="0055"/>
  <outline>
    <contour>
      <point x="728" y="-23" type="qcurve" smooth="yes"/>
      <point x="573" y="-23"/>
      <point x="353" y="75"/>
      <point x="301" y="190" type="qcurve" smooth="yes"/>
      <point x="262" y="275"/>
      <point x="262" y="404" type="qcurve" smooth="yes"/>
      <point x="262" y="466"/>
      <point x="271" y="526" type="qcurve"/>
      <point x="270" y="526" type="line"/>
      <point x="364" y="1292" type="line"/>
      <point x="364" y="1302"/>
      <point x="351" y="1304" type="qcurve" smooth="yes"/>
      <point x="229" y="1323" type="line"/>
      <point x="216" y="1324"/>
      <point x="216" y="1334" type="qcurve"/>
      <point x="218" y="1449" type="line"/>
      <point x="745" y="1449" type="line"/>
      <point x="719" y="1336" type="line" smooth="yes"/>
      <point x="717" y="1325"/>
      <point x="703" y="1323" type="qcurve" smooth="yes"/>
      <point x="576" y="1304" type="line" smooth="yes"/>
      <point x="563" y="1302"/>
      <point x="561" y="1291" type="qcurve"/>
      <point x="455" y="433" type="line" smooth="yes"/>
      <point x="453" y="413"/>
      <point x="453" y="394" type="qcurve" smooth="yes"/>
      <point x="453" y="272"/>
      <point x="619" y="114"/>
      <point x="755" y="114" type="qcurve" smooth="yes"/>
      <point x="893" y="114"/>
      <point x="1110" y="279"/>
      <point x="1133" y="434" type="qcurve"/>
      <point x="1238" y="1287" type="line"/>
      <point x="1238" y="1295"/>
      <point x="1233" y="1303"/>
      <point x="1225" y="1304" type="qcurve" smooth="yes"/>
      <point x="1103" y="1323" type="line"/>
      <point x="1090" y="1324"/>
      <point x="1090" y="1334" type="qcurve"/>
      <point x="1093" y="1449" type="line"/>
      <point x="1560" y="1449" type="line"/>
      <point x="1534" y="1336" type="line"/>
      <point x="1532" y="1324"/>
      <point x="1517" y="1323" type="qcurve"/>
      <point x="1391" y="1304" type="line" smooth="yes"/>
      <point x="1377" y="1302"/>
      <point x="1375" y="1287" type="qcurve" smooth="yes"/>
      <point x="1278" y="496" type="line" smooth="yes"/>
      <point x="1255" y="314"/>
      <point x="1184" y="200" type="qcurve" smooth="yes"/>
      <point x="1046" y="-23"/>
    </contour>
  </outline>
</glyph>
<glyph name="V" format="1">
  <advance width="1585"/>
  <unicode hex="0056"/>
  <outline>
    <contour>
      <point x="873" y="0" type="line"/>
      <point x="719" y="0" type="line"/>
      <point x="720" y="4" type="line"/>
      <point x="488" y="882" type="line"/>
      <point x="452" y="1013"/>
      <point x="377" y="1292" type="qcurve" smooth="yes"/>
      <point x="374" y="1301"/>
      <point x="366" y="1309"/>
      <point x="358" y="1310" type="qcurve" smooth="yes"/>
      <point x="235" y="1328" type="line" smooth="yes"/>
      <point x="222" y="1330"/>
      <point x="220" y="1342" type="qcurve" smooth="yes"/>
      <point x="204" y="1454" type="line"/>
      <point x="782" y="1454" type="line"/>
      <point x="757" y="1342" type="line" smooth="yes"/>
      <point x="754" y="1329"/>
      <point x="740" y="1328" type="qcurve"/>
      <point x="614" y="1309" type="line" smooth="yes"/>
      <point x="600" y="1307"/>
      <point x="598" y="1297" type="qcurve"/>
      <point x="599" y="1288"/>
      <point x="857" y="274" type="qcurve"/>
      <point x="1369" y="1290" type="line" smooth="yes"/>
      <point x="1371" y="1293"/>
      <point x="1371" y="1297" type="qcurve" smooth="yes"/>
      <point x="1371" y="1307"/>
      <point x="1359" y="1309" type="qcurve" smooth="yes"/>
      <point x="1237" y="1328" type="line"/>
      <point x="1224" y="1329"/>
      <point x="1224" y="1340" type="qcurve"/>
      <point x="1226" y="1454" type="line"/>
      <point x="1754" y="1454" type="line"/>
      <point x="1697" y="1342" type="line" smooth="yes"/>
      <point x="1691" y="1329"/>
      <point x="1677" y="1328" type="qcurve"/>
      <point x="1545" y="1309" type="line" smooth="yes"/>
      <point x="1535" y="1308"/>
      <point x="1530" y="1303" type="qcurve"/>
    </contour>
  </outline>
</glyph>
<glyph name="W" format="1">
  <advance width="1958"/>
  <unicode hex="0057"/>
  <outline>
    <contour>
      <point x="1417" y="0" type="qcurve"/>
      <point x="1277" y="0" type="line"/>
      <point x="1113" y="918" type="line"/>
      <point x="740" y="0" type="line"/>
      <point x="599" y="0" type="line"/>
      <point x="383" y="1204" type="line"/>
      <point x="364" y="1288" type="line" smooth="yes"/>
      <point x="360" y="1303"/>
      <point x="345" y="1305" type="qcurve" smooth="yes"/>
      <point x="223" y="1323" type="line"/>
      <point x="210" y="1324"/>
      <point x="209" y="1337" type="qcurve" smooth="yes"/>
      <point x="197" y="1449" type="line"/>
      <point x="775" y="1449" type="line"/>
      <point x="745" y="1337" type="line"/>
      <point x="743" y="1324"/>
      <point x="728" y="1323" type="qcurve"/>
      <point x="601" y="1304" type="line"/>
      <point x="587" y="1303"/>
      <point x="586" y="1292" type="qcurve"/>
      <point x="591" y="1247"/>
      <point x="729" y="317" type="qcurve"/>
      <point x="1069" y="1157" type="line"/>
      <point x="1060" y="1211"/>
      <point x="1052" y="1243" type="qcurve" smooth="yes"/>
      <point x="1042" y="1288" type="line" smooth="yes"/>
      <point x="1038" y="1303"/>
      <point x="1023" y="1305" type="qcurve"/>
      <point x="936" y="1323" type="line"/>
      <point x="923" y="1324"/>
      <point x="922" y="1337" type="qcurve" smooth="yes"/>
      <point x="910" y="1449" type="line"/>
      <point x="1453" y="1449" type="line"/>
      <point x="1423" y="1337" type="line"/>
      <point x="1421" y="1324"/>
      <point x="1406" y="1323" type="qcurve"/>
      <point x="1279" y="1304" type="line"/>
      <point x="1265" y="1303"/>
      <point x="1264" y="1292" type="qcurve"/>
      <point x="1269" y="1245"/>
      <point x="1406" y="323" type="qcurve"/>
      <point x="1749" y="1190" type="line"/>
      <point x="1786" y="1289"/>
      <point x="1786" y="1291" type="qcurve"/>
      <point x="1786" y="1302"/>
      <point x="1773" y="1304" type="qcurve" smooth="yes"/>
      <point x="1648" y="1323" type="line"/>
      <point x="1635" y="1324"/>
      <point x="1635" y="1337" type="qcurve"/>
      <point x="1626" y="1449" type="line"/>
      <point x="2155" y="1449" type="line"/>
      <point x="2109" y="1337" type="line"/>
      <point x="2103" y="1325"/>
      <point x="2090" y="1323" type="qcurve" smooth="yes"/>
      <point x="1960" y="1304" type="line"/>
      <point x="1945" y="1303"/>
      <point x="1935" y="1275"/>
    </contour>
  </outline>
</glyph>
<glyph name="X" format="1">
  <advance width="1386"/>
  <unicode hex="0058"/>
  <outline>
    <contour>
      <point x="1384" y="-17" type="line"/>
      <point x="1232" y="-5"/>
      <point x="1097" y="-5" type="qcurve" smooth="yes"/>
      <point x="964" y="-5"/>
      <point x="809" y="-17" type="qcurve"/>
      <point x="834" y="105" type="line" smooth="yes"/>
      <point x="836" y="117"/>
      <point x="850" y="118" type="qcurve" smooth="yes"/>
      <point x="976" y="132" type="line" smooth="yes"/>
      <point x="983" y="133"/>
      <point x="993" y="142"/>
      <point x="993" y="149" type="qcurve"/>
      <point x="993" y="151"/>
      <point x="732" y="644" type="qcurve"/>
      <point x="344" y="154" type="line"/>
      <point x="342" y="150"/>
      <point x="342" y="147" type="qcurve" smooth="yes"/>
      <point x="342" y="142"/>
      <point x="348" y="133"/>
      <point x="354" y="132" type="qcurve" smooth="yes"/>
      <point x="476" y="118" type="line" smooth="yes"/>
      <point x="490" y="117"/>
      <point x="490" y="106" type="qcurve"/>
      <point x="488" y="-17" type="line"/>
      <point x="361" y="-8"/>
      <point x="244" y="-6" type="qcurve"/>
      <point x="128" y="-8"/>
      <point x="-2" y="-17" type="qcurve"/>
      <point x="24" y="105" type="line"/>
      <point x="25" y="117"/>
      <point x="39" y="118" type="qcurve"/>
      <point x="159" y="132" type="line" smooth="yes"/>
      <point x="174" y="134"/>
      <point x="185" y="148" type="qcurve" smooth="yes"/>
      <point x="670" y="759" type="line"/>
      <point x="400" y="1266" type="line"/>
      <point x="385" y="1292"/>
      <point x="373" y="1304"/>
      <point x="361" y="1305" type="qcurve"/>
      <point x="243" y="1323" type="line"/>
      <point x="230" y="1324"/>
      <point x="229" y="1337" type="qcurve"/>
      <point x="211" y="1449" type="line"/>
      <point x="804" y="1449" type="line"/>
      <point x="779" y="1337" type="line"/>
      <point x="778" y="1324"/>
      <point x="763" y="1323" type="qcurve"/>
      <point x="633" y="1303" type="line" smooth="yes"/>
      <point x="620" y="1301"/>
      <point x="620" y="1290" type="qcurve"/>
      <point x="621" y="1286" type="line"/>
      <point x="628" y="1274"/>
      <point x="632" y="1267"/>
      <point x="635" y="1263"/>
      <point x="641" y="1247" type="qcurve"/>
      <point x="830" y="895" type="line"/>
      <point x="1135" y="1267"/>
      <point x="1140" y="1271"/>
      <point x="1141" y="1273"/>
      <point x="1142" y="1275"/>
      <point x="1150" y="1286"/>
      <point x="1150" y="1293" type="qcurve" smooth="yes"/>
      <point x="1150" y="1302"/>
      <point x="1139" y="1304" type="qcurve" smooth="yes"/>
      <point x="1015" y="1323" type="line"/>
      <point x="1002" y="1324"/>
      <point x="1002" y="1335" type="qcurve"/>
      <point x="1003" y="1449" type="line"/>
      <point x="1537" y="1449" type="line"/>
      <point x="1479" y="1337" type="line"/>
      <point x="1474" y="1324"/>
      <point x="1459" y="1323" type="qcurve"/>
      <point x="1335" y="1305" type="line" smooth="yes"/>
      <point x="1321" y="1303"/>
      <point x="1310" y="1292" type="qcurve"/>
      <point x="891" y="782" type="line"/>
      <point x="1226" y="158" type="line" smooth="yes"/>
      <point x="1229" y="153"/>
      <point x="1234" y="143"/>
      <point x="1242" y="134"/>
      <point x="1252" y="132" type="qcurve"/>
      <point x="1372" y="118" type="line"/>
      <point x="1386" y="117"/>
      <point x="1386" y="106" type="qcurve"/>
    </contour>
  </outline>
</glyph>
<glyph name="Y" format="1">
  <advance width="1453"/>
  <unicode hex="0059"/>
  <outline>
    <contour>
      <point x="1029" y="-17" type="line"/>
      <point x="893" y="-6"/>
      <point x="773" y="-5" type="qcurve"/>
      <point x="653" y="-6"/>
      <point x="514" y="-17" type="qcurve"/>
      <point x="540" y="105" type="line"/>
      <point x="542" y="118"/>
      <point x="557" y="119" type="qcurve"/>
      <point x="682" y="133" type="line"/>
      <point x="698" y="134"/>
      <point x="699" y="149" type="qcurve"/>
      <point x="737" y="456" type="line"/>
      <point x="504" y="1051" type="line"/>
      <point x="407" y="1295"/>
      <point x="396" y="1303"/>
      <point x="388" y="1304" type="qcurve" smooth="yes"/>
      <point x="263" y="1323" type="line"/>
      <point x="249" y="1324"/>
      <point x="246" y="1337" type="qcurve" smooth="yes"/>
      <point x="214" y="1449" type="line"/>
      <point x="793" y="1449" type="line"/>
      <point x="782" y="1334" type="line" smooth="yes"/>
      <point x="781" y="1324"/>
      <point x="768" y="1323" type="qcurve"/>
      <point x="644" y="1304" type="line" smooth="yes"/>
      <point x="631" y="1302"/>
      <point x="631" y="1289" type="qcurve"/>
      <point x="871" y="681" type="line"/>
      <point x="1206" y="1265" type="line"/>
      <point x="1216" y="1284"/>
      <point x="1216" y="1294" type="qcurve" smooth="yes"/>
      <point x="1216" y="1303"/>
      <point x="1208" y="1304" type="qcurve" smooth="yes"/>
      <point x="1088" y="1323" type="line" smooth="yes"/>
      <point x="1081" y="1324"/>
      <point x="1076" y="1330"/>
      <point x="1076" y="1337" type="qcurve"/>
      <point x="1089" y="1449" type="line"/>
      <point x="1618" y="1449" type="line"/>
      <point x="1551" y="1337" type="line" smooth="yes"/>
      <point x="1544" y="1325"/>
      <point x="1529" y="1323" type="qcurve" smooth="yes"/>
      <point x="1395" y="1304" type="line" smooth="yes"/>
      <point x="1386" y="1303"/>
      <point x="1375" y="1291"/>
      <point x="930" y="517" type="qcurve"/>
      <point x="885" y="144" type="line"/>
      <point x="885" y="134"/>
      <point x="897" y="133" type="qcurve" smooth="yes"/>
      <point x="1020" y="119" type="line" smooth="yes"/>
      <point x="1033" y="118"/>
      <point x="1033" y="107" type="qcurve"/>
    </contour>
  </outline>
</glyph>
<glyph name="Z" format="1">
  <advance width="1147"/>
  <unicode hex="005A"/>
  <outline>
    <contour>
      <point x="1096" y="0" type="line"/>
      <point x="27" y="0" type="line"/>
      <point x="40" y="120" type="line"/>
      <point x="964" y="1307" type="line"/>
      <point x="782" y="1307" type="line" smooth="yes"/>
      <point x="688" y="1307"/>
      <point x="532" y="1297" type="qcurve" smooth="yes"/>
      <point x="441" y="1292" type="line" smooth="yes"/>
      <point x="423" y="1291"/>
      <point x="417" y="1276" type="qcurve" smooth="yes"/>
      <point x="346" y="1089" type="line" smooth="yes"/>
      <point x="340" y="1075"/>
      <point x="327" y="1074" type="qcurve"/>
      <point x="226" y="1061" type="line"/>
      <point x="274" y="1452" type="line"/>
      <point x="1253" y="1452" type="line"/>
      <point x="1241" y="1348" type="line"/>
      <point x="314" y="150" type="line"/>
      <point x="562" y="150" type="line"/>
      <point x="882" y="156" type="line"/>
      <point x="902" y="157"/>
      <point x="907" y="173" type="qcurve"/>
      <point x="1016" y="433" type="line" smooth="yes"/>
      <point x="1021" y="446"/>
      <point x="1038" y="449" type="qcurve"/>
      <point x="1153" y="463" type="line"/>
    </contour>
  </outline>
</glyph>
<glyph name="bracketleft" format="1">
  <advance width="618"/>
  <unicode hex="005B"/>
  <outline>
    <contour>
      <point x="427" y="-335" type="line"/>
      <point x="59" y="-335" type="line"/>
      <point x="307" y="1690" type="line"/>
      <point x="676" y="1690" type="line"/>
      <point x="657" y="1604" type="line" smooth="yes"/>
      <point x="654" y="1591"/>
      <point x="640" y="1590" type="qcurve" smooth="yes"/>
      <point x="472" y="1576" type="line" smooth="yes"/>
      <point x="464" y="1575"/>
      <point x="456" y="1567"/>
      <point x="348" y="677" type="qcurve"/>
      <point x="239" y="-210" type="line"/>
      <point x="239" y="-220"/>
      <point x="251" y="-221" type="qcurve" smooth="yes"/>
      <point x="416" y="-235" type="line" smooth="yes"/>
      <point x="429" y="-236"/>
      <point x="429" y="-247" type="qcurve"/>
    </contour>
  </outline>
</glyph>
<glyph name="bracketright" format="1">
  <advance width="658"/>
  <unicode hex="005D"/>
  <outline>
    <contour>
      <point x="417" y="-335" type="line"/>
      <point x="49" y="-335" type="line"/>
      <point x="68" y="-249" type="line"/>
      <point x="70" y="-236"/>
      <point x="84" y="-235" type="qcurve" smooth="yes"/>
      <point x="253" y="-221" type="line" smooth="yes"/>
      <point x="261" y="-220"/>
      <point x="268" y="-213"/>
      <point x="269" y="-205" type="qcurve" smooth="yes"/>
      <point x="486" y="1563" type="line"/>
      <point x="486" y="1575"/>
      <point x="473" y="1576" type="qcurve" smooth="yes"/>
      <point x="308" y="1590" type="line" smooth="yes"/>
      <point x="295" y="1591"/>
      <point x="295" y="1604" type="qcurve"/>
      <point x="297" y="1690" type="line"/>
      <point x="666" y="1690" type="line"/>
    </contour>
  </outline>
</glyph>
<glyph name="underscore" format="1">
  <advance width="1024"/>
  <unicode hex="005F"/>
  <outline>
    <contour>
      <point x="-12" y="-100" type="line"/>
      <point x="1012" y="-100" type="line"/>
      <point x="999" y="-200" type="line"/>
      <point x="-25" y="-200" type="line"/>
    </contour>
  </outline>
</glyph>
<glyph name="grave" format="1">
  <advance width="1024"/>
  <unicode hex="0060"/>
  <outline>
    <contour>
      <point x="701" y="1245" type="qcurve" smooth="yes"/>
      <point x="689" y="1245"/>
      <point x="679" y="1256" type="qcurve"/>
      <point x="426" y="1493" type="line"/>
      <point x="640" y="1571"/>
      <point x="645" y="1571" type="qcurve" smooth="yes"/>
      <point x="656" y="1571"/>
      <point x="662" y="1558" type="qcurve"/>
      <point x="814" y="1284" type="line"/>
      <point x="719" y="1249" type="line" smooth="yes"/>
      <point x="709" y="1245"/>
    </contour>
  </outline>
</glyph>
<glyph name="b" format="1">
  <advance width="1249"/>
  <unicode hex="0062"/>
  <outline>
    <contour>
      <point x="734" y="-20" type="qcurve" smooth="yes"/>
      <point x="644" y="-20"/>
      <point x="512" y="46"/>
      <point x="438" y="157"/>
      <point x="433" y="227" type="qcurve"/>
      <point x="418" y="227" type="line"/>
      <point x="390" y="1" type="line"/>
      <point x="318" y="1" type="line" smooth="yes"/>
      <point x="192" y="1"/>
      <point x="62" y="-10" type="qcurve"/>
      <point x="87" y="103" type="line" smooth="yes"/>
      <point x="89" y="114"/>
      <point x="102" y="115" type="qcurve" smooth="yes"/>
      <point x="218" y="128" type="line" smooth="yes"/>
      <point x="232" y="129"/>
      <point x="233" y="143" type="qcurve"/>
      <point x="389" y="1412" type="line"/>
      <point x="389" y="1423"/>
      <point x="376" y="1424" type="qcurve"/>
      <point x="269" y="1438" type="line"/>
      <point x="256" y="1439"/>
      <point x="256" y="1450" type="qcurve"/>
      <point x="258" y="1538" type="line"/>
      <point x="579" y="1538" type="line"/>
      <point x="496" y="868" type="line"/>
      <point x="511" y="868" type="line"/>
      <point x="540" y="932"/>
      <point x="639" y="1034"/>
      <point x="778" y="1093"/>
      <point x="865" y="1093" type="qcurve" smooth="yes"/>
      <point x="998" y="1093"/>
      <point x="1180" y="973"/>
      <point x="1218" y="849" type="qcurve"/>
      <point x="1243" y="771"/>
      <point x="1243" y="666" type="qcurve" smooth="yes"/>
      <point x="1243" y="604"/>
      <point x="1234" y="532" type="qcurve" smooth="yes"/>
      <point x="1213" y="366"/>
      <point x="1090" y="119"/>
      <point x="881" y="-20"/>
    </contour>
    <contour>
      <point x="705" y="115" type="qcurve" smooth="yes"/>
      <point x="851" y="115"/>
      <point x="1010" y="321"/>
      <point x="1035" y="533" type="qcurve" smooth="yes"/>
      <point x="1044" y="603"/>
      <point x="1044" y="661" type="qcurve" smooth="yes"/>
      <point x="1044" y="776"/>
      <point x="956" y="956"/>
      <point x="805" y="956" type="qcurve" smooth="yes"/>
      <point x="671" y="956"/>
      <point x="499" y="736"/>
      <point x="473" y="533" type="qcurve" smooth="yes"/>
      <point x="467" y="481"/>
      <point x="467" y="435" type="qcurve" smooth="yes"/>
      <point x="467" y="308"/>
      <point x="575" y="115"/>
    </contour>
  </outline>
</glyph>
<glyph name="c" format="1">
  <advance width="1056"/>
  <unicode hex="0063"/>
  <outline>
    <contour>
      <point x="580" y="-20" type="qcurve" smooth="yes"/>
      <point x="337" y="-20"/>
      <point x="224" y="116" type="qcurve" smooth="yes"/>
      <point x="138" y="219"/>
      <point x="138" y="411" type="qcurve" smooth="yes"/>
      <point x="138" y="470"/>
      <point x="146" y="538" type="qcurve" smooth="yes"/>
      <point x="214" y="1088"/>
      <point x="711" y="1088" type="qcurve" smooth="yes"/>
      <point x="824" y="1088"/>
      <point x="1018" y="1022"/>
      <point x="1050" y="960" type="qcurve"/>
      <point x="1050" y="951" type="line"/>
      <point x="1020" y="707" type="line"/>
      <point x="916" y="726" type="line" smooth="yes"/>
      <point x="908" y="728"/>
      <point x="903" y="734"/>
      <point x="901" y="740" type="qcurve"/>
      <point x="869" y="890" type="line" smooth="yes"/>
      <point x="867" y="901"/>
      <point x="853" y="915" type="qcurve"/>
      <point x="852" y="915"/>
      <point x="849" y="917"/>
      <point x="848" y="918" type="qcurve" smooth="yes"/>
      <point x="785" y="959"/>
      <point x="695" y="959" type="qcurve" smooth="yes"/>
      <point x="553" y="959"/>
      <point x="368" y="751"/>
      <point x="340" y="538" type="qcurve"/>
      <point x="334" y="483"/>
      <point x="334" y="436" type="qcurve" smooth="yes"/>
      <point x="334" y="296"/>
      <point x="457" y="104"/>
      <point x="606" y="104" type="qcurve" smooth="yes"/>
      <point x="762" y="104"/>
      <point x="851" y="216" type="qcurve" smooth="yes"/>
      <point x="911" y="291"/>
      <point x="933" y="382" type="qcurve"/>
      <point x="1019" y="360" type="line"/>
      <point x="992" y="248"/>
      <point x="870" y="77"/>
      <point x="690" y="-20"/>
    </contour>
  </outline>
</glyph>
<glyph name="d" format="1">
  <advance width="1240"/>
  <unicode hex="0064"/>
  <outline>
    <contour>
      <point x="509" y="-20" type="qcurve" smooth="yes"/>
      <point x="362" y="-20"/>
      <point x="275" y="50" type="qcurve" smooth="yes"/>
      <point x="137" y="159"/>
      <point x="137" y="407" type="qcurve" smooth="yes"/>
      <point x="137" y="466"/>
      <point x="145" y="532" type="qcurve" smooth="yes"/>
      <point x="169" y="725"/>
      <point x="307" y="973"/>
      <point x="518" y="1093"/>
      <point x="651" y="1093" type="qcurve" smooth="yes"/>
      <point x="819" y="1093"/>
      <point x="900" y="983" type="qcurve" smooth="yes"/>
      <point x="937" y="932"/>
      <point x="950" y="868" type="qcurve"/>
      <point x="964" y="868" type="line"/>
      <point x="1032" y="1412" type="line"/>
      <point x="1032" y="1423"/>
      <point x="1019" y="1424" type="qcurve"/>
      <point x="911" y="1438" type="line"/>
      <point x="898" y="1439"/>
      <point x="898" y="1450" type="qcurve"/>
      <point x="900" y="1538" type="line"/>
      <point x="1221" y="1538" type="line"/>
      <point x="1048" y="131" type="line"/>
      <point x="1051" y="129"/>
      <point x="1056" y="128" type="qcurve" smooth="yes"/>
      <point x="1169" y="115" type="line" smooth="yes"/>
      <point x="1181" y="114"/>
      <point x="1181" y="103" type="qcurve"/>
      <point x="1178" y="-10" type="line"/>
      <point x="1051" y="1"/>
      <point x="925" y="1" type="qcurve" smooth="yes"/>
      <point x="858" y="1" type="line"/>
      <point x="886" y="227" type="line"/>
      <point x="870" y="227" type="line"/>
      <point x="836" y="121"/>
      <point x="644" y="-20"/>
    </contour>
    <contour>
      <point x="571" y="115" type="qcurve" smooth="yes"/>
      <point x="701" y="115"/>
      <point x="880" y="338"/>
      <point x="905" y="533" type="qcurve" smooth="yes"/>
      <point x="912" y="593"/>
      <point x="912" y="646" type="qcurve" smooth="yes"/>
      <point x="912" y="769"/>
      <point x="812" y="956"/>
      <point x="678" y="956" type="qcurve" smooth="yes"/>
      <point x="526" y="956"/>
      <point x="368" y="740"/>
      <point x="344" y="533" type="qcurve"/>
      <point x="335" y="462"/>
      <point x="335" y="404" type="qcurve" smooth="yes"/>
      <point x="335" y="287"/>
      <point x="425" y="115"/>
    </contour>
  </outline>
</glyph>
<glyph name="e" format="1">
  <advance width="1094"/>
  <unicode hex="0065"/>
  <outline>
    <contour>
      <point x="592" y="-20" type="qcurve" smooth="yes"/>
      <point x="258" y="-20"/>
      <point x="168" y="223" type="qcurve" smooth="yes"/>
      <point x="137" y="305"/>
      <point x="137" y="418" type="qcurve" smooth="yes"/>
      <point x="137" y="474"/>
      <point x="145" y="538" type="qcurve" smooth="yes"/>
      <point x="174" y="791"/>
      <point x="441" y="1085"/>
      <point x="699" y="1088" type="qcurve"/>
      <point x="1020" y="1084"/>
      <point x="1073" y="803" type="qcurve" smooth="yes"/>
      <point x="1086" y="733"/>
      <point x="1086" y="656" type="qcurve" smooth="yes"/>
      <point x="1086" y="592"/>
      <point x="1077" y="523" type="qcurve"/>
      <point x="338" y="523" type="line"/>
      <point x="333" y="476"/>
      <point x="333" y="434" type="qcurve" smooth="yes"/>
      <point x="333" y="293"/>
      <point x="459" y="104"/>
      <point x="606" y="104" type="qcurve" smooth="yes"/>
      <point x="717" y="104"/>
      <point x="855" y="174"/>
      <point x="932" y="273"/>
      <point x="949" y="319" type="qcurve"/>
      <point x="1045" y="319" type="line"/>
      <point x="1014" y="218"/>
      <point x="890" y="66"/>
      <point x="709" y="-20"/>
    </contour>
    <contour>
      <point x="891" y="629" type="line"/>
      <point x="893" y="659"/>
      <point x="893" y="688" type="qcurve" smooth="yes"/>
      <point x="893" y="737"/>
      <point x="877" y="859"/>
      <point x="778" y="957"/>
      <point x="662" y="958" type="qcurve"/>
      <point x="561" y="955"/>
      <point x="440" y="856"/>
      <point x="376" y="708"/>
      <point x="359" y="629" type="qcurve"/>
    </contour>
  </outline>
</glyph>
<glyph name="f" format="1">
  <advance width="783"/>
  <unicode hex="0066"/>
  <outline>
    <contour>
      <point x="567" y="-16" type="line"/>
      <point x="449" y="-5"/>
      <point x="317" y="-5" type="qcurve" smooth="yes"/>
      <point x="199" y="-5"/>
      <point x="74" y="-16" type="qcurve"/>
      <point x="99" y="96" type="line"/>
      <point x="101" y="108"/>
      <point x="113" y="109" type="qcurve" smooth="yes"/>
      <point x="230" y="122" type="line" smooth="yes"/>
      <point x="243" y="124"/>
      <point x="245" y="137" type="qcurve" smooth="yes"/>
      <point x="344" y="944" type="line"/>
      <point x="193" y="944" type="line"/>
      <point x="207" y="1061" type="line"/>
      <point x="358" y="1061" type="line"/>
      <point x="385" y="1279" type="line"/>
      <point x="415" y="1571"/>
      <point x="708" y="1571" type="qcurve" smooth="yes"/>
      <point x="716" y="1571" type="line" smooth="yes"/>
      <point x="761" y="1571"/>
      <point x="865" y="1548"/>
      <point x="899" y="1525" type="qcurve"/>
      <point x="828" y="1391" type="line"/>
      <point x="816" y="1398"/>
      <point x="806" y="1405" type="qcurve" smooth="yes"/>
      <point x="787" y="1418"/>
      <point x="744" y="1437"/>
      <point x="709" y="1437" type="qcurve"/>
      <point x="598" y="1431"/>
      <point x="577" y="1300" type="qcurve"/>
      <point x="547" y="1061" type="line"/>
      <point x="752" y="1061" type="line"/>
      <point x="738" y="944" type="line"/>
      <point x="533" y="944" type="line"/>
      <point x="434" y="135" type="line"/>
      <point x="434" y="123"/>
      <point x="445" y="122" type="qcurve" smooth="yes"/>
      <point x="558" y="109" type="line" smooth="yes"/>
      <point x="570" y="108"/>
      <point x="570" y="98" type="qcurve"/>
    </contour>
  </outline>
</glyph>
<glyph name="g" format="1">
  <advance width="1083"/>
  <unicode hex="0067"/>
  <outline>
    <contour>
      <point x="420" y="-486" type="qcurve" smooth="yes"/>
      <point x="216" y="-486"/>
      <point x="103" y="-412" type="qcurve"/>
      <point x="1" y="-347"/>
      <point x="1" y="-234" type="qcurve" smooth="yes"/>
      <point x="1" y="-220"/>
      <point x="3" y="-205" type="qcurve" smooth="yes"/>
      <point x="16" y="-124"/>
      <point x="114" y="-7"/>
      <point x="168" y="25" type="qcurve"/>
      <point x="114" y="32"/>
      <point x="81" y="71" type="qcurve" smooth="yes"/>
      <point x="55" y="102"/>
      <point x="55" y="149" type="qcurve" smooth="yes"/>
      <point x="55" y="160"/>
      <point x="57" y="173" type="qcurve" smooth="yes"/>
      <point x="71" y="244"/>
      <point x="201" y="383"/>
      <point x="267" y="425" type="qcurve"/>
      <point x="213" y="471"/>
      <point x="187" y="544" type="qcurve" smooth="yes"/>
      <point x="168" y="595"/>
      <point x="168" y="659" type="qcurve" smooth="yes"/>
      <point x="168" y="688"/>
      <point x="172" y="719" type="qcurve" smooth="yes"/>
      <point x="198" y="909"/>
      <point x="443" y="1090"/>
      <point x="633" y="1090" type="qcurve" smooth="yes"/>
      <point x="1108" y="1090" type="line"/>
      <point x="1091" y="1014" type="line" smooth="yes"/>
      <point x="1089" y="1006"/>
      <point x="1080" y="1005" type="qcurve" smooth="yes"/>
      <point x="958" y="991" type="line"/>
      <point x="899" y="1015" type="line"/>
      <point x="892" y="1004" type="line"/>
      <point x="912" y="997"/>
      <point x="934" y="983" type="qcurve"/>
      <point x="950" y="971"/>
      <point x="965" y="945" type="qcurve" smooth="yes"/>
      <point x="1011" y="866"/>
      <point x="1011" y="770" type="qcurve" smooth="yes"/>
      <point x="1011" y="746"/>
      <point x="1008" y="719" type="qcurve" smooth="yes"/>
      <point x="992" y="590"/>
      <point x="867" y="425"/>
      <point x="668" y="345"/>
      <point x="542" y="345" type="qcurve" smooth="yes"/>
      <point x="476" y="345"/>
      <point x="388" y="358"/>
      <point x="349" y="376" type="qcurve"/>
      <point x="304" y="352"/>
      <point x="222" y="275"/>
      <point x="214" y="229" type="qcurve"/>
      <point x="213" y="219" type="line"/>
      <point x="213" y="194"/>
      <point x="253" y="165"/>
      <point x="290" y="165" type="qcurve" smooth="yes"/>
      <point x="693" y="165" type="line" smooth="yes"/>
      <point x="1040" y="165"/>
      <point x="1040" y="-71" type="qcurve" smooth="yes"/>
      <point x="1040" y="-93"/>
      <point x="1037" y="-119" type="qcurve" smooth="yes"/>
      <point x="1025" y="-207"/>
      <point x="866" y="-374"/>
      <point x="595" y="-486"/>
    </contour>
    <contour>
      <point x="553" y="433" type="qcurve" smooth="yes"/>
      <point x="660" y="433"/>
      <point x="792" y="578"/>
      <point x="809" y="719" type="qcurve" smooth="yes"/>
      <point x="813" y="754"/>
      <point x="813" y="785" type="qcurve" smooth="yes"/>
      <point x="813" y="880"/>
      <point x="723" y="1002"/>
      <point x="623" y="1002" type="qcurve" smooth="yes"/>
      <point x="520" y="1002"/>
      <point x="386" y="863"/>
      <point x="368" y="719" type="qcurve" smooth="yes"/>
      <point x="363" y="681"/>
      <point x="363" y="648" type="qcurve" smooth="yes"/>
      <point x="363" y="557"/>
      <point x="445" y="433"/>
    </contour>
    <contour>
      <point x="473" y="-366" type="qcurve" smooth="yes"/>
      <point x="595" y="-366"/>
      <point x="783" y="-309"/>
      <point x="839" y="-264" type="qcurve" smooth="yes"/>
      <point x="902" y="-214"/>
      <point x="902" y="-151" type="qcurve" smooth="yes"/>
      <point x="902" y="-105"/>
      <point x="841" y="-40"/>
      <point x="737" y="-9"/>
      <point x="691" y="-9" type="qcurve" smooth="yes"/>
      <point x="294" y="-9" type="line"/>
      <point x="283" y="-16" type="line"/>
      <point x="174" y="-69"/>
      <point x="154" y="-179" type="qcurve"/>
      <point x="153" y="-195" type="line"/>
      <point x="153" y="-250"/>
      <point x="234" y="-328"/>
      <point x="385" y="-366"/>
    </contour>
  </outline>
</glyph>
<glyph name="h" format="1">
  <advance width="1338"/>
  <unicode hex="0068"/>
  <outline>
    <contour>
      <point x="1275" y="-16" type="line"/>
      <point x="1148" y="-7"/>
      <point x="1037" y="-6" type="qcurve"/>
      <point x="926" y="-7"/>
      <point x="796" y="-16" type="qcurve"/>
      <point x="821" y="96" type="line"/>
      <point x="823" y="108"/>
      <point x="836" y="108" type="qcurve"/>
      <point x="952" y="122" type="line"/>
      <point x="966" y="123"/>
      <point x="967" y="137" type="qcurve"/>
      <point x="1042" y="748"/>
      <point x="1042" y="763" type="qcurve" smooth="yes"/>
      <point x="1042" y="829"/>
      <point x="957" y="927"/>
      <point x="846" y="927" type="qcurve" smooth="yes"/>
      <point x="773" y="927"/>
      <point x="648" y="875"/>
      <point x="600" y="832" type="qcurve"/>
      <point x="499" y="745"/>
      <point x="480" y="606" type="qcurve"/>
      <point x="422" y="134" type="line"/>
      <point x="422" y="123"/>
      <point x="434" y="122" type="qcurve" smooth="yes"/>
      <point x="547" y="108" type="line"/>
      <point x="559" y="108"/>
      <point x="559" y="98" type="qcurve"/>
      <point x="556" y="-16" type="line"/>
      <point x="429" y="-7"/>
      <point x="318" y="-6" type="qcurve"/>
      <point x="206" y="-7"/>
      <point x="77" y="-16" type="qcurve"/>
      <point x="102" y="96" type="line"/>
      <point x="104" y="108"/>
      <point x="117" y="108" type="qcurve"/>
      <point x="233" y="122" type="line"/>
      <point x="247" y="123"/>
      <point x="248" y="137" type="qcurve"/>
      <point x="404" y="1407" type="line"/>
      <point x="404" y="1417"/>
      <point x="391" y="1418" type="qcurve"/>
      <point x="284" y="1432" type="line"/>
      <point x="271" y="1433"/>
      <point x="271" y="1444" type="qcurve"/>
      <point x="273" y="1532" type="line"/>
      <point x="594" y="1532" type="line"/>
      <point x="511" y="862" type="line"/>
      <point x="526" y="862" type="line"/>
      <point x="545" y="915"/>
      <point x="644" y="1018"/>
      <point x="796" y="1088"/>
      <point x="894" y="1088" type="qcurve" smooth="yes"/>
      <point x="1083" y="1088"/>
      <point x="1160" y="1003" type="qcurve" smooth="yes"/>
      <point x="1221" y="937"/>
      <point x="1221" y="815" type="qcurve" smooth="yes"/>
      <point x="1221" y="781"/>
      <point x="1216" y="742" type="qcurve" smooth="yes"/>
      <point x="1141" y="133" type="line"/>
      <point x="1141" y="123"/>
      <point x="1153" y="122" type="qcurve" smooth="yes"/>
      <point x="1266" y="108" type="line"/>
      <point x="1278" y="108"/>
      <point x="1278" y="98" type="qcurve"/>
    </contour>
  </outline>
</glyph>
<glyph name="i" format="1">
  <advance width="613"/>
  <unicode hex="0069"/>
  <outline>
    <contour>
      <point x="555" y="-17" type="line"/>
      <point x="428" y="-8"/>
      <point x="317" y="-7" type="qcurve"/>
      <point x="206" y="-8"/>
      <point x="77" y="-17" type="qcurve"/>
      <point x="101" y="95" type="line" smooth="yes"/>
      <point x="103" y="107"/>
      <point x="116" y="107" type="qcurve"/>
      <point x="233" y="121" type="line"/>
      <point x="247" y="122"/>
      <point x="248" y="136" type="qcurve"/>
      <point x="346" y="934" type="line"/>
      <point x="346" y="944"/>
      <point x="333" y="946" type="qcurve" smooth="yes"/>
      <point x="225" y="960" type="line"/>
      <point x="212" y="961"/>
      <point x="212" y="971" type="qcurve"/>
      <point x="214" y="1059" type="line"/>
      <point x="535" y="1059" type="line"/>
      <point x="422" y="131" type="line"/>
      <point x="422" y="122"/>
      <point x="433" y="121" type="qcurve" smooth="yes"/>
      <point x="546" y="107" type="line"/>
      <point x="558" y="107"/>
      <point x="558" y="97" type="qcurve"/>
    </contour>
    <contour>
      <point x="461" y="1272" type="qcurve" smooth="yes"/>
      <point x="362" y="1272"/>
      <point x="362" y="1373" type="qcurve" smooth="yes"/>
      <point x="362" y="1389"/>
      <point x="364" y="1406" type="qcurve" smooth="yes"/>
      <point x="378" y="1531"/>
      <point x="492" y="1531" type="qcurve" smooth="yes"/>
      <point x="593" y="1531"/>
      <point x="593" y="1432" type="qcurve"/>
      <point x="592" y="1406" type="line"/>
      <point x="574" y="1272"/>
    </contour>
  </outline>
</glyph>
<glyph name="j" format="1">
  <advance width="640"/>
  <unicode hex="006A"/>
  <outline>
    <contour>
      <point x="495" y="1275" type="qcurve" smooth="yes"/>
      <point x="399" y="1275"/>
      <point x="399" y="1373" type="qcurve" smooth="yes"/>
      <point x="399" y="1388"/>
      <point x="401" y="1405" type="qcurve" smooth="yes"/>
      <point x="415" y="1527"/>
      <point x="526" y="1527" type="qcurve" smooth="yes"/>
      <point x="625" y="1527"/>
      <point x="625" y="1431" type="qcurve"/>
      <point x="623" y="1405" type="line"/>
      <point x="605" y="1275"/>
    </contour>
    <contour>
      <point x="-80" y="-405" type="qcurve"/>
      <point x="-64" y="-280" type="line"/>
      <point x="105" y="-280"/>
      <point x="256" y="-88"/>
      <point x="271" y="113" type="qcurve"/>
      <point x="372" y="937" type="line"/>
      <point x="372" y="947"/>
      <point x="359" y="948" type="qcurve"/>
      <point x="255" y="962" type="line"/>
      <point x="242" y="963"/>
      <point x="242" y="973" type="qcurve"/>
      <point x="244" y="1059" type="line"/>
      <point x="566" y="1059" type="line"/>
      <point x="553" y="947"/>
      <point x="469" y="263" type="qcurve"/>
      <point x="447" y="90" type="line"/>
      <point x="392" y="-397"/>
    </contour>
  </outline>
</glyph>
<glyph name="k" format="1">
  <advance width="1169"/>
  <unicode hex="006B"/>
  <outline>
    <contour>
      <point x="1130" y="-16" type="line"/>
      <point x="956" y="-5"/>
      <point x="860" y="-5" type="qcurve"/>
      <point x="547" y="527" type="line"/>
      <point x="444" y="432" type="line"/>
      <point x="407" y="132" type="line"/>
      <point x="407" y="123"/>
      <point x="418" y="122" type="qcurve" smooth="yes"/>
      <point x="531" y="109" type="line" smooth="yes"/>
      <point x="544" y="108"/>
      <point x="544" y="96" type="qcurve"/>
      <point x="540" y="-16" type="line"/>
      <point x="416" y="-5"/>
      <point x="302" y="-5" type="qcurve"/>
      <point x="191" y="-7"/>
      <point x="62" y="-16" type="qcurve"/>
      <point x="87" y="96" type="line"/>
      <point x="89" y="108"/>
      <point x="101" y="109" type="qcurve" smooth="yes"/>
      <point x="218" y="122" type="line" smooth="yes"/>
      <point x="231" y="124"/>
      <point x="233" y="137" type="qcurve" smooth="yes"/>
      <point x="389" y="1407" type="line"/>
      <point x="389" y="1417"/>
      <point x="376" y="1418" type="qcurve"/>
      <point x="269" y="1432" type="line"/>
      <point x="256" y="1433"/>
      <point x="256" y="1444" type="qcurve"/>
      <point x="258" y="1532" type="line"/>
      <point x="578" y="1532" type="line"/>
      <point x="462" y="583" type="line"/>
      <point x="681" y="780" type="line"/>
      <point x="846" y="927" type="line" smooth="yes"/>
      <point x="850" y="931"/>
      <point x="850" y="937" type="qcurve" smooth="yes"/>
      <point x="850" y="940"/>
      <point x="844" y="947"/>
      <point x="838" y="948" type="qcurve" smooth="yes"/>
      <point x="741" y="961" type="line" smooth="yes"/>
      <point x="729" y="962"/>
      <point x="729" y="971" type="qcurve"/>
      <point x="730" y="1060" type="line"/>
      <point x="1173" y="1060" type="line"/>
      <point x="1154" y="974" type="line" smooth="yes"/>
      <point x="1151" y="962"/>
      <point x="1138" y="961" type="qcurve"/>
      <point x="1026" y="946" type="line" smooth="yes"/>
      <point x="1020" y="945"/>
      <point x="1009" y="940"/>
      <point x="698" y="660" type="qcurve" smooth="yes"/>
      <point x="690" y="653"/>
      <point x="690" y="646" type="qcurve" smooth="yes"/>
      <point x="690" y="642"/>
      <point x="991" y="138" type="qcurve" smooth="yes"/>
      <point x="992" y="135" type="line" smooth="yes"/>
      <point x="999" y="124"/>
      <point x="1009" y="122" type="qcurve"/>
      <point x="1121" y="109" type="line" smooth="yes"/>
      <point x="1133" y="108"/>
      <point x="1133" y="98" type="qcurve"/>
    </contour>
  </outline>
</glyph>
<glyph name="l" format="1">
  <advance width="603"/>
  <unicode hex="006C"/>
  <outline>
    <contour>
      <point x="550" y="-17" type="line"/>
      <point x="423" y="-7"/>
      <point x="312" y="-6" type="qcurve"/>
      <point x="188" y="-7"/>
      <point x="62" y="-17" type="qcurve"/>
      <point x="86" y="95" type="line" smooth="yes"/>
      <point x="88" y="107"/>
      <point x="101" y="108" type="qcurve" smooth="yes"/>
      <point x="218" y="121" type="line" smooth="yes"/>
      <point x="231" y="123"/>
      <point x="233" y="136" type="qcurve" smooth="yes"/>
      <point x="389" y="1406" type="line"/>
      <point x="389" y="1416"/>
      <point x="376" y="1417" type="qcurve"/>
      <point x="268" y="1431" type="line"/>
      <point x="255" y="1432"/>
      <point x="255" y="1443" type="qcurve"/>
      <point x="257" y="1531" type="line"/>
      <point x="588" y="1531" type="line"/>
      <point x="416" y="131" type="line"/>
      <point x="416" y="122"/>
      <point x="428" y="121" type="qcurve" smooth="yes"/>
      <point x="541" y="108" type="line" smooth="yes"/>
      <point x="553" y="107"/>
      <point x="553" y="97" type="qcurve"/>
    </contour>
  </outline>
</glyph>
<glyph name="m" format="1">
  <advance width="1918"/>
  <unicode hex="006D"/>
  <outline>
    <contour>
      <point x="1855" y="-17" type="line"/>
      <point x="1728" y="-7"/>
      <point x="1617" y="-6" type="qcurve"/>
      <point x="1506" y="-7"/>
      <point x="1377" y="-17" type="qcurve"/>
      <point x="1401" y="95" type="line" smooth="yes"/>
      <point x="1403" y="107"/>
      <point x="1416" y="108" type="qcurve" smooth="yes"/>
      <point x="1533" y="121" type="line" smooth="yes"/>
      <point x="1547" y="122"/>
      <point x="1548" y="136" type="qcurve"/>
      <point x="1620" y="728" type="line" smooth="yes"/>
      <point x="1622" y="746"/>
      <point x="1622" y="763" type="qcurve" smooth="yes"/>
      <point x="1622" y="828"/>
      <point x="1546" y="926"/>
      <point x="1448" y="926" type="qcurve" smooth="yes"/>
      <point x="1388" y="926"/>
      <point x="1281" y="879"/>
      <point x="1239" y="839" type="qcurve"/>
      <point x="1153" y="761"/>
      <point x="1123" y="563" type="qcurve"/>
      <point x="1070" y="131" type="line"/>
      <point x="1070" y="122"/>
      <point x="1082" y="121" type="qcurve" smooth="yes"/>
      <point x="1195" y="108" type="line" smooth="yes"/>
      <point x="1207" y="107"/>
      <point x="1207" y="97" type="qcurve"/>
      <point x="1204" y="-17" type="line"/>
      <point x="1077" y="-7"/>
      <point x="966" y="-6" type="qcurve"/>
      <point x="855" y="-7"/>
      <point x="726" y="-17" type="qcurve"/>
      <point x="750" y="95" type="line" smooth="yes"/>
      <point x="752" y="107"/>
      <point x="765" y="108" type="qcurve" smooth="yes"/>
      <point x="882" y="121" type="line" smooth="yes"/>
      <point x="896" y="122"/>
      <point x="897" y="136" type="qcurve"/>
      <point x="969" y="728" type="line" smooth="yes"/>
      <point x="972" y="749"/>
      <point x="972" y="769" type="qcurve" smooth="yes"/>
      <point x="972" y="926"/>
      <point x="806" y="926" type="qcurve" smooth="yes"/>
      <point x="746" y="926"/>
      <point x="639" y="879"/>
      <point x="556" y="801"/>
      <point x="487" y="661"/>
      <point x="474" y="563" type="qcurve"/>
      <point x="421" y="131" type="line"/>
      <point x="421" y="122"/>
      <point x="433" y="121" type="qcurve" smooth="yes"/>
      <point x="546" y="108" type="line" smooth="yes"/>
      <point x="558" y="107"/>
      <point x="558" y="97" type="qcurve"/>
      <point x="555" y="-17" type="line"/>
      <point x="428" y="-7"/>
      <point x="317" y="-6" type="qcurve"/>
      <point x="206" y="-7"/>
      <point x="77" y="-17" type="qcurve"/>
      <point x="101" y="95" type="line" smooth="yes"/>
      <point x="104" y="107"/>
      <point x="116" y="108" type="qcurve" smooth="yes"/>
      <point x="233" y="121" type="line" smooth="yes"/>
      <point x="247" y="122"/>
      <point x="248" y="136" type="qcurve"/>
      <point x="347" y="946" type="line"/>
      <point x="246" y="960" type="line"/>
      <point x="233" y="961"/>
      <point x="233" y="973" type="qcurve"/>
      <point x="235" y="1059" type="line"/>
      <point x="535" y="1059" type="line"/>
      <point x="511" y="861" type="line"/>
      <point x="524" y="861" type="line"/>
      <point x="541" y="914"/>
      <point x="630" y="1017"/>
      <point x="765" y="1087"/>
      <point x="851" y="1087" type="qcurve" smooth="yes"/>
      <point x="1122" y="1087"/>
      <point x="1148" y="861" type="qcurve"/>
      <point x="1160" y="861" type="line"/>
      <point x="1178" y="914"/>
      <point x="1269" y="1017"/>
      <point x="1407" y="1087"/>
      <point x="1493" y="1087" type="qcurve" smooth="yes"/>
      <point x="1659" y="1087"/>
      <point x="1738" y="1002" type="qcurve" smooth="yes"/>
      <point x="1800" y="935"/>
      <point x="1800" y="811" type="qcurve" smooth="yes"/>
      <point x="1800" y="778"/>
      <point x="1796" y="741" type="qcurve" smooth="yes"/>
      <point x="1721" y="131" type="line"/>
      <point x="1721" y="122"/>
      <point x="1733" y="121" type="qcurve" smooth="yes"/>
      <point x="1846" y="108" type="line" smooth="yes"/>
      <point x="1858" y="107"/>
      <point x="1858" y="97" type="qcurve"/>
    </contour>
  </outline>
</glyph>
<glyph name="n" format="1">
  <advance width="1332"/>
  <unicode hex="006E"/>
  <outline>
    <contour>
      <point x="1275" y="-17" type="line"/>
      <point x="1148" y="-7"/>
      <point x="1037" y="-6" type="qcurve"/>
      <point x="925" y="-7"/>
      <point x="796" y="-17" type="qcurve"/>
      <point x="821" y="95" type="line"/>
      <point x="823" y="107"/>
      <point x="836" y="108" type="qcurve" smooth="yes"/>
      <point x="952" y="121" type="line" smooth="yes"/>
      <point x="960" y="122"/>
      <point x="966" y="129"/>
      <point x="967" y="136" type="qcurve" smooth="yes"/>
      <point x="1042" y="745"/>
      <point x="1042" y="760" type="qcurve" smooth="yes"/>
      <point x="1042" y="827"/>
      <point x="957" y="926"/>
      <point x="846" y="926" type="qcurve" smooth="yes"/>
      <point x="756" y="926"/>
      <point x="596" y="827"/>
      <point x="490" y="681"/>
      <point x="480" y="605" type="qcurve"/>
      <point x="422" y="133" type="line"/>
      <point x="422" y="122"/>
      <point x="434" y="121" type="qcurve" smooth="yes"/>
      <point x="547" y="108" type="line" smooth="yes"/>
      <point x="559" y="107"/>
      <point x="559" y="97" type="qcurve"/>
      <point x="556" y="-17" type="line"/>
      <point x="429" y="-7"/>
      <point x="318" y="-6" type="qcurve"/>
      <point x="207" y="-7"/>
      <point x="77" y="-17" type="qcurve"/>
      <point x="102" y="95" type="line"/>
      <point x="104" y="107"/>
      <point x="117" y="108" type="qcurve" smooth="yes"/>
      <point x="233" y="121" type="line" smooth="yes"/>
      <point x="247" y="122"/>
      <point x="248" y="136" type="qcurve"/>
      <point x="346" y="932" type="line"/>
      <point x="346" y="944"/>
      <point x="333" y="946" type="qcurve" smooth="yes"/>
      <point x="226" y="960" type="line"/>
      <point x="213" y="961"/>
      <point x="213" y="971" type="qcurve"/>
      <point x="215" y="1059" type="line"/>
      <point x="536" y="1059" type="line"/>
      <point x="511" y="861" type="line"/>
      <point x="526" y="861" type="line"/>
      <point x="545" y="914"/>
      <point x="644" y="1017"/>
      <point x="796" y="1087"/>
      <point x="894" y="1087" type="qcurve" smooth="yes"/>
      <point x="1082" y="1087"/>
      <point x="1160" y="1002" type="qcurve" smooth="yes"/>
      <point x="1221" y="936"/>
      <point x="1221" y="814" type="qcurve" smooth="yes"/>
      <point x="1221" y="780"/>
      <point x="1216" y="741" type="qcurve" smooth="yes"/>
      <point x="1141" y="132" type="line"/>
      <point x="1141" y="122"/>
      <point x="1152" y="121" type="qcurve" smooth="yes"/>
      <point x="1266" y="108" type="line" smooth="yes"/>
      <point x="1278" y="107"/>
      <point x="1278" y="95" type="qcurve"/>
    </contour>
  </outline>
</glyph>
<glyph name="o" format="1">
  <advance width="1142"/>
  <unicode hex="006F"/>
  <outline>
    <contour>
      <point x="567" y="-20" type="qcurve" smooth="yes"/>
      <point x="323" y="-20"/>
      <point x="217" y="116" type="qcurve" smooth="yes"/>
      <point x="136" y="218"/>
      <point x="136" y="406" type="qcurve" smooth="yes"/>
      <point x="136" y="467"/>
      <point x="145" y="538" type="qcurve" smooth="yes"/>
      <point x="180" y="820"/>
      <point x="459" y="1090"/>
      <point x="704" y="1090" type="qcurve" smooth="yes"/>
      <point x="950" y="1090"/>
      <point x="1056" y="955" type="qcurve" smooth="yes"/>
      <point x="1136" y="854"/>
      <point x="1136" y="669" type="qcurve" smooth="yes"/>
      <point x="1136" y="608"/>
      <point x="1127" y="538" type="qcurve" smooth="yes"/>
      <point x="1092" y="251"/>
      <point x="813" y="-20"/>
    </contour>
    <contour>
      <point x="584" y="113" type="qcurve" smooth="yes"/>
      <point x="893" y="113"/>
      <point x="946" y="538" type="qcurve" smooth="yes"/>
      <point x="953" y="596"/>
      <point x="953" y="645" type="qcurve" smooth="yes"/>
      <point x="953" y="780"/>
      <point x="835" y="962"/>
      <point x="688" y="962" type="qcurve" smooth="yes"/>
      <point x="539" y="962"/>
      <point x="357" y="752"/>
      <point x="331" y="538" type="qcurve" smooth="yes"/>
      <point x="323" y="473"/>
      <point x="323" y="419" type="qcurve" smooth="yes"/>
      <point x="323" y="293"/>
      <point x="428" y="113"/>
    </contour>
  </outline>
</glyph>
<glyph name="p" format="1">
  <advance width="1223"/>
  <unicode hex="0070"/>
  <outline>
    <contour>
      <point x="485" y="-461" type="line"/>
      <point x="358" y="-451"/>
      <point x="247" y="-450" type="qcurve"/>
      <point x="136" y="-451"/>
      <point x="7" y="-461" type="qcurve"/>
      <point x="32" y="-349" type="line" smooth="yes"/>
      <point x="34" y="-338"/>
      <point x="46" y="-337" type="qcurve" smooth="yes"/>
      <point x="162" y="-324" type="line"/>
      <point x="177" y="-323"/>
      <point x="177" y="-306" type="qcurve"/>
      <point x="229" y="107"/>
      <point x="276" y="532" type="qcurve"/>
      <point x="329" y="934" type="line"/>
      <point x="329" y="944"/>
      <point x="316" y="945" type="qcurve"/>
      <point x="209" y="959" type="line" smooth="yes"/>
      <point x="197" y="960"/>
      <point x="197" y="971" type="qcurve"/>
      <point x="199" y="1058" type="line"/>
      <point x="515" y="1058" type="line"/>
      <point x="491" y="861" type="line"/>
      <point x="511" y="861" type="line"/>
      <point x="549" y="958"/>
      <point x="735" y="1085"/>
      <point x="862" y="1085" type="qcurve" smooth="yes"/>
      <point x="1008" y="1085"/>
      <point x="1095" y="1016" type="qcurve" smooth="yes"/>
      <point x="1232" y="906"/>
      <point x="1232" y="660" type="qcurve" smooth="yes"/>
      <point x="1232" y="602"/>
      <point x="1224" y="538" type="qcurve" smooth="yes"/>
      <point x="1199" y="346"/>
      <point x="1063" y="99"/>
      <point x="853" y="-19"/>
      <point x="721" y="-19" type="qcurve" smooth="yes"/>
      <point x="634" y="-19"/>
      <point x="574" y="11" type="qcurve" smooth="yes"/>
      <point x="458" y="68"/>
      <point x="430" y="204" type="qcurve"/>
      <point x="416" y="204" type="line"/>
      <point x="352" y="-314" type="line"/>
      <point x="352" y="-323"/>
      <point x="364" y="-324" type="qcurve" smooth="yes"/>
      <point x="476" y="-337" type="line" smooth="yes"/>
      <point x="488" y="-338"/>
      <point x="488" y="-347" type="qcurve"/>
    </contour>
    <contour>
      <point x="693" y="109" type="qcurve" smooth="yes"/>
      <point x="829" y="109"/>
      <point x="1000" y="330"/>
      <point x="1026" y="536" type="qcurve" smooth="yes"/>
      <point x="1033" y="595"/>
      <point x="1033" y="646" type="qcurve" smooth="yes"/>
      <point x="1033" y="774"/>
      <point x="927" y="946"/>
      <point x="800" y="946" type="qcurve" smooth="yes"/>
      <point x="671" y="946"/>
      <point x="494" y="729"/>
      <point x="469" y="536" type="qcurve"/>
      <point x="462" y="476"/>
      <point x="462" y="424" type="qcurve" smooth="yes"/>
      <point x="462" y="301"/>
      <point x="561" y="109"/>
    </contour>
  </outline>
</glyph>
<glyph name="q" format="1">
  <advance width="1228"/>
  <unicode hex="0071"/>
  <outline>
    <contour>
      <point x="1118" y="-462" type="line"/>
      <point x="996" y="-453"/>
      <point x="889" y="-451" type="qcurve"/>
      <point x="792" y="-451" type="line"/>
      <point x="873" y="204" type="line"/>
      <point x="858" y="204" type="line"/>
      <point x="829" y="140"/>
      <point x="733" y="39"/>
      <point x="599" y="-20"/>
      <point x="511" y="-20" type="qcurve" smooth="yes"/>
      <point x="379" y="-20"/>
      <point x="198" y="99"/>
      <point x="160" y="223" type="qcurve" smooth="yes"/>
      <point x="136" y="300"/>
      <point x="136" y="404" type="qcurve" smooth="yes"/>
      <point x="136" y="467"/>
      <point x="145" y="539" type="qcurve" smooth="yes"/>
      <point x="165" y="703"/>
      <point x="288" y="949"/>
      <point x="496" y="1087"/>
      <point x="642" y="1087" type="qcurve" smooth="yes"/>
      <point x="770" y="1087"/>
      <point x="924" y="960"/>
      <point x="939" y="863" type="qcurve"/>
      <point x="959" y="863" type="line"/>
      <point x="983" y="1060" type="line"/>
      <point x="1300" y="1060" type="line"/>
      <point x="1281" y="974" type="line" smooth="yes"/>
      <point x="1279" y="962"/>
      <point x="1265" y="961" type="qcurve"/>
      <point x="1155" y="947" type="line" smooth="yes"/>
      <point x="1140" y="945"/>
      <point x="1138" y="931" type="qcurve" smooth="yes"/>
      <point x="1092" y="533" type="line"/>
      <point x="1037" y="110"/>
      <point x="986" y="-309" type="qcurve" smooth="yes"/>
      <point x="985" y="-314" type="line"/>
      <point x="985" y="-323"/>
      <point x="997" y="-325" type="qcurve" smooth="yes"/>
      <point x="1109" y="-338" type="line" smooth="yes"/>
      <point x="1121" y="-339"/>
      <point x="1121" y="-348" type="qcurve"/>
    </contour>
    <contour>
      <point x="571" y="109" type="qcurve" smooth="yes"/>
      <point x="704" y="109"/>
      <point x="876" y="335"/>
      <point x="901" y="537" type="qcurve" smooth="yes"/>
      <point x="907" y="589"/>
      <point x="907" y="635" type="qcurve" smooth="yes"/>
      <point x="907" y="759"/>
      <point x="800" y="948"/>
      <point x="670" y="948" type="qcurve" smooth="yes"/>
      <point x="543" y="948"/>
      <point x="370" y="747"/>
      <point x="343" y="537" type="qcurve" smooth="yes"/>
      <point x="335" y="475"/>
      <point x="335" y="421" type="qcurve" smooth="yes"/>
      <point x="335" y="109"/>
    </contour>
  </outline>
</glyph>
<glyph name="r" format="1">
  <advance width="909"/>
  <unicode hex="0072"/>
  <outline>
    <contour>
      <point x="540" y="-17" type="line"/>
      <point x="413" y="-8"/>
      <point x="302" y="-7" type="qcurve"/>
      <point x="191" y="-8"/>
      <point x="62" y="-17" type="qcurve"/>
      <point x="86" y="95" type="line" smooth="yes"/>
      <point x="88" y="106"/>
      <point x="101" y="107" type="qcurve" smooth="yes"/>
      <point x="218" y="121" type="line"/>
      <point x="232" y="122"/>
      <point x="232" y="136" type="qcurve"/>
      <point x="331" y="933" type="line"/>
      <point x="331" y="944"/>
      <point x="318" y="945" type="qcurve"/>
      <point x="210" y="959" type="line"/>
      <point x="197" y="960"/>
      <point x="197" y="970" type="qcurve"/>
      <point x="199" y="1059" type="line"/>
      <point x="520" y="1059" type="line"/>
      <point x="495" y="860" type="line"/>
      <point x="513" y="860" type="line"/>
      <point x="540" y="926"/>
      <point x="619" y="1027"/>
      <point x="733" y="1085"/>
      <point x="813" y="1085" type="qcurve" smooth="yes"/>
      <point x="923" y="1085"/>
      <point x="977" y="1049" type="qcurve"/>
      <point x="937" y="724" type="line"/>
      <point x="839" y="736" type="line"/>
      <point x="825" y="737"/>
      <point x="825" y="749" type="qcurve"/>
      <point x="794" y="888" type="line"/>
      <point x="791" y="908"/>
      <point x="767" y="918"/>
      <point x="750" y="918" type="qcurve" smooth="yes"/>
      <point x="680" y="918"/>
      <point x="628" y="881" type="qcurve" smooth="yes"/>
      <point x="531" y="812"/>
      <point x="483" y="661" type="qcurve" smooth="yes"/>
      <point x="462" y="594"/>
      <point x="455" y="533" type="qcurve" smooth="yes"/>
      <point x="406" y="131" type="line"/>
      <point x="406" y="122"/>
      <point x="418" y="121" type="qcurve" smooth="yes"/>
      <point x="531" y="107" type="line" smooth="yes"/>
      <point x="543" y="106"/>
      <point x="543" y="97" type="qcurve"/>
    </contour>
  </outline>
</glyph>
<glyph name="s" format="1">
  <advance width="961"/>
  <unicode hex="0073"/>
  <outline>
    <contour>
      <point x="450" y="-20" type="qcurve" smooth="yes"/>
      <point x="355" y="-20"/>
      <point x="225" y="16"/>
      <point x="139" y="68"/>
      <point x="112" y="95" type="qcurve"/>
      <point x="111" y="95" type="line"/>
      <point x="136" y="296" type="line"/>
      <point x="233" y="277"/>
      <point x="237" y="274"/>
      <point x="277" y="165" type="qcurve"/>
      <point x="288" y="139"/>
      <point x="357" y="108"/>
      <point x="436" y="95"/>
      <point x="458" y="95" type="qcurve" smooth="yes"/>
      <point x="570" y="95"/>
      <point x="720" y="204"/>
      <point x="732" y="289" type="qcurve"/>
      <point x="733" y="306" type="line"/>
      <point x="733" y="364"/>
      <point x="627" y="455"/>
      <point x="518" y="493" type="qcurve" smooth="yes"/>
      <point x="359" y="547"/>
      <point x="277" y="617" type="qcurve" smooth="yes"/>
      <point x="207" y="677"/>
      <point x="207" y="771" type="qcurve" smooth="yes"/>
      <point x="207" y="786"/>
      <point x="209" y="802" type="qcurve" smooth="yes"/>
      <point x="222" y="907"/>
      <point x="328" y="1035"/>
      <point x="511" y="1092"/>
      <point x="640" y="1092" type="qcurve" smooth="yes"/>
      <point x="725" y="1092"/>
      <point x="891" y="1031"/>
      <point x="929" y="968" type="qcurve"/>
      <point x="904" y="765" type="line"/>
      <point x="806" y="777" type="line" smooth="yes"/>
      <point x="797" y="778"/>
      <point x="791" y="784"/>
      <point x="789" y="790" type="qcurve" smooth="yes"/>
      <point x="762" y="904" type="line" smooth="yes"/>
      <point x="761" y="910"/>
      <point x="748" y="926"/>
      <point x="741" y="931" type="qcurve" smooth="yes"/>
      <point x="726" y="944" type="line" smooth="yes"/>
      <point x="710" y="957"/>
      <point x="653" y="983"/>
      <point x="614" y="983" type="qcurve" smooth="yes"/>
      <point x="523" y="983"/>
      <point x="399" y="912"/>
      <point x="388" y="837" type="qcurve"/>
      <point x="387" y="822" type="line"/>
      <point x="387" y="763"/>
      <point x="496" y="696"/>
      <point x="585" y="667" type="qcurve" smooth="yes"/>
      <point x="616" y="657"/>
      <point x="648" y="645" type="qcurve" smooth="yes"/>
      <point x="788" y="594"/>
      <point x="857" y="515" type="qcurve" smooth="yes"/>
      <point x="913" y="450"/>
      <point x="913" y="352" type="qcurve" smooth="yes"/>
      <point x="913" y="330"/>
      <point x="910" y="307" type="qcurve" smooth="yes"/>
      <point x="891" y="154"/>
      <point x="658" y="-20"/>
    </contour>
  </outline>
</glyph>
<glyph name="t" format="1">
  <advance width="812"/>
  <unicode hex="0074"/>
  <outline>
    <contour>
      <point x="466" y="-20" type="qcurve" smooth="yes"/>
      <point x="215" y="-20"/>
      <point x="215" y="237" type="qcurve" smooth="yes"/>
      <point x="215" y="269"/>
      <point x="219" y="305" type="qcurve" smooth="yes"/>
      <point x="298" y="945" type="line"/>
      <point x="130" y="945" type="line"/>
      <point x="144" y="1059" type="line"/>
      <point x="312" y="1059" type="line"/>
      <point x="351" y="1376" type="line"/>
      <point x="534" y="1440" type="line"/>
      <point x="487" y="1059" type="line"/>
      <point x="810" y="1059" type="line"/>
      <point x="796" y="945" type="line"/>
      <point x="473" y="945" type="line"/>
      <point x="392" y="269"/>
      <point x="392" y="257" type="qcurve" smooth="yes"/>
      <point x="392" y="195"/>
      <point x="485" y="121"/>
      <point x="579" y="121" type="qcurve" smooth="yes"/>
      <point x="610" y="121"/>
      <point x="705" y="146"/>
      <point x="743" y="162" type="qcurve"/>
      <point x="762" y="45" type="line"/>
      <point x="647" y="-20"/>
    </contour>
  </outline>
</glyph>
<glyph name="v" format="1">
  <advance width="1215"/>
  <unicode hex="0076"/>
  <outline>
    <contour>
      <point x="664" y="0" type="qcurve"/>
      <point x="522" y="0" type="line"/>
      <point x="246" y="930" type="line" smooth="yes"/>
      <point x="243" y="940"/>
      <point x="236" y="946"/>
      <point x="126" y="960" type="qcurve" smooth="yes"/>
      <point x="114" y="961"/>
      <point x="114" y="970" type="qcurve"/>
      <point x="115" y="1059" type="line"/>
      <point x="598" y="1059" type="line"/>
      <point x="580" y="974" type="line" smooth="yes"/>
      <point x="577" y="961"/>
      <point x="563" y="960" type="qcurve"/>
      <point x="451" y="946" type="line" smooth="yes"/>
      <point x="439" y="944"/>
      <point x="436" y="931" type="qcurve"/>
      <point x="645" y="224" type="line"/>
      <point x="1019" y="930" type="line" smooth="yes"/>
      <point x="1021" y="933"/>
      <point x="1021" y="936" type="qcurve" smooth="yes"/>
      <point x="1021" y="945"/>
      <point x="1008" y="946" type="qcurve"/>
      <point x="900" y="960" type="line" smooth="yes"/>
      <point x="888" y="961"/>
      <point x="888" y="972" type="qcurve"/>
      <point x="889" y="1059" type="line"/>
      <point x="1320" y="1059" type="line"/>
      <point x="1301" y="974" type="line"/>
      <point x="1299" y="961"/>
      <point x="1285" y="960" type="qcurve"/>
      <point x="1177" y="947" type="line"/>
      <point x="1170" y="945"/>
      <point x="1161" y="938"/>
    </contour>
  </outline>
</glyph>
<glyph name="w" format="1">
  <advance width="1777"/>
  <unicode hex="0077"/>
  <outline>
    <contour>
      <point x="1318" y="0" type="line"/>
      <point x="1140" y="0" type="line"/>
      <point x="971" y="725" type="line"/>
      <point x="653" y="0" type="line"/>
      <point x="475" y="0" type="line"/>
      <point x="257" y="930" type="line" smooth="yes"/>
      <point x="255" y="939"/>
      <point x="248" y="946"/>
      <point x="240" y="947" type="qcurve" smooth="yes"/>
      <point x="140" y="961" type="line"/>
      <point x="128" y="961"/>
      <point x="128" y="971" type="qcurve"/>
      <point x="135" y="1059" type="line"/>
      <point x="618" y="1059" type="line"/>
      <point x="594" y="974" type="line" smooth="yes"/>
      <point x="592" y="967"/>
      <point x="586" y="962"/>
      <point x="464" y="946" type="qcurve" smooth="yes"/>
      <point x="457" y="945"/>
      <point x="448" y="936"/>
      <point x="448" y="930" type="qcurve" smooth="yes"/>
      <point x="448" y="926"/>
      <point x="612" y="222" type="qcurve"/>
      <point x="923" y="930" type="line"/>
      <point x="921" y="939"/>
      <point x="913" y="946"/>
      <point x="905" y="947" type="qcurve" smooth="yes"/>
      <point x="805" y="961" type="line"/>
      <point x="793" y="961"/>
      <point x="793" y="971" type="qcurve"/>
      <point x="800" y="1059" type="line"/>
      <point x="1283" y="1059" type="line"/>
      <point x="1259" y="974" type="line" smooth="yes"/>
      <point x="1257" y="967"/>
      <point x="1251" y="962"/>
      <point x="1130" y="946" type="qcurve" smooth="yes"/>
      <point x="1123" y="945"/>
      <point x="1114" y="936"/>
      <point x="1114" y="930" type="qcurve" smooth="yes"/>
      <point x="1114" y="926"/>
      <point x="1278" y="222" type="qcurve"/>
      <point x="1435" y="580" type="line"/>
      <point x="1434" y="579" type="line"/>
      <point x="1589" y="932"/>
      <point x="1589" y="934" type="qcurve" smooth="yes"/>
      <point x="1589" y="945"/>
      <point x="1575" y="946" type="qcurve"/>
      <point x="1466" y="961" type="line"/>
      <point x="1453" y="961"/>
      <point x="1453" y="974" type="qcurve"/>
      <point x="1446" y="1059" type="line"/>
      <point x="1877" y="1059" type="line"/>
      <point x="1866" y="974" type="line" smooth="yes"/>
      <point x="1865" y="967"/>
      <point x="1859" y="962"/>
      <point x="1744" y="947" type="qcurve" smooth="yes"/>
      <point x="1732" y="946"/>
      <point x="1726" y="930" type="qcurve"/>
    </contour>
  </outline>
</glyph>
<glyph name="x" format="1">
  <advance width="1227"/>
  <unicode hex="0078"/>
  <outline>
    <contour>
      <point x="1184" y="-17" type="line"/>
      <point x="1053" y="-8"/>
      <point x="937" y="-8" type="qcurve" smooth="yes"/>
      <point x="822" y="-8"/>
      <point x="684" y="-17" type="qcurve"/>
      <point x="705" y="76" type="line" smooth="yes"/>
      <point x="707" y="87"/>
      <point x="718" y="87" type="qcurve"/>
      <point x="811" y="100" type="line" smooth="yes"/>
      <point x="821" y="101"/>
      <point x="821" y="115" type="qcurve" smooth="yes"/>
      <point x="821" y="125"/>
      <point x="814" y="141" type="qcurve"/>
      <point x="779" y="211" type="line"/>
      <point x="643" y="446" type="line"/>
      <point x="502" y="275" type="line"/>
      <point x="399" y="142" type="line" smooth="yes"/>
      <point x="379" y="116"/>
      <point x="379" y="110" type="qcurve" smooth="yes"/>
      <point x="379" y="100"/>
      <point x="391" y="98" type="qcurve"/>
      <point x="498" y="87" type="line"/>
      <point x="509" y="87"/>
      <point x="509" y="78" type="qcurve"/>
      <point x="508" y="-17" type="line"/>
      <point x="385" y="-9"/>
      <point x="273" y="-8" type="qcurve"/>
      <point x="173" y="-9"/>
      <point x="62" y="-17" type="qcurve"/>
      <point x="84" y="76" type="line" smooth="yes"/>
      <point x="85" y="81"/>
      <point x="90" y="86"/>
      <point x="199" y="100" type="qcurve" smooth="yes"/>
      <point x="215" y="102"/>
      <point x="231" y="120" type="qcurve" smooth="yes"/>
      <point x="502" y="428" type="line"/>
      <point x="592" y="537" type="line"/>
      <point x="379" y="896"/>
      <point x="365" y="917" type="qcurve" smooth="yes"/>
      <point x="354" y="933"/>
      <point x="338" y="943"/>
      <point x="325" y="944" type="qcurve" smooth="yes"/>
      <point x="243" y="954" type="line"/>
      <point x="232" y="956"/>
      <point x="232" y="964" type="qcurve"/>
      <point x="233" y="1059" type="line"/>
      <point x="727" y="1059" type="line"/>
      <point x="706" y="967" type="line" smooth="yes"/>
      <point x="704" y="956"/>
      <point x="692" y="954" type="qcurve" smooth="yes"/>
      <point x="599" y="942" type="line"/>
      <point x="595" y="942"/>
      <point x="589" y="937"/>
      <point x="589" y="934" type="qcurve"/>
      <point x="739" y="644" type="line"/>
      <point x="961" y="919" type="line" smooth="yes"/>
      <point x="966" y="926"/>
      <point x="966" y="934" type="qcurve" smooth="yes"/>
      <point x="966" y="938"/>
      <point x="961" y="942"/>
      <point x="846" y="954" type="qcurve"/>
      <point x="835" y="954"/>
      <point x="835" y="966" type="qcurve"/>
      <point x="837" y="1059" type="line"/>
      <point x="1274" y="1059" type="line"/>
      <point x="1254" y="966" type="line" smooth="yes"/>
      <point x="1252" y="956"/>
      <point x="1239" y="954" type="qcurve" smooth="yes"/>
      <point x="1136" y="941" type="line"/>
      <point x="1123" y="941"/>
      <point x="1106" y="921" type="qcurve" smooth="yes"/>
      <point x="790" y="553" type="line"/>
      <point x="873" y="411" type="line"/>
      <point x="889" y="386" type="line" smooth="yes"/>
      <point x="905" y="360"/>
      <point x="953" y="285"/>
      <point x="1002" y="205"/>
      <point x="1040" y="141"/>
      <point x="1063" y="110"/>
      <point x="1079" y="99"/>
      <point x="1091" y="97" type="qcurve" smooth="yes"/>
      <point x="1174" y="87" type="line"/>
      <point x="1184" y="87"/>
      <point x="1184" y="78" type="qcurve" smooth="yes"/>
    </contour>
  </outline>
</glyph>
<glyph name="z" format="1">
  <advance width="1040"/>
  <unicode hex="007A"/>
  <outline>
    <contour>
      <point x="959" y="0" type="line"/>
      <point x="79" y="0" type="line"/>
      <point x="91" y="96" type="line"/>
      <point x="774" y="943" type="line"/>
      <point x="679" y="943" type="line" smooth="yes"/>
      <point x="511" y="943"/>
      <point x="377" y="933" type="qcurve" smooth="yes"/>
      <point x="363" y="932"/>
      <point x="360" y="921" type="qcurve"/>
      <point x="309" y="789" type="line" smooth="yes"/>
      <point x="305" y="780"/>
      <point x="295" y="779" type="qcurve" smooth="yes"/>
      <point x="213" y="768" type="line"/>
      <point x="249" y="1060" type="line"/>
      <point x="1043" y="1060" type="line"/>
      <point x="1034" y="986" type="line"/>
      <point x="329" y="123" type="line"/>
      <point x="562" y="123" type="line" smooth="yes"/>
      <point x="619" y="123"/>
      <point x="715" y="129" type="qcurve" smooth="yes"/>
      <point x="810" y="134" type="line" smooth="yes"/>
      <point x="826" y="135"/>
      <point x="830" y="146" type="qcurve" smooth="yes"/>
      <point x="909" y="342" type="line" smooth="yes"/>
      <point x="913" y="352"/>
      <point x="925" y="353" type="qcurve"/>
      <point x="1004" y="364" type="line"/>
    </contour>
  </outline>
</glyph>
<glyph name="braceleft" format="1">
  <advance width="778"/>
  <unicode hex="007B"/>
  <outline>
    <contour>
      <point x="583" y="-335" type="line"/>
      <point x="453" y="-313"/>
      <point x="352" y="-272"/>
      <point x="337" y="-218" type="qcurve"/>
      <point x="334" y="-202"/>
      <point x="334" y="-176" type="qcurve" smooth="yes"/>
      <point x="334" y="-113"/>
      <point x="350" y="8" type="qcurve" smooth="yes"/>
      <point x="393" y="333" type="line" smooth="yes"/>
      <point x="409" y="457"/>
      <point x="409" y="524" type="qcurve" smooth="yes"/>
      <point x="409" y="554"/>
      <point x="406" y="573" type="qcurve"/>
      <point x="390" y="630"/>
      <point x="278" y="656" type="qcurve"/>
      <point x="287" y="687" type="line"/>
      <point x="285" y="718" type="line"/>
      <point x="404" y="744"/>
      <point x="434" y="802" type="qcurve"/>
      <point x="459" y="861"/>
      <point x="480" y="1042" type="qcurve" smooth="yes"/>
      <point x="517" y="1367" type="line" smooth="yes"/>
      <point x="537" y="1538"/>
      <point x="560" y="1593" type="qcurve"/>
      <point x="588" y="1648"/>
      <point x="699" y="1688"/>
      <point x="811" y="1705" type="qcurve" smooth="yes"/>
      <point x="834" y="1709" type="line"/>
      <point x="851" y="1636" type="line"/>
      <point x="789" y="1623"/>
      <point x="729" y="1587"/>
      <point x="717" y="1563" type="qcurve"/>
      <point x="696" y="1514"/>
      <point x="678" y="1357" type="qcurve" smooth="yes"/>
      <point x="669" y="1278"/>
      <point x="650" y="1101"/>
      <point x="640" y="1019" type="qcurve" smooth="yes"/>
      <point x="621" y="852"/>
      <point x="598" y="799" type="qcurve"/>
      <point x="568" y="744"/>
      <point x="465" y="697"/>
      <point x="386" y="687" type="qcurve"/>
      <point x="462" y="677"/>
      <point x="508" y="654" type="qcurve" smooth="yes"/>
      <point x="574" y="620"/>
      <point x="574" y="536" type="qcurve" smooth="yes"/>
      <point x="574" y="475"/>
      <point x="558" y="356" type="qcurve"/>
      <point x="548" y="274"/>
      <point x="524" y="97"/>
      <point x="514" y="17" type="qcurve" smooth="yes"/>
      <point x="499" y="-93"/>
      <point x="499" y="-149" type="qcurve" smooth="yes"/>
      <point x="499" y="-174"/>
      <point x="502" y="-188" type="qcurve" smooth="yes"/>
      <point x="508" y="-212"/>
      <point x="560" y="-248"/>
      <point x="618" y="-262" type="qcurve"/>
    </contour>
  </outline>
</glyph>
<glyph name="braceright" format="1">
  <advance width="778"/>
  <unicode hex="007D"/>
  <outline>
    <contour>
      <point x="182" y="-335" type="qcurve"/>
      <point x="165" y="-262" type="line"/>
      <point x="226" y="-248"/>
      <point x="287" y="-212"/>
      <point x="299" y="-188" type="qcurve"/>
      <point x="320" y="-140"/>
      <point x="337" y="17" type="qcurve"/>
      <point x="347" y="97"/>
      <point x="366" y="274"/>
      <point x="376" y="356" type="qcurve" smooth="yes"/>
      <point x="395" y="523"/>
      <point x="418" y="576" type="qcurve"/>
      <point x="447" y="630"/>
      <point x="551" y="677"/>
      <point x="629" y="687" type="qcurve"/>
      <point x="553" y="697"/>
      <point x="507" y="721" type="qcurve" smooth="yes"/>
      <point x="442" y="754"/>
      <point x="442" y="843" type="qcurve" smooth="yes"/>
      <point x="442" y="904"/>
      <point x="457" y="1019" type="qcurve" smooth="yes"/>
      <point x="502" y="1357" type="line" smooth="yes"/>
      <point x="517" y="1467"/>
      <point x="517" y="1524" type="qcurve" smooth="yes"/>
      <point x="517" y="1548"/>
      <point x="514" y="1563" type="qcurve" smooth="yes"/>
      <point x="508" y="1587"/>
      <point x="456" y="1623"/>
      <point x="398" y="1636" type="qcurve"/>
      <point x="433" y="1709" type="line"/>
      <point x="455" y="1705" type="line" smooth="yes"/>
      <point x="562" y="1688"/>
      <point x="664" y="1648"/>
      <point x="679" y="1593" type="qcurve"/>
      <point x="682" y="1578"/>
      <point x="682" y="1553" type="qcurve" smooth="yes"/>
      <point x="682" y="1469"/>
      <point x="644" y="1206" type="qcurve"/>
      <point x="623" y="1042" type="line" smooth="yes"/>
      <point x="606" y="914"/>
      <point x="606" y="847" type="qcurve" smooth="yes"/>
      <point x="606" y="819"/>
      <point x="609" y="802" type="qcurve"/>
      <point x="625" y="744"/>
      <point x="738" y="718" type="qcurve"/>
      <point x="728" y="687" type="line"/>
      <point x="731" y="656" type="line"/>
      <point x="611" y="630"/>
      <point x="581" y="573" type="qcurve"/>
      <point x="556" y="514"/>
      <point x="536" y="333" type="qcurve"/>
      <point x="526" y="254"/>
      <point x="508" y="85"/>
      <point x="499" y="8" type="qcurve" smooth="yes"/>
      <point x="479" y="-163"/>
      <point x="456" y="-218" type="qcurve"/>
      <point x="428" y="-272"/>
      <point x="373" y="-292" type="qcurve" smooth="yes"/>
      <point x="313" y="-315"/>
    </contour>
  </outline>
</glyph>
<glyph name="asciitilde" format="1">
  <advance width="1014"/>
  <unicode hex="007E"/>
  <outline>
    <contour>
      <point x="1031" y="878" type="qcurve"/>
      <point x="1012" y="722" type="line"/>
      <point x="940" y="650"/>
      <point x="816" y="599"/>
      <point x="759" y="599" type="qcurve" smooth="yes"/>
      <point x="699" y="599"/>
      <point x="475" y="696"/>
      <point x="416" y="696" type="qcurve" smooth="yes"/>
      <point x="365" y="696"/>
      <point x="246" y="640"/>
      <point x="162" y="556" type="qcurve"/>
      <point x="181" y="712" type="line"/>
      <point x="254" y="785"/>
      <point x="379" y="837"/>
      <point x="434" y="837" type="qcurve" smooth="yes"/>
      <point x="498" y="837"/>
      <point x="721" y="738"/>
      <point x="776" y="738" type="qcurve" smooth="yes"/>
      <point x="828" y="738"/>
      <point x="947" y="794"/>
    </contour>
  </outline>
</glyph>
<glyph name="exclamdown" format="1">
  <advance width="676"/>
  <unicode hex="00A1"/>
  <outline>
    <contour>
      <point x="401" y="941" type="qcurve" smooth="yes"/>
      <point x="342" y="941"/>
      <point x="314" y="977" type="qcurve" smooth="yes"/>
      <point x="293" y="1005"/>
      <point x="293" y="1054" type="qcurve" smooth="yes"/>
      <point x="293" y="1069"/>
      <point x="295" y="1087" type="qcurve" smooth="yes"/>
      <point x="311" y="1225"/>
      <point x="436" y="1225" type="qcurve" smooth="yes"/>
      <point x="546" y="1225"/>
      <point x="546" y="1119" type="qcurve" smooth="yes"/>
      <point x="546" y="1104"/>
      <point x="544" y="1087" type="qcurve" smooth="yes"/>
      <point x="527" y="941"/>
    </contour>
    <contour>
      <point x="362" y="-422" type="qcurve"/>
      <point x="113" y="-422" type="line"/>
      <point x="175" y="-166"/>
      <point x="279" y="453"/>
      <point x="292" y="701" type="qcurve"/>
      <point x="458" y="701" type="line"/>
      <point x="406" y="458"/>
      <point x="362" y="-168"/>
    </contour>
  </outline>
</glyph>
<glyph name="currency" format="1">
  <advance width="1014"/>
  <unicode hex="00A4"/>
  <outline>
    <contour>
      <point x="419" y="560" type="qcurve" smooth="yes"/>
      <point x="455" y="520"/>
      <point x="511" y="503" type="qcurve" smooth="yes"/>
      <point x="539" y="495"/>
      <point x="568" y="495" type="qcurve" smooth="yes"/>
      <point x="597" y="495"/>
      <point x="627" y="503" type="qcurve" smooth="yes"/>
      <point x="687" y="520"/>
      <point x="733" y="560" type="qcurve" smooth="yes"/>
      <point x="778" y="601"/>
      <point x="802" y="659" type="qcurve" smooth="yes"/>
      <point x="814" y="688"/>
      <point x="818" y="717" type="qcurve" smooth="yes"/>
      <point x="822" y="746"/>
      <point x="816" y="775" type="qcurve"/>
      <point x="806" y="833"/>
      <point x="771" y="874" type="qcurve" smooth="yes"/>
      <point x="735" y="914"/>
      <point x="678" y="931" type="qcurve" smooth="yes"/>
      <point x="650" y="939"/>
      <point x="621" y="939" type="qcurve" smooth="yes"/>
      <point x="592" y="939"/>
      <point x="562" y="930" type="qcurve" smooth="yes"/>
      <point x="502" y="913"/>
      <point x="457" y="874" type="qcurve" smooth="yes"/>
      <point x="413" y="834"/>
      <point x="389" y="776" type="qcurve" smooth="yes"/>
      <point x="376" y="746"/>
      <point x="372" y="716" type="qcurve" smooth="yes"/>
      <point x="368" y="688"/>
      <point x="374" y="660" type="qcurve"/>
      <point x="383" y="601"/>
    </contour>
    <contour>
      <point x="351" y="903" type="qcurve"/>
      <point x="247" y="1021" type="line"/>
      <point x="337" y="1102" type="line"/>
      <point x="441" y="984" type="line"/>
      <point x="489" y="1014"/>
      <point x="545" y="1030" type="qcurve" smooth="yes"/>
      <point x="591" y="1044"/>
      <point x="636" y="1044" type="qcurve" smooth="yes"/>
      <point x="677" y="1044"/>
      <point x="718" y="1032" type="qcurve" smooth="yes"/>
      <point x="773" y="1015"/>
      <point x="814" y="984" type="qcurve"/>
      <point x="946" y="1102" type="line"/>
      <point x="1016" y="1021" type="line"/>
      <point x="885" y="904" type="line"/>
      <point x="910" y="858"/>
      <point x="920" y="802" type="qcurve" smooth="yes"/>
      <point x="927" y="760"/>
      <point x="922" y="717" type="qcurve" smooth="yes"/>
      <point x="917" y="675"/>
      <point x="900" y="632" type="qcurve"/>
      <point x="876" y="576"/>
      <point x="839" y="530" type="qcurve"/>
      <point x="942" y="413" type="line"/>
      <point x="852" y="332" type="line"/>
      <point x="748" y="450" type="line"/>
      <point x="699" y="418"/>
      <point x="641" y="402" type="qcurve" smooth="yes"/>
      <point x="598" y="390"/>
      <point x="555" y="390" type="qcurve" smooth="yes"/>
      <point x="513" y="390"/>
      <point x="471" y="402" type="qcurve" smooth="yes"/>
      <point x="416" y="418"/>
      <point x="375" y="450" type="qcurve"/>
      <point x="243" y="332" type="line"/>
      <point x="173" y="413" type="line"/>
      <point x="305" y="530" type="line"/>
      <point x="279" y="576"/>
      <point x="270" y="633" type="qcurve" smooth="yes"/>
      <point x="263" y="675"/>
      <point x="268" y="717" type="qcurve" smooth="yes"/>
      <point x="273" y="761"/>
      <point x="292" y="804" type="qcurve"/>
      <point x="314" y="859"/>
    </contour>
  </outline>
</glyph>
<glyph name="section" format="1">
  <advance width="1014"/>
  <unicode hex="00A7"/>
  <outline>
    <contour>
      <point x="584" y="321" type="qcurve"/>
      <point x="642" y="337"/>
      <point x="688" y="374" type="qcurve" smooth="yes"/>
      <point x="769" y="439"/>
      <point x="781" y="540" type="qcurve" smooth="yes"/>
      <point x="782" y="545"/>
      <point x="782" y="550" type="qcurve"/>
      <point x="780" y="550" type="line"/>
      <point x="780" y="564"/>
      <point x="779" y="577" type="qcurve"/>
      <point x="764" y="638"/>
      <point x="681" y="704" type="qcurve"/>
      <point x="626" y="733"/>
      <point x="559" y="733" type="qcurve" smooth="yes"/>
      <point x="481" y="733"/>
      <point x="376" y="644"/>
      <point x="367" y="571" type="qcurve" smooth="yes"/>
      <point x="352" y="448"/>
    </contour>
    <contour>
      <point x="424" y="-346" type="qcurve"/>
      <point x="537" y="-340"/>
      <point x="617" y="-277" type="qcurve" smooth="yes"/>
      <point x="697" y="-213"/>
      <point x="709" y="-112" type="qcurve" smooth="yes"/>
      <point x="725" y="13"/>
      <point x="427" y="164" type="qcurve"/>
      <point x="312" y="228"/>
      <point x="225" y="374"/>
      <point x="238" y="478" type="qcurve" smooth="yes"/>
      <point x="256" y="626"/>
      <point x="356" y="715" type="qcurve"/>
      <point x="431" y="780"/>
      <point x="536" y="797" type="qcurve"/>
      <point x="498" y="816" type="line"/>
      <point x="383" y="880"/>
      <point x="296" y="1026"/>
      <point x="309" y="1130" type="qcurve" smooth="yes"/>
      <point x="327" y="1278"/>
      <point x="427" y="1367" type="qcurve"/>
      <point x="519" y="1446"/>
      <point x="653" y="1453" type="qcurve" smooth="yes"/>
      <point x="662" y="1454"/>
      <point x="671" y="1454" type="qcurve" smooth="yes"/>
      <point x="674" y="1454" type="line" smooth="yes"/>
      <point x="740" y="1454"/>
      <point x="929" y="1421"/>
      <point x="926" y="1396" type="qcurve" smooth="yes"/>
      <point x="903" y="1202" type="line"/>
      <point x="852" y="1202" type="line"/>
      <point x="857" y="1283"/>
      <point x="788" y="1334" type="qcurve" smooth="yes"/>
      <point x="724" y="1381"/>
      <point x="645" y="1385" type="qcurve"/>
      <point x="630" y="1385" type="line" smooth="yes"/>
      <point x="552" y="1385"/>
      <point x="447" y="1296"/>
      <point x="438" y="1223" type="qcurve" smooth="yes"/>
      <point x="422" y="1091"/>
      <point x="692" y="954" type="qcurve"/>
      <point x="833" y="887"/>
      <point x="925" y="734"/>
      <point x="911" y="623" type="qcurve" smooth="yes"/>
      <point x="890" y="452"/>
      <point x="776" y="341" type="qcurve"/>
      <point x="724" y="302"/>
      <point x="669" y="277" type="qcurve"/>
      <point x="770" y="221"/>
      <point x="809" y="159" type="qcurve"/>
      <point x="854" y="82"/>
      <point x="841" y="-28" type="qcurve" smooth="yes"/>
      <point x="820" y="-199"/>
      <point x="705" y="-311" type="qcurve"/>
      <point x="568" y="-413"/>
      <point x="415" y="-416" type="qcurve"/>
      <point x="415" y="-415" type="line"/>
      <point x="409" y="-416"/>
      <point x="402" y="-416" type="qcurve" smooth="yes"/>
      <point x="399" y="-416" type="line" smooth="yes"/>
      <point x="333" y="-416"/>
      <point x="143" y="-383"/>
      <point x="146" y="-358" type="qcurve" smooth="yes"/>
      <point x="170" y="-164" type="line"/>
      <point x="221" y="-164" type="line"/>
      <point x="216" y="-245"/>
      <point x="285" y="-296" type="qcurve" smooth="yes"/>
      <point x="347" y="-341"/>
    </contour>
  </outline>
</glyph>
<glyph name="dieresis" format="1">
  <advance width="1182"/>
  <unicode hex="00A8"/>
  <outline>
    <contour>
      <point x="504" y="1323" type="qcurve" smooth="yes"/>
      <point x="406" y="1323"/>
      <point x="406" y="1424" type="qcurve" smooth="yes"/>
      <point x="406" y="1437"/>
      <point x="408" y="1452" type="qcurve" smooth="yes"/>
      <point x="424" y="1573"/>
      <point x="535" y="1573" type="qcurve" smooth="yes"/>
      <point x="632" y="1573"/>
      <point x="632" y="1481" type="qcurve" smooth="yes"/>
      <point x="632" y="1467"/>
      <point x="630" y="1452" type="qcurve" smooth="yes"/>
      <point x="615" y="1323"/>
    </contour>
    <contour>
      <point x="940" y="1323" type="qcurve" smooth="yes"/>
      <point x="844" y="1323"/>
      <point x="844" y="1420" type="qcurve" smooth="yes"/>
      <point x="844" y="1435"/>
      <point x="846" y="1452" type="qcurve" smooth="yes"/>
      <point x="860" y="1573"/>
      <point x="971" y="1573" type="qcurve" smooth="yes"/>
      <point x="1070" y="1573"/>
      <point x="1070" y="1479" type="qcurve" smooth="yes"/>
      <point x="1070" y="1467"/>
      <point x="1068" y="1452" type="qcurve" smooth="yes"/>
      <point x="1060" y="1387"/>
      <point x="994" y="1323"/>
    </contour>
  </outline>
</glyph>
<glyph name="copyright" format="1">
  <advance width="1674"/>
  <unicode hex="00A9"/>
  <outline>
    <contour>
      <point x="842" y="42" type="qcurve" smooth="yes"/>
      <point x="1122" y="42"/>
      <point x="1568" y="439"/>
      <point x="1602" y="719" type="qcurve" smooth="yes"/>
      <point x="1637" y="999"/>
      <point x="1288" y="1396"/>
      <point x="1008" y="1396" type="qcurve" smooth="yes"/>
      <point x="728" y="1396"/>
      <point x="283" y="999"/>
      <point x="248" y="719" type="qcurve" smooth="yes"/>
      <point x="214" y="439"/>
      <point x="562" y="42"/>
    </contour>
    <contour>
      <point x="835" y="-18" type="qcurve" smooth="yes"/>
      <point x="530" y="-18"/>
      <point x="151" y="414"/>
      <point x="188" y="719" type="qcurve" smooth="yes"/>
      <point x="226" y="1024"/>
      <point x="711" y="1456"/>
      <point x="1016" y="1456" type="qcurve" smooth="yes"/>
      <point x="1321" y="1456"/>
      <point x="1700" y="1024"/>
      <point x="1662" y="719" type="qcurve" smooth="yes"/>
      <point x="1625" y="414"/>
      <point x="1140" y="-18"/>
    </contour>
    <contour>
      <point x="896" y="258" type="qcurve" smooth="yes"/>
      <point x="712" y="258"/>
      <point x="625" y="371" type="qcurve" smooth="yes"/>
      <point x="559" y="457"/>
      <point x="559" y="616" type="qcurve" smooth="yes"/>
      <point x="559" y="667"/>
      <point x="566" y="726" type="qcurve" smooth="yes"/>
      <point x="625" y="1188"/>
      <point x="1000" y="1188" type="qcurve" smooth="yes"/>
      <point x="1188" y="1188"/>
      <point x="1275" y="1101" type="qcurve"/>
      <point x="1248" y="884" type="line"/>
      <point x="1181" y="892" type="line"/>
      <point x="1173" y="894"/>
      <point x="1171" y="901" type="qcurve"/>
      <point x="1170" y="915" type="line" smooth="yes"/>
      <point x="1167" y="942"/>
      <point x="1155" y="1022"/>
      <point x="1142" y="1046" type="qcurve" smooth="yes"/>
      <point x="1134" y="1060"/>
      <point x="1116" y="1070" type="qcurve"/>
      <point x="1057" y="1099"/>
      <point x="989" y="1099" type="qcurve" smooth="yes"/>
      <point x="869" y="1099"/>
      <point x="718" y="912"/>
      <point x="694" y="726" type="qcurve"/>
      <point x="688" y="673"/>
      <point x="688" y="627" type="qcurve" smooth="yes"/>
      <point x="688" y="346"/>
      <point x="907" y="346" type="qcurve" smooth="yes"/>
      <point x="946" y="346"/>
      <point x="1029" y="356"/>
      <point x="1066" y="379" type="qcurve"/>
      <point x="1067" y="379" type="line"/>
      <point x="1077" y="386"/>
      <point x="1082" y="391" type="qcurve" smooth="yes"/>
      <point x="1095" y="404"/>
      <point x="1115" y="459" type="qcurve" smooth="yes"/>
      <point x="1127" y="495" type="line" smooth="yes"/>
      <point x="1129" y="503"/>
      <point x="1140" y="504" type="qcurve" smooth="yes"/>
      <point x="1209" y="512" type="line"/>
      <point x="1189" y="351" type="line"/>
      <point x="1135" y="299"/>
      <point x="974" y="258"/>
    </contour>
  </outline>
</glyph>
<glyph name="guillemotleft" format="1">
  <advance width="944"/>
  <unicode hex="00AB"/>
  <outline>
    <contour>
      <point x="532" y="206" type="line"/>
      <point x="405" y="206" type="line"/>
      <point x="184" y="488" type="line" smooth="yes"/>
      <point x="167" y="510"/>
      <point x="167" y="532" type="qcurve" smooth="yes"/>
      <point x="167" y="562"/>
      <point x="198" y="593" type="qcurve" smooth="yes"/>
      <point x="491" y="879" type="line"/>
      <point x="611" y="879" type="line"/>
      <point x="337" y="545" type="line"/>
    </contour>
    <contour>
      <point x="844" y="206" type="line"/>
      <point x="717" y="206" type="line"/>
      <point x="495" y="488" type="line" smooth="yes"/>
      <point x="478" y="510"/>
      <point x="478" y="532" type="qcurve" smooth="yes"/>
      <point x="478" y="562"/>
      <point x="509" y="593" type="qcurve" smooth="yes"/>
      <point x="802" y="879" type="line"/>
      <point x="922" y="879" type="line"/>
      <point x="648" y="545" type="line"/>
    </contour>
  </outline>
</glyph>
<glyph name="logicalnot" format="1">
  <advance width="1017"/>
  <unicode hex="00AC"/>
  <outline>
    <contour>
      <point x="184" y="767" type="line"/>
      <point x="1024" y="767" type="line"/>
      <point x="964" y="276" type="line"/>
      <point x="963" y="275" type="line"/>
      <point x="815" y="275" type="line"/>
      <point x="857" y="617" type="line"/>
      <point x="166" y="617" type="line"/>
    </contour>
  </outline>
</glyph>
<glyph name="registered" format="1">
  <advance width="1674"/>
  <unicode hex="00AE"/>
  <outline>
    <contour>
      <point x="842" y="42" type="qcurve" smooth="yes"/>
      <point x="1122" y="42"/>
      <point x="1568" y="439"/>
      <point x="1602" y="719" type="qcurve" smooth="yes"/>
      <point x="1637" y="999"/>
      <point x="1288" y="1396"/>
      <point x="1008" y="1396" type="qcurve" smooth="yes"/>
      <point x="728" y="1396"/>
      <point x="283" y="999"/>
      <point x="248" y="719" type="qcurve" smooth="yes"/>
      <point x="214" y="439"/>
      <point x="562" y="42"/>
    </contour>
    <contour>
      <point x="835" y="-18" type="qcurve" smooth="yes"/>
      <point x="530" y="-18"/>
      <point x="151" y="414"/>
      <point x="188" y="719" type="qcurve" smooth="yes"/>
      <point x="226" y="1024"/>
      <point x="711" y="1456"/>
      <point x="1016" y="1456" type="qcurve" smooth="yes"/>
      <point x="1321" y="1456"/>
      <point x="1700" y="1024"/>
      <point x="1662" y="719" type="qcurve" smooth="yes"/>
      <point x="1625" y="414"/>
      <point x="1140" y="-18"/>
    </contour>
    <contour>
      <point x="1286" y="278" type="line"/>
      <point x="1221" y="282"/>
      <point x="1150" y="285"/>
      <point x="1089" y="285" type="qcurve"/>
      <point x="936" y="649" type="line"/>
      <point x="912" y="648"/>
      <point x="794" y="648" type="qcurve"/>
      <point x="761" y="377" type="line"/>
      <point x="761" y="371"/>
      <point x="769" y="370" type="qcurve" smooth="yes"/>
      <point x="844" y="361" type="line"/>
      <point x="852" y="361"/>
      <point x="852" y="353" type="qcurve"/>
      <point x="850" y="278" type="line"/>
      <point x="766" y="284"/>
      <point x="693" y="285" type="qcurve"/>
      <point x="619" y="284"/>
      <point x="533" y="278" type="qcurve"/>
      <point x="549" y="353" type="line" smooth="yes"/>
      <point x="550" y="357"/>
      <point x="554" y="360"/>
      <point x="637" y="370" type="qcurve" smooth="yes"/>
      <point x="646" y="371"/>
      <point x="647" y="380" type="qcurve" smooth="yes"/>
      <point x="733" y="1082" type="line"/>
      <point x="733" y="1089"/>
      <point x="725" y="1089" type="qcurve"/>
      <point x="650" y="1102" type="line"/>
      <point x="642" y="1102"/>
      <point x="642" y="1110" type="qcurve"/>
      <point x="644" y="1178" type="line"/>
      <point x="977" y="1178" type="line" smooth="yes"/>
      <point x="1087" y="1178"/>
      <point x="1229" y="1127"/>
      <point x="1259" y="1069" type="qcurve" smooth="yes"/>
      <point x="1281" y="1026"/>
      <point x="1281" y="962" type="qcurve" smooth="yes"/>
      <point x="1281" y="939"/>
      <point x="1278" y="913" type="qcurve" smooth="yes"/>
      <point x="1250" y="711"/>
      <point x="1052" y="664" type="qcurve"/>
      <point x="1186" y="382" type="line"/>
      <point x="1187" y="382" type="line"/>
      <point x="1190" y="375"/>
      <point x="1199" y="363"/>
      <point x="1209" y="361" type="qcurve"/>
      <point x="1279" y="352" type="line"/>
      <point x="1288" y="352"/>
      <point x="1288" y="344" type="qcurve"/>
    </contour>
    <contour>
      <point x="944" y="722" type="line" smooth="yes"/>
      <point x="1041" y="722"/>
      <point x="1146" y="826"/>
      <point x="1157" y="911" type="qcurve" smooth="yes"/>
      <point x="1160" y="932"/>
      <point x="1160" y="951" type="qcurve" smooth="yes"/>
      <point x="1160" y="1013"/>
      <point x="1091" y="1097"/>
      <point x="982" y="1097" type="qcurve" smooth="yes"/>
      <point x="849" y="1097" type="line"/>
      <point x="803" y="722" type="line"/>
    </contour>
  </outline>
</glyph>
<glyph name="macron" format="1">
  <advance width="1024"/>
  <unicode hex="00AF"/>
  <outline>
    <contour>
      <point x="431" y="1441" type="line"/>
      <point x="448" y="1576" type="line"/>
      <point x="964" y="1576" type="line"/>
      <point x="947" y="1441" type="line"/>
    </contour>
  </outline>
</glyph>
